<svg xmlns="http://www.w3.org/2000/svg" xmlns:xlink="http://www.w3.org/1999/xlink" width="714.8" height="156.853" viewBox="0 0 714.8 156.853">
  <defs>
    <clipPath id="clip-path">
      <rect id="Rectangle_390" data-name="Rectangle 390" width="322.816" height="89.253" transform="translate(0 0)" fill="#486149"/>
    </clipPath>
  </defs>
  <g id="about-title" transform="translate(-3606.1 456.6)">
    <path id="Path_2527" data-name="Path 2527" d="M-296.5-112.8l15.6,51.2h-32l16-51.2ZM-356.9-12c0,7.6,6.4,13.2,14,13.2,7.8,0,11.6-4.2,13.4-10.2l9-28.6h46.8l8.8,28.8c1.8,5.8,6.8,10,14.8,10,7,0,13.6-5.2,13.6-12.6a21.408,21.408,0,0,0-1.6-7.2l-36-106.2c-3.6-10.6-9.4-16.8-21.2-16.8a25.079,25.079,0,0,0-17.8,6.8L-355.5-18.4A19.113,19.113,0,0,0-356.9-12Zm263-28.8c0-20.2-14.8-30.6-24.6-33.8v-.2a34.358,34.358,0,0,0,18.2-30.4c0-19-13.8-35.2-46.8-35.2h-25.6c-15.8,0-21.8,8-21.8,21.4v97.6c0,13.4,6,21.4,21.8,21.4h29.6C-114.5,0-93.9-18.2-93.9-40.8Zm-72.2,16.2V-58.8h22.4c13,0,21.2,7.6,21.2,18.8,0,6.8-2.6,11.6-4.6,13.6-4.6,1.6-8.8,1.8-16.2,1.8Zm0-57.2v-34h18.4c12.4,0,20.2,7.4,20.2,18a19.182,19.182,0,0,1-6.6,14.2c-3.4,1.4-8.8,1.8-13.4,1.8ZM65.5-73.2c0-37-16-69.4-59.4-69.4-40.6,0-60,33.4-60,75,0,37,15.2,69.8,59.4,69.8C48.1,2.2,65.5-34.2,65.5-73.2Zm-90.4-.6c0-16.2,4.8-34.6,11-40,3.8-2.2,10.4-3.4,14.8-3.4,28.6,0,35.6,24.8,35.6,50.2,0,20-6,35.8-10.4,40-2.2,2-10.4,3.8-15.6,3.8C-16.9-23.2-24.9-46.2-24.9-73.8ZM219.3-52.2v-74.4c0-9.6-6-15-14.2-15s-14.2,5.4-14.2,15v73c0,13.8-2.8,21.8-6.2,26.2-4.6,3-11.4,4.2-16.6,4.2-20,0-28.2-12.6-28.2-30.2v-73.2c0-9.6-6-15-14.2-15s-14.2,5.4-14.2,15v69c0,37.6,16.8,59.8,52.8,59.8C196.5,2.2,219.3-18.4,219.3-52.2Zm138.6-74.4c0-7-4-13.8-13.8-13.8H272.5c-9.6,0-13.8,6.8-13.8,13.8,0,7.2,4,13,13.8,13h21.6v99.8c0,9.6,6,15,14.2,15s14.2-5.4,14.2-15v-99.8h21.6C353.7-113.6,357.9-119.6,357.9-126.6Z" transform="translate(3963 -314)" fill="#f9f5eb"/>
    <g id="Group_547" data-name="Group 547" transform="translate(3705.092 -389)">
      <g id="Group_536" data-name="Group 536" clip-path="url(#clip-path)">
        <path id="Path_550" data-name="Path 550" d="M9.673,27.364a120.422,120.422,0,0,1,17.443-5.07.713.713,0,0,0,.084.136.769.769,0,0,0,.122.075,28.79,28.79,0,0,1-3.145,7.455l-.066.249v.449a.5.5,0,0,0,.793.4,16.626,16.626,0,0,0,1.835-1.489,3.964,3.964,0,0,0,.51-.592c.018-.029.031-.061.048-.09a4.28,4.28,0,0,1,.834.366l.239.061a3.787,3.787,0,0,0,2.741-1.471A15.876,15.876,0,0,0,33.566,23.8l.044-.206a2.711,2.711,0,0,1,.779-1.928,8.723,8.723,0,0,1,4.541-2.044,43.608,43.608,0,0,1,8.749-.718,21.376,21.376,0,0,0,5.742.94.508.508,0,0,0,.294-.1,15.876,15.876,0,0,0,1.837-1.5,3.828,3.828,0,0,0,.511-.609,1.237,1.237,0,0,0,.228-.664v-.45a.832.832,0,0,0-.238-.555,3.477,3.477,0,0,0-.856-.622,47.79,47.79,0,0,0-6.348-2.6l-.214-.027c-1.629.151-2.919.3-3.879.465-.48.08-.878.161-1.2.247a4.193,4.193,0,0,0-.506.171l-.766-.383-.223-.053a21.012,21.012,0,0,0-3.259.4V10.839l-.031-.173a2.563,2.563,0,0,0-.68-.915,29.333,29.333,0,0,0-5.726-3.6.5.5,0,0,0-.495.015,4.184,4.184,0,0,1-2.068.376.5.5,0,0,0-.5.5V8.51a.5.5,0,0,0,.1.3l1.288,1.7v.323a7.492,7.492,0,0,1-.793,3.418,8.853,8.853,0,0,1-1.656.7c-2.763.953-8.407,2.377-16.861,4.248V18.4a.5.5,0,0,0-.5-.5H9.041l-.229.056a12.4,12.4,0,0,0-1.866,1.133,3.134,3.134,0,0,0-.544.521,1.158,1.158,0,0,0-.271.64v1.461c.014,1.624,1.057,3.416,2.993,5.528a.5.5,0,0,0,.55.127" fill="#486149"/>
        <path id="Path_551" data-name="Path 551" d="M71.443,48.23l.372-.812.044-.249a39.765,39.765,0,0,0-.779-5.748,6.183,6.183,0,0,0-.549-1.546,1.732,1.732,0,0,0-.395-.494,1.031,1.031,0,0,0-.145-.087,2.413,2.413,0,0,0-.386-.946,5.92,5.92,0,0,0-2.379-1.824c-3.326-1.619-9.6-2.907-18.94-3.951l-.055,0h-4.74l-.068,0-2.954.4a1.07,1.07,0,0,0-.5-.321,2.456,2.456,0,0,0-.691-.084.5.5,0,0,0-.29.092,7.255,7.255,0,0,1-4,.807l-.149.023Q21.849,37.536,15,39.558q-3.424,1.01-5.308,1.513c-.627.168-1.125.293-1.489.375a4.487,4.487,0,0,1-.632.114,1.535,1.535,0,0,1-.823-.277c-.95-.587-2.159-2.3-3.421-5.109a.5.5,0,0,0-.456-.294H2.421a.507.507,0,0,0-.293.095L.207,37.364A.5.5,0,0,0,0,37.769a5.188,5.188,0,0,0,.378,1.695,18.843,18.843,0,0,0,.838,1.869c-.009.01-.023.012-.032.022a1.015,1.015,0,0,0-.243.705v4.209a22.647,22.647,0,0,1-.482,4.155.5.5,0,0,0,.047.327l.413.79a23.739,23.739,0,0,0-.469,4.21v8.008A15.247,15.247,0,0,0,1.691,70.18a10.307,10.307,0,0,0,3.765,4.377.5.5,0,0,0,.275.082,1.136,1.136,0,0,0,.755-.3,2.746,2.746,0,0,0,.679-1.128,10.737,10.737,0,0,0,.448-1.8l.007-.086a1,1,0,0,0-.268-.721.83.83,0,0,0-.222-.136V68.991l-.006-.078L6.681,66.09V64.251a39.047,39.047,0,0,1,.444-5.122.506.506,0,0,0-.04-.277l-.378-.824.409-1.712L7.13,56.2q0-2.752-.443-7.522l.779-3.119c.894.357,1.65.64,2.257.838a6.048,6.048,0,0,0,1.647.372,2.491,2.491,0,0,0,.492-.07c.665-.148,1.887-.526,3.725-1.146,1.685-.568,3.9-1.347,6.6-2.318a37.04,37.04,0,0,1-1.37,6.207l-.019.138a3.639,3.639,0,0,0,.132.781c.224.91.742,2.54,1.553,4.9a9.922,9.922,0,0,0-2.648.356,2.519,2.519,0,0,0-.992.553,1.355,1.355,0,0,0-.277.387L16.654,56.2l-.093-.009h-.45a.5.5,0,0,0-.323.882c.874.723,1.639,2.329,2.141,4.815l-.43,2.27a.509.509,0,0,0,.106.413.5.5,0,0,0,.343.171.5.5,0,0,0,.138.312.5.5,0,0,0,.354.147h.491a.506.506,0,0,0,.324-.119c2.621-2.232,6.947-4.257,12.95-6.011h.02l.386,2.843v.529A161.557,161.557,0,0,0,14.2,68.9a4.394,4.394,0,0,0-1.891-.405,1.375,1.375,0,0,0-1,.381,1.678,1.678,0,0,0-.438.993l-.005.065v.449l.04.2A5.162,5.162,0,0,0,12.923,72.7a20.284,20.284,0,0,0,3.951,1.91.5.5,0,0,0,.42-.031c2.125-1.183,7.3-3.223,15.433-6.06a.258.258,0,0,1,.221.126,1.531,1.531,0,0,1,.153.8v.03c.2,3.286,1.848,6.4,4.851,9.319a.5.5,0,0,0,.348.141,4.114,4.114,0,0,0,2.447-.686,3.608,3.608,0,0,0,1.345-2.051.5.5,0,0,0-.161-.516A6.317,6.317,0,0,1,40.475,72.8a39.848,39.848,0,0,1-1.157-5.752q6.5-.883,9.847-1.688a15.732,15.732,0,0,0,2.665-.835,3.119,3.119,0,0,0,.767-.466,1.009,1.009,0,0,0,.384-.748V61.389a.5.5,0,0,0-.5-.5,16.014,16.014,0,0,1-4.588-.915l-.152-.024a21.138,21.138,0,0,0-3.118.364q-2.108.357-5.373,1.061a.441.441,0,0,1-.3-.091.668.668,0,0,1-.152-.392v-3.2a4.841,4.841,0,0,1,2.314-3.523A10.88,10.88,0,0,1,46.7,52.945l.827.4a.5.5,0,0,0,.521-.055,3.918,3.918,0,0,0,1.625-3.215v-.94a.5.5,0,0,0-.5-.5,2.7,2.7,0,0,1-.535-.1c-.867-.227-2.54-.825-4.962-1.783a.506.506,0,0,0-.339-.01q-2.937.958-4.572,1.436c-.228.067-.426.122-.616.175a54.486,54.486,0,0,1,9.894-9.194.5.5,0,0,0,.154-.609l-.349-.763h3.2c2.356-.005,6.1.929,11.143,2.828l.176.032a1.9,1.9,0,0,1,1.5.769,10.22,10.22,0,0,1,1.7,4.722,56.466,56.466,0,0,1,.6,9.129v4.25l.056.232.319.612a2.761,2.761,0,0,0-.244.469,28.891,28.891,0,0,0-1.09,4.207,32.854,32.854,0,0,0-1.373,3.192,9.034,9.034,0,0,0-.447,1.658H61.471l-.216.05-.762.364-2.672-.84a.5.5,0,0,0-.446.074.5.5,0,0,0-.168.254,4.95,4.95,0,0,1-.7-.3l-.224-.053a1.428,1.428,0,0,0-.992.357,1.652,1.652,0,0,0-.481.954.5.5,0,0,0,.05.322,5.323,5.323,0,0,0,.829,1.218,2.233,2.233,0,0,0,.2.18.5.5,0,0,0-.1.29,12.817,12.817,0,0,0,1.11,5.525,9.519,9.519,0,0,0,3.36,3.88.507.507,0,0,0,.28.085h.449a.5.5,0,0,0,.5-.5v-1.2a61.114,61.114,0,0,0,4.494-4.2,12.391,12.391,0,0,0,1.207-1.467,3.413,3.413,0,0,0,.375-.719,2.475,2.475,0,0,0,.976-.4,5.337,5.337,0,0,0,1.758-2.507,29.2,29.2,0,0,0,1.551-7.544,122.461,122.461,0,0,0,.509-12.246l-.02-.139ZM37.334,39.983a25.485,25.485,0,0,1-9.4,12.427.377.377,0,0,1,.092-.257.869.869,0,0,1,.45-.2.5.5,0,0,0,.384-.583l-.365-1.9a2.087,2.087,0,0,0,.442-.34,7.619,7.619,0,0,0,1.284-2,35.709,35.709,0,0,0,1.438-3.512.5.5,0,0,0-.159-.561,2.944,2.944,0,0,1-1.153-2.021A10.083,10.083,0,0,0,33.8,39.882l.006.008a.951.951,0,0,0,.69.259.491.491,0,0,0,.31-.108,5.119,5.119,0,0,1,2.839-1.264Z" fill="#486149"/>
        <path id="Path_552" data-name="Path 552" d="M164.574,69.226a20.105,20.105,0,0,1-6.819-1.852,109.876,109.876,0,0,1-11.071-5.5v-.05q3.946-6.222,5.935-9.509c.669-1.107,1.172-1.963,1.512-2.576.169-.307.3-.552.39-.745.045-.1.082-.18.111-.259a.846.846,0,0,0,.062-.3,3.754,3.754,0,0,0-1.054-2.2.5.5,0,0,0-.319-.178,45.5,45.5,0,0,1-5.966-1.119,6.312,6.312,0,0,1-1.393-.54.956.956,0,0,1-.248-.19l-.015-.02,0,0a.492.492,0,0,0-.749-.4c-3.271,1.97-9.358,4.466-18.2,7.442a5.352,5.352,0,0,1-2.544-.827.5.5,0,0,0-.5,0,.485.485,0,0,0-.222.328,1.492,1.492,0,0,1-.469.054.5.5,0,0,0-.5.5,8.43,8.43,0,0,0,1.385,3.877,1.484,1.484,0,0,1-.143.69l-.092.093-.16.031a.5.5,0,0,0-.5.5,4.183,4.183,0,0,0,.934,2.616,8.078,8.078,0,0,0,2.643,2.075l.234.059h.449a.5.5,0,0,0,.5-.5,3.913,3.913,0,0,0-.445-1.527,1.4,1.4,0,0,1,.141-.674c.074-.093.08-.107.253-.12h.323c1.82,1.377,3.2,2.451,4.109,3.207.468.386.816.692,1.036.9.026.025.043.044.066.067-.934,1.1-1.7,1.955-2.26,2.518a7.718,7.718,0,0,1-.737.667l-.136.09a2.106,2.106,0,0,1-.934-1.17,8.958,8.958,0,0,1-.475-3.034.5.5,0,0,0-.5-.49,1.37,1.37,0,0,0-1,.382,1.677,1.677,0,0,0-.439.994l0,.065v4.1l-.857,1.305a.5.5,0,0,0-.082.274,4.489,4.489,0,0,0,.918,2.587,11.529,11.529,0,0,0,2.594,2.515.5.5,0,0,0,.3.1c3.225-.01,6.878-1.936,11.055-5.64h.147A98.771,98.771,0,0,0,151.9,72.792a23.747,23.747,0,0,0,7.524,1.684l.134-.018q2.571-.714,3.974-1.07c.466-.119.835-.207,1.1-.264.133-.029.24-.05.318-.063l.09-.013.023,0a.5.5,0,0,0,.493-.585l-.491-2.82a.5.5,0,0,0-.492-.414M138.012,57.415h-.369a1.872,1.872,0,0,1-.472-.1,28.244,28.244,0,0,1-3.727-1.631v-.3q3.126-1.3,8.014-2.833a23.4,23.4,0,0,1-1.754,3.166,4.775,4.775,0,0,1-1.692,1.693M145.7,44.193h0Z" fill="#486149"/>
        <path id="Path_553" data-name="Path 553" d="M117.334,45.115h-1.39a2.983,2.983,0,0,0-.52.068c-.549.108-1.5.35-2.822.715V29.418a59.184,59.184,0,0,1,9.525-2.682.5.5,0,0,0,.406-.491v-1.43a2.342,2.342,0,0,0-.4-1.289,5.254,5.254,0,0,0-1.861-1.591,17.832,17.832,0,0,0-3.23-1.356l-.263-.012L113,21.4a66.989,66.989,0,0,0-2.961-9.534,11.663,11.663,0,0,0-1.434-2.6,3.355,3.355,0,0,0-.759-.728,1.62,1.62,0,0,0-.891-.289h-.49l-.216.049-.94.449a.5.5,0,0,0-.284.465q.164,5.871.4,9.2c.079,1.11.164,2.008.256,2.7a10.96,10.96,0,0,0,.191,1.082,32.449,32.449,0,0,1-16.406,4,.5.5,0,0,0-.5.5v1.431a1.172,1.172,0,0,0,.281.744,3.263,3.263,0,0,0,1.313.849c1.744.71,4.947,1.277,9.725,1.765l.051,0h4.689V51.375a11.22,11.22,0,0,0-1.985,1.319q-1.354,1.045-3.466,2.875-6.108,2.74-9.3,4.4c-1.071.556-1.9,1.02-2.488,1.4a6.878,6.878,0,0,0-.722.523,1.494,1.494,0,0,0-.435.536l-.036.188v.491a.5.5,0,0,0,.362.48c3.107.883,7.176,3.525,12.1,7.943l.011.009q4.646,3.928,7.491,6.056c.951.711,1.752,1.271,2.411,1.686a7.245,7.245,0,0,0,1.6.814l.144.021h.49a.5.5,0,0,0,.5-.474c.3-5.681.447-9.267.45-10.813L112.6,66a.5.5,0,0,0-.114-.4.454.454,0,0,0-.06-.046,3.334,3.334,0,0,1-.134-.539c-.188-1-.386-3.064-.581-6.129l.417-2.2a57.7,57.7,0,0,0,4-6.142,13.811,13.811,0,0,0,1.7-4.411l0-.068v-.45a.5.5,0,0,0-.5-.5M102.946,69c-.774-.14-1.8-.348-3.053-.618V66.865a4.2,4.2,0,0,1,1.179-2.66,15.875,15.875,0,0,1,3.648-2.96.357.357,0,0,1,.215.079c.033.033.087.115.088.351v6.47l-.7,1.064c-.293-.029-.762-.1-1.379-.21" fill="#486149"/>
        <path id="Path_554" data-name="Path 554" d="M124.4,42.356a3.778,3.778,0,0,0,2.238-1.054l.153-.217,1.88-5.231.03-.169a13.908,13.908,0,0,1,3.3-9.35q3.261-3.826,9.867-6.169l.422.193q-1.116,4.827-1.689,7.689a26.365,26.365,0,0,0-.6,3.877c0,2.405,1.175,5,3.419,7.831a.5.5,0,0,0,.5.176,29.97,29.97,0,0,0,7.205-2.439,6.754,6.754,0,0,0,1.911-1.447,2.677,2.677,0,0,0,.709-1.751.5.5,0,0,0-.249-.432,16.041,16.041,0,0,0-6.351-2.408,20.114,20.114,0,0,1,1.82-6.443.5.5,0,0,0-.042-.472.493.493,0,0,0-.126-.115l.159-.334.049-.215V19.135l-.011-.1a.7.7,0,0,0-.137-.284,1.947,1.947,0,0,0-.335-.322,23.465,23.465,0,0,0-2.616-1.636q-1.941-1.1-5.179-2.8a.5.5,0,0,0-.46,0,82.03,82.03,0,0,0-7.5,4.239,13.994,13.994,0,0,0-1.933,1.487,3.613,3.613,0,0,0-.539.638c-.018.028-.028.059-.045.088-.114-.048-.248-.108-.4-.188-1.2-.6-3.563-2.064-7.018-4.356a.5.5,0,0,0-.276-.083h-1.472a.5.5,0,0,0-.5.5c.015,1.344.866,2.778,2.412,4.443v2.054l-.434.832a.492.492,0,0,0,.411.723,65.377,65.377,0,0,1-2.371,11.187l-.018.131v.449a7.867,7.867,0,0,0,.895,3.97,4.941,4.941,0,0,0,2.753,2.225Z" fill="#486149"/>
        <path id="Path_555" data-name="Path 555" d="M190.446,34.026a3.038,3.038,0,0,0,1.924.952q3.606,2.76,5.723,4.168c.718.475,1.307.835,1.782,1.083a5.414,5.414,0,0,0,.637.291,1.65,1.65,0,0,0,.555.119h.491a.5.5,0,0,0,.5-.5V35.976l.441-2.366a.5.5,0,0,0-.107-.411.481.481,0,0,0-.227-.145A1.113,1.113,0,0,1,202,32.9a18.123,18.123,0,0,1-1.459-1.99l-.153-.148c-4.328-2.675-7.263-5.171-8.8-7.417a.5.5,0,0,0-.412-.217h-.532a.5.5,0,0,0-.475.345q-.7,2.136-1.053,3.581a10.3,10.3,0,0,0-.361,2.254v1.88l.041.2a8.468,8.468,0,0,0,1.648,2.638" fill="#486149"/>
        <path id="Path_556" data-name="Path 556" d="M249.788,49.13l-.013-.112a10.615,10.615,0,0,0-1.954-4.47,4.2,4.2,0,0,0-3.315-1.6.5.5,0,0,0-.353.147.489.489,0,0,0-.13.272c-1.309-.274-2.385-.519-3.191-.73a8.925,8.925,0,0,1-1.717-.563.511.511,0,0,0-.334-.059L236,42.5h-4.656a18.75,18.75,0,0,0-7.645,1.412l-2.191-.422-.094-.009a21.7,21.7,0,0,0-3.67.479q-7.347,1.408-26.375,6.963a12.981,12.981,0,0,0-3.808-3.743,9.325,9.325,0,0,0-4.929-1.37.5.5,0,0,0-.5.5v1.43a.5.5,0,0,0,.147.354.5.5,0,0,0,.247.125,1.787,1.787,0,0,1,.27.581,18.613,18.613,0,0,1,.6,3.177c.552,4.424.924,12.469,1.108,24.091v1.463l.059.235a17.81,17.81,0,0,0,5.341,6.261.5.5,0,0,0,.291.093h.449a.5.5,0,0,0,.451-.715l-.4-.838v-.336a4.966,4.966,0,0,1,.9-2.594.494.494,0,0,0,.077-.267,5.9,5.9,0,0,0-.4-1.851,22.327,22.327,0,0,0-1.047-2.409l.446-1.746.016-.124a36.228,36.228,0,0,0-.474-5.1l.421-.842a.483.483,0,0,0-.054-.489l.019-.008a1.274,1.274,0,0,1-.052-.183c-.093-.394-.215-1.253-.349-2.521-.126-1.191-.267-2.765-.422-4.692a.788.788,0,0,0,.161-.1.959.959,0,0,0,.26-.691.429.429,0,0,0-.233-.412,4.369,4.369,0,0,0,.143-.445l.1.021c.838.185,2.526.626,5.036,1.318a.5.5,0,0,0,.632-.482v-.189l6.735-3.561h1.131a4.954,4.954,0,0,1-.3.65l-.061.239a1.429,1.429,0,0,0,.4,1.066,1.3,1.3,0,0,0,.577.308,61.747,61.747,0,0,1-1.412,14.118l-.014.119a3.324,3.324,0,0,0,.41,1.449,10.391,10.391,0,0,0,1.021,1.572v.288a.5.5,0,0,0,.654.476q5.1-1.652,8.257-2.474a21.065,21.065,0,0,1,4.276-.811c2.794.325,4.513.488,5.252.49a1.67,1.67,0,0,0,1.191-.5,4.088,4.088,0,0,0,.95-2.121,18.016,18.016,0,0,0,.276-3.334,24.4,24.4,0,0,0,3.77-3.918,6.061,6.061,0,0,0,1.382-3.419,1.943,1.943,0,0,0-.541-1.307,6.021,6.021,0,0,0-2.368-1.412,25.769,25.769,0,0,0-4.117-1.082l-.253.017-10.66,3.579V57.18a.5.5,0,0,0-.231-.422L207.414,53.7a28.97,28.97,0,0,0,4.522-1.643,5.864,5.864,0,0,0,1.358-.881,2.561,2.561,0,0,0,.215-.228l.006.007a.5.5,0,0,0,.437.083q1.671-.468,2.6-.7c.309-.077.556-.134.736-.171l.214-.04.06-.007.014,0h.867l.837.4a.492.492,0,0,0,.657-.224,1.62,1.62,0,0,1,.319-.117,24.8,24.8,0,0,1,3.843-.539l.854.427a.5.5,0,0,0,.337.039l7.763-1.822a2.158,2.158,0,0,0,.661.2,28.883,28.883,0,0,0,4.212.2,3.516,3.516,0,0,1,2.185.7,6.992,6.992,0,0,1,2.214,3.926,30.628,30.628,0,0,1,.782,7.616l-.48,2.276a.5.5,0,0,0,.48.6,15.962,15.962,0,0,1-4.858,11.7l-1.64-.383h-.225a28.77,28.77,0,0,0-4.341,1.272,5.1,5.1,0,0,0-1.183.647,1.679,1.679,0,0,0-.375.4.991.991,0,0,0-.169.542.5.5,0,0,0,.5.5,10.692,10.692,0,0,1,4.6.9,7.2,7.2,0,0,1,3.032,2.669.5.5,0,0,0,.42.229h1.317l1.778.85a.5.5,0,0,0,.654-.212l.366-.67a2.326,2.326,0,0,0,1.082-.527,7.352,7.352,0,0,0,1.73-2.5,30.313,30.313,0,0,0,1.6-4.407.5.5,0,0,0-.032-.365l-.427-.854c.013-.082.038-.1.108-.157a1.514,1.514,0,0,1,.771-.145.5.5,0,0,0,.5-.5V72.3a1.166,1.166,0,0,0-.194-.633,2.267,2.267,0,0,0-.769-.684,5.485,5.485,0,0,0-.58-.294,17.684,17.684,0,0,1,1.327-1.573,4.02,4.02,0,0,1,.54-.474l.15-.085.025-.008v0a.491.491,0,0,0,.336-.142.5.5,0,0,0,.146-.354,10.069,10.069,0,0,0-.255-1.634c-.139-.67-.338-1.546-.591-2.606h.346a.5.5,0,0,0,.5-.5V57.231l.48-2.32a.652.652,0,0,1,.011-.55V52.93l-.006-.073-.43-2.9a.779.779,0,0,0,.167-.1,1,1,0,0,0,.269-.721M209.411,67.519l-.285-.568v-.5c5.716-3.481,10.145-5.264,13.181-5.431V63.8c0,.291-.153.6-.655.984a12.092,12.092,0,0,1-4.3,1.587,66.867,66.867,0,0,1-7.94,1.148" fill="#486149"/>
        <path id="Path_557" data-name="Path 557" d="M217.577,37.33a2.972,2.972,0,0,1,1.225.467.5.5,0,0,0,.5,0,.5.5,0,0,0,.227-.355l.007,0,.009-.014a3.676,3.676,0,0,1,1-.736c.574-.336,1.379-.743,2.4-1.209,2.4-.055,4.945-1.435,7.7-4.03a61.861,61.861,0,0,0,9.142-11.8.5.5,0,0,0,.077-.267,2.216,2.216,0,0,0-1.036-1.817,7.39,7.39,0,0,0-2.666-1.041l-.108-.012a1.476,1.476,0,0,0-.69.207,15.651,15.651,0,0,0-3.227,2.941q-2.144,2.333-5.433,6.44a72.86,72.86,0,0,0-6.793,6.308c-1.6,1.763-2.548,3.143-2.817,4.316a.5.5,0,0,0,.489.607" fill="#486149"/>
        <path id="Path_558" data-name="Path 558" d="M207.677,12.787c0,1.4-.178,4.854-.53,10.32v.032a39.165,39.165,0,0,0,.939,6.459l-1.7,1.732a.5.5,0,0,0-.142.35,15.678,15.678,0,0,0,4.883,11.178.5.5,0,0,0,.629.071l1.389-.9a.5.5,0,0,0,.228-.419,1.017,1.017,0,0,0-.243-.706.771.771,0,0,0-.138-.092l.373-1.97.007-.13c-.627-8.465-.939-13.519-.938-15.083a3.157,3.157,0,0,0-.284-1.174c.008-.007.018-.008.025-.015a.952.952,0,0,0,.259-.691V16.107l.485-3.274a.506.506,0,0,0-.116-.4.491.491,0,0,0-.312-.158,4.042,4.042,0,0,0,.433-1.845V8.51a1.7,1.7,0,0,0-.554-1.164,8.12,8.12,0,0,0-2.318-1.485,37.4,37.4,0,0,0-4.09-1.585l-.158-.026h-.49a.5.5,0,0,0-.4.8,15.383,15.383,0,0,1,2.764,7.742" fill="#486149"/>
        <path id="Path_559" data-name="Path 559" d="M312.555,44.57a9.733,9.733,0,0,0-5.176-5.68l-.193-.039H303.13a5.3,5.3,0,0,0-1.747.408,58.607,58.607,0,0,0-9.328,5.209,9.683,9.683,0,0,0-.4-2.664,2.621,2.621,0,0,0-.616-1.047,1.463,1.463,0,0,0-1.034-.423h-3.488l-.232.057-1,.523a.5.5,0,0,0-.269.443,4.664,4.664,0,0,0,.46,2.072q-2.988,16.662-3.99,29.151a.5.5,0,0,0,.131.379.4.4,0,0,0,.058.041,1.114,1.114,0,0,0-.191.623l.018.132a16.71,16.71,0,0,0,1.9,4.69,4.617,4.617,0,0,0,1.178,1.271,2.456,2.456,0,0,0,1.419.468h.523a.5.5,0,0,0,.5-.5V71.256l.235-.471a8.169,8.169,0,0,0,3.8,1.332h1l.175-.031a63.142,63.142,0,0,0,7.651-3.311,11,11,0,0,0,1.99-1.321,3.327,3.327,0,0,0,.468-.513.5.5,0,0,0,.311.119c1.389-.009,3.23-.69,5.653-1.98l.021.008a1.063,1.063,0,0,1,.244.549,6.392,6.392,0,0,1,.122,1.4v1.025L308.25,73.6h-2.5l-2.527-.471a3.752,3.752,0,0,1-.995.706.5.5,0,0,0-.025.484l.686,1.4a.492.492,0,0,0-.111.075.5.5,0,0,0-.147.353,13.953,13.953,0,0,0,1.969,7.333,17.48,17.48,0,0,0,5.853,5.693.5.5,0,0,0,.758-.335,181.137,181.137,0,0,0,2.535-18.235l-.009-.14-.495-2.354.959-2.879a.5.5,0,0,0-.023-.374l-.421-.882q.468-5.874.47-8.495a29.564,29.564,0,0,0-1.671-10.914m-22.131,8.664a39.308,39.308,0,0,1,7.438-7.426,11.058,11.058,0,0,1,6.272-2.426,3.168,3.168,0,0,1,2.686,1.307,8.727,8.727,0,0,1,1.392,4.248v1.882a25.64,25.64,0,0,1-3.838-1.834.5.5,0,0,0-.381-.042,31.6,31.6,0,0,0-5.591,2.046q-4.2,2.264-6.582,3.389c-.792.374-1.432.654-1.91.835-.109.042-.21.078-.3.109a6.538,6.538,0,0,1,.817-2.088m-2.4,13.03V62.513a.577.577,0,0,0,.1.006l3.008-.48.189-.071c7.118-4.512,12.775-6.792,16.892-6.954v5.055c-4.859.135-11.558,2.211-20.191,6.195" fill="#486149"/>
        <path id="Path_560" data-name="Path 560" d="M322.67,28.925a.5.5,0,0,0-.353-.146h-.766a9.649,9.649,0,0,0-4.63-3.512.5.5,0,0,0-.442.079.494.494,0,0,0-.181.318l0,0,0,0a1.929,1.929,0,0,1-.5.41,12.307,12.307,0,0,1-1.162.642.642.642,0,0,1-.48-.288,2.8,2.8,0,0,1-.407-1.271.5.5,0,0,0-.5-.436H310.2a.5.5,0,0,0-.5.5v.132c-1.625.4-2.961.751-3.983,1.057a13.611,13.611,0,0,0-2.173.8h-.291l-.853-.427a.5.5,0,0,0-.486.022.482.482,0,0,0-.2.262,1.626,1.626,0,0,1-.406.244,30.71,30.71,0,0,1-4.78,1.469h-.117c.495-.948.914-1.731,1.248-2.331.224-.4.413-.725.562-.966a.471.471,0,0,0,.566.219,27.5,27.5,0,0,1,6.916-1.5.5.5,0,0,0,.5-.5v-1a.5.5,0,0,0-.325-.468c-2.68-1-4.686-1.832-6-2.486a10.019,10.019,0,0,1-1.436-.831,1.661,1.661,0,0,1-.287-.257l-.016-.023v-2.5h3.512a42.668,42.668,0,0,0,5.606-.485.5.5,0,0,0,.431-.5V13.1a.5.5,0,0,0-.416-.493,7.531,7.531,0,0,1-2.625-.86,2.092,2.092,0,0,1-1.03-1.257.5.5,0,0,0-.485-.376.98.98,0,0,0-.713.267.769.769,0,0,0-.1.159c-.958-.14-1.771-.282-2.417-.425a7.85,7.85,0,0,1-1.57-.475.5.5,0,0,0-.717.451l0,.023h-.152a27.359,27.359,0,0,0-2.644-7.342A7.035,7.035,0,0,0,293.1.734,3.357,3.357,0,0,0,291.053,0h-.48a.5.5,0,0,0-.47.67,69.761,69.761,0,0,1,2.429,8.369,4.49,4.49,0,0,0-.427,1.583,6.766,6.766,0,0,0-4.611,2.193l.047-.193V12.1a.5.5,0,0,0-.5-.5h-1.046l-.1.011-2.14.451a4.966,4.966,0,0,0-.685-.936,1.56,1.56,0,0,0-1.084-.528h-.523a1.409,1.409,0,0,0-1.019.4,1.855,1.855,0,0,0-.476,1.02l-.007.085a4.652,4.652,0,0,0,1.28,3.428,6.338,6.338,0,0,0,3.683,1.6l.072,0h4.534l.093-.009,1.936-.367v3.888a.541.541,0,0,1-.094.268,3.334,3.334,0,0,1-.944.886c-1.482,1.04-4.522,2.362-9.027,3.887l-.818-.391a.5.5,0,0,0-.482.028.492.492,0,0,0-.214.349,3.445,3.445,0,0,1-1.284-.363l-.241-.063h-.524a.5.5,0,0,0-.5.5,3.213,3.213,0,0,0,.557,1.8,6.628,6.628,0,0,0,2.687,2.121,22.8,22.8,0,0,0,4.729,1.58.5.5,0,0,0,.292-.019l7.65-2.91.667,1c-.2.035-.419.083-.671.146a75.5,75.5,0,0,0-8.01,2.882l-.047.022q-7.122,3.768-11.77,5.9a40.243,40.243,0,0,1-6.77,2.6.5.5,0,0,0-.281.8,32.3,32.3,0,0,0,2.316,2.693,6.621,6.621,0,0,0,.821.717,1.417,1.417,0,0,0,.787.312h.479a10.266,10.266,0,0,0,2.766-.556c3.533-1.089,9.566-3.764,18.168-8.042a49.213,49.213,0,0,1,21.577-5.518.812.812,0,0,0,.144.217,1.055,1.055,0,0,0,.73.252,50.669,50.669,0,0,0,8.157-1.012.5.5,0,0,0,.41-.492v-.958a.5.5,0,0,0-.146-.354m-20.963-1.832h0l-.005,0Z" fill="#486149"/>
      </g>
    </g>
  </g>
</svg>
