<svg xmlns="http://www.w3.org/2000/svg" xmlns:xlink="http://www.w3.org/1999/xlink" width="212.591" height="118.354" viewBox="0 0 212.591 118.354">
  <defs>
    <clipPath id="clip-path">
      <rect id="Rectangle_387" data-name="Rectangle 387" width="148.911" height="50.347" transform="translate(0 0)" fill="#fff"/>
    </clipPath>
    <clipPath id="clip-path-2">
      <rect id="Rectangle_389" data-name="Rectangle 389" width="212.591" height="58.778" transform="translate(0 0)" fill="#fff"/>
    </clipPath>
  </defs>
  <g id="footer-logo" transform="translate(-267.113 -58.831)">
    <g id="Group_342" data-name="Group 342" transform="translate(297.886 58.831)">
      <g id="Group_343" data-name="Group 343" clip-path="url(#clip-path)">
        <path id="Path_512" data-name="Path 512" d="M91.007,25.143a5.051,5.051,0,0,0-2.955.25,2.894,2.894,0,0,1-.927.3,5.515,5.515,0,0,0-2.369.466,9.028,9.028,0,0,1-2.5.6,13.4,13.4,0,0,1-3.759.646,13.711,13.711,0,0,0-2.282.5,12.881,12.881,0,0,1-2.619.044,1.006,1.006,0,0,1-.587-1.7c1.017-1.031,2.093-2,3.143-3,.314-.3.613-.616.935-.907.209-.19.447-.347.762-.587.221.83.649,1.139,1.413,1.006.161-.029.465.311.575.542.212.447.477.548.814.206a2.741,2.741,0,0,1,2.281-.862A3.154,3.154,0,0,0,85.971,20.4c.444-1.1,1.05-2.145,1.68-3.406a3.683,3.683,0,0,0-.829.327c-.448.339-.869.532-1.268-.024a1.075,1.075,0,0,1,.385-1.495A7.775,7.775,0,0,1,88,15.064c1.227-.165,1.592-1.137,2.119-1.97.408-.644.6-1.361,1.568-1.584.481-.112.82-.905,1.172-1.425.046-.068-.205-.486-.343-.5-.453-.045-.922.068-1.377.028-.337-.03-.873-.134-.941-.333a1.208,1.208,0,0,1,.24-1.055A1.76,1.76,0,0,1,91.668,7.7c1.9.245,2.855-.985,3.786-2.282s1.836-2.576,2.74-3.874A5.4,5.4,0,0,0,98.8.471c.259-.653.585-.556.966-.144a.909.909,0,0,1,.248.421c.249,1.4.452,2.81.735,4.2.062.3.357.759.6.794.717.106,1.14.341.971,1.185a6.52,6.52,0,0,1,1.172.02c.191.038.341.282.509.434a2.026,2.026,0,0,1-.463.389,1.853,1.853,0,0,1-.648.091c-.942.029-1.325.676-.947,1.556a9.486,9.486,0,0,1,.483,1.447.817.817,0,0,0,.92.739c.421-.019.844,0,1.266,0l.084.228-.783.927c.52-.035.854-.034,1.179-.086.213-.034.449-.251.613-.2a10.337,10.337,0,0,1,1.268.594c-.3.221-.569.574-.893.631a3.837,3.837,0,0,1-1.444-.109c-.978-.212-1.266-.081-1.055.848a23.062,23.062,0,0,1,.719,3.213c.043.505.457,1.013.481,1.656.013.342.556.8.956.953s.783-.095.92-.668a1.318,1.318,0,0,1,.835-.693,10.971,10.971,0,0,1,2.094-.392c.242-.024.509.19.765.3-.177.174-.352.349-.529.522-.057.054-.118.1-.337.3.365.05.62.165.807.1a5.816,5.816,0,0,1,3.066-.086c.185.032.335.265.5.405-.167.16-.326.33-.505.475a.264.264,0,0,1-.239.011,3.011,3.011,0,0,0-2.666-.108,8.473,8.473,0,0,1-1.3.354c-.422.1-.849.175-1.276.243-.248.039-.5.041-.754.06-.012.1-.025.19-.037.285a3.607,3.607,0,0,0,1.1.25c1.552-.154,3.1-.361,4.646-.579.756-.107,1.5-.319,2.256-.4.216-.024.464.244.7.377-.128.206-.21.474-.391.6a14.178,14.178,0,0,1-1.6.988,1.742,1.742,0,0,1-.779.151c-1.614.01-3.227,0-4.84,0a1.46,1.46,0,0,0-.719.126,5.86,5.86,0,0,1-3.289.5,2.348,2.348,0,0,0-1.094.354c-.512.292-.96.588-1.406-.088a.576.576,0,0,0-.47-.215c-.822.149-1.637.34-2.452.526-.066.015-.116.1-.266.231a13.042,13.042,0,0,1,1.379.373,11.255,11.255,0,0,1,6,5.786c.831,1.672,1.529,3.411,2.269,5.128a1.83,1.83,0,0,1,.07.646c.007.191-.1.449-.011.564,1.035,1.338.424,3.033,1.015,4.512a3.658,3.658,0,0,1-.349,3.6c-.368.515-.162,1.429-.251,2.158q-.192,1.572-.447,3.137c-.017.107-.277.285-.336.255a.64.64,0,0,1-.342-.386c-.144-1.417-.284-2.836-.372-4.257-.09-1.451,0-2.923-.213-4.353a22.821,22.821,0,0,0-1.037-3.4c-.225-.713-.409-1.443-.679-2.139a43.926,43.926,0,0,0-1.918-4.645,8.379,8.379,0,0,0-3.518-3.622,5.534,5.534,0,0,0-4.87-.308,29.511,29.511,0,0,0-3.359,1.385,14.677,14.677,0,0,0-5.238,5.217A19.489,19.489,0,0,0,84.2,39.008c-.116.416-.117.862-.2,1.288-.08.4-.194.783-.312,1.169-.063.206-.242.4-.238.6C83.475,43.509,82.7,44.7,82.266,46c-.24.71-.81.525-1.309.519s-.64-.329-.627-.778a1.167,1.167,0,0,0-.085-.561,5.573,5.573,0,0,1-.03-4.992c.254-.618.358-1.3.629-1.908.885-1.985,1.719-4,2.754-5.906a20.153,20.153,0,0,1,5.141-5.587,9.865,9.865,0,0,1,1.427-.807c.32-.186.623-.4.934-.6l-.093-.238m-1.554-3.8a13.5,13.5,0,0,0,1.678-.1c1.172-.221,2.325-.542,3.5-.751,1.089-.193,2.195-.3,3.3-.432.428-.053.86-.073,1.29-.113.9-.082,1.8-.233,2.7-.233s1.05-.106.882-1a22.634,22.634,0,0,0-.567-2.718,15.341,15.341,0,0,0-1.1-2.427.682.682,0,0,0-.651-.133,11.882,11.882,0,0,1-4.415,1.258,15.05,15.05,0,0,0-4.449,1,3.26,3.26,0,0,0-1,.866c-.594.726-1.135,1.5-1.7,2.247l-.262-.155a8.53,8.53,0,0,0,.291-.879,7.84,7.84,0,0,0,.1-.9c-1.219,1.1-1.588,2.369-1.1,3.142-.462.7-1.4,1.053-1.545,2.021.309-.081.562-.388.776-.363.924.108,1.347-.408,1.706-1.127.078-.155.384-.2.585-.29a3.075,3.075,0,0,1,.157.648,1.237,1.237,0,0,1-.169.44m11.43-9.606c-.1-.348-.218-.761-.352-1.167-.24-.722-.458-1.454-.765-2.147-.07-.159-.485-.283-.7-.24-.963.192-1.919.425-2.862.7a2.42,2.42,0,0,0-1.077.56c-.993,1.053-1.929,2.158-2.874,3.254a1.98,1.98,0,0,0-.23.486,1.634,1.634,0,0,0,.564.225,12.189,12.189,0,0,0,1.548-.135,1.629,1.629,0,0,0,.487-.255,4.217,4.217,0,0,1,1.216-.659c1.653-.256,3.321-.416,5.049-.62M99.1,4.321a13.112,13.112,0,0,0-1.063,1.067.753.753,0,0,0-.1.64c.046.117.371.188.561.171.708-.063.842-.438.6-1.878M94.235,21.774c.009.078.019.156.028.234.614,0,1.232.037,1.84-.024.164-.016.3-.327.446-.5-.206-.067-.43-.224-.614-.185-.575.12-1.134.313-1.7.478" fill="#fff"/>
        <path id="Path_513" data-name="Path 513" d="M117.275,44.041c1.1.38,1.5.237,2.133-.749.792-1.242,1.568-2.5,2.279-3.789a24.431,24.431,0,0,0,1.287-2.829,3.988,3.988,0,0,0,.019-1.23c-.481.274-.791.587-1.123.613a12.382,12.382,0,0,1-2.427-.052c-.519-.064-.586-.541-.437-.978a2.806,2.806,0,0,1,2.538-1.98,19.127,19.127,0,0,0,3.305-.461,6.5,6.5,0,0,1,1.056-.141,24.825,24.825,0,0,0,5.71-.963,3.624,3.624,0,0,0,1.236-.451,6.02,6.02,0,0,0-3.091.024,9.222,9.222,0,0,1-3.659.916c-.518-.036-1.043.037-1.565.031a1.386,1.386,0,0,1-.785-.125,5.7,5.7,0,0,1-.785-.945c.365-.089.726-.2,1.095-.264.465-.083.936-.134,1.4-.2a5.635,5.635,0,0,0-.744-1.178,17.7,17.7,0,0,0-2.317-1.96,3.215,3.215,0,0,1,.331-5.268,1.04,1.04,0,0,1,1.453.509c.495,1.172.844,2.411,1.4,3.552.586,1.209.885,2.611,2.028,3.49a1.131,1.131,0,0,0,.855.254.85.85,0,0,0,.367-.739c-.041-.246-.361-.454-.577-.66-.073-.069-.22-.058-.3-.124-.305-.252-.6-.52-.894-.782.269-.191.526-.4.808-.57.469-.279.483-.524.038-.858a15.031,15.031,0,0,1-1.75-1.456c-.2-.2-.172-.636-.248-.964a7.34,7.34,0,0,0,.854-.138,1.865,1.865,0,0,0,.764-.339c.079-.074-.07-.412-.137-.623a4.46,4.46,0,0,1-.3-.892,20.96,20.96,0,0,1-.051-2.142,3.079,3.079,0,0,1,.209-.751,2.827,2.827,0,0,1,.716.281,4.388,4.388,0,0,1,1.951,3.423c.027.648.594.846,1.3.563.5-.2,1.046-.309,1.529-.545a1.253,1.253,0,0,0,.558-.658,6.83,6.83,0,0,0,.133-1.058,2.658,2.658,0,0,0-.667-2.436,1.553,1.553,0,0,1-.443-.673c-.05-.261,0-.714.156-.8a.947.947,0,0,1,.884.052,21.458,21.458,0,0,1,2.322,2.653c.27.386.13,1.049.211,1.581.038.252.09.608.257.7s.486-.073.736-.137a5.047,5.047,0,0,1,.924-.244,15.674,15.674,0,0,1,2.47-.014,1.7,1.7,0,0,1,1.2.616,1.76,1.76,0,0,1,.074,1.535c-1.526,1.828-3.124,3.6-4.8,5.3a8.3,8.3,0,0,1-2.07,1.137c-.161.085-.315.182-.53.307.412.536.783.329,1.161.087.465-.3,2.524-.041,2.791.406a.913.913,0,0,1,.025.821c-.468.615-1,1.166-1.934.9a2.027,2.027,0,0,0-1.291.17,8.916,8.916,0,0,1,1.524.7,7.2,7.2,0,0,1,1.066,1.128,7.538,7.538,0,0,1-1.372.8c-1.22.409-2.479.7-3.707,1.09-1.277.4-2.537.856-3.8,1.29a1.168,1.168,0,0,0-.446.195,2.007,2.007,0,0,1-2.239.268c-.482-.156-.774-.1-1,.366-.273.554-.587,1.088-.917,1.694a3.8,3.8,0,0,0,3.047-.568c.793-.4,1.65-.68,2.476-1.021.491-.2.985-.4,1.461-.634,1.382-.678,2.756-1.373,4.131-2.064a1.736,1.736,0,0,1,2,.845c.051.245-.066.713-.231.783-1.127.473-2.291.859-3.434,1.3a3.766,3.766,0,0,0-.651.409,2.106,2.106,0,0,0,.419.534c1.775,1.157,3.437.671,4.4-1.25a11.968,11.968,0,0,1,1.043-1.86,1.182,1.182,0,0,1,1.563-.513,18.849,18.849,0,0,1,2.034,1.171c1.151.8.6,1.4-.3,1.9a3.8,3.8,0,0,1-2.187.8,2.833,2.833,0,0,0-1.539.709c-1.083.767-1.138,1.6-.061,2.379a7.779,7.779,0,0,0,4.242,1.919c.983.04,1.938.529,2.927.672a12.467,12.467,0,0,0,2.266-.044c.216-.01.431-.107.646-.1.64.014.783.277.459.827a2.924,2.924,0,0,1-2.414,1.523c-1.728.1-3.461.125-5.192.13a1.637,1.637,0,0,1-.85-.408c-1.337-1-2.658-2.025-3.985-3.041-.372-.284-.655-.251-.971.145a29.168,29.168,0,0,1-4.872,4.261,1.37,1.37,0,0,1-.759.2c-.548.024-1.1-.014-1.649-.006a1.985,1.985,0,0,1-2.162-2.252,13.793,13.793,0,0,1,.536-2.557c.4-1.3-.008-1.979-1.355-2.133a1.831,1.831,0,0,1-.733-.316c-.745-.476-1.36-.375-1.737.411-.61,1.272-1.053,2.634-1.76,3.845a8.755,8.755,0,0,1-1.856,1.845,2.676,2.676,0,0,1-.749.318c-.076.032-.166.135-.211.116-.954-.4-1.906-.813-2.846-1.248a.594.594,0,0,1,.065-.436,1.786,1.786,0,0,1,.543-.489c.913-.5,2-.859,1.488-2.382m11.667.458c0,.33-.022.662,0,.99a1.23,1.23,0,0,0,1.954,1.072,16.761,16.761,0,0,0,1.515-1.1c.666-.505,1.35-.994,1.966-1.555a.937.937,0,0,0,.018-.76,6.2,6.2,0,0,0-1.488-.282,10.388,10.388,0,0,1-1.837-.025c-2.141-.558-2.132-.593-2.132,1.659m4.846-11.145-.027-.187a3.694,3.694,0,0,0-1,.014,35.3,35.3,0,0,0-3.5,1.144,14.809,14.809,0,0,0-2.356,1.35c-.164.106-.181.44-.265.669.272.013.587.121.811.023,1.234-.539,2.45-1.122,3.667-1.7.895-.427,1.782-.873,2.673-1.31m.82-7.654c.2.3.329.673.588.836a.831.831,0,0,0,.805-.094,28.7,28.7,0,0,0,1.461-2.516c.059-.111-.075-.475-.146-.483a6.137,6.137,0,0,0-1.606-.031c-.146.023-.209.525-.321.8-.1.245-.205.491-.328.725s-.269.454-.453.76m-3.564,1.161a6.06,6.06,0,0,0,1.171-.882c.131-.157-.049-.572-.088-.87a4.911,4.911,0,0,0-.8.157c-.193.071-.335.291-.528.351-.361.11-.866.109-.689.649.075.226.505.335.933.595m.3,14.8c.047-.036.328-.154.33-.276a.769.769,0,0,0-.3-.572,1.967,1.967,0,0,0-.908-.326,1.391,1.391,0,0,0-.774.267c-.117.078-.216.43-.161.479a1.525,1.525,0,0,0,.667.351,8.021,8.021,0,0,0,1.142.077m2.47-12.9a9.735,9.735,0,0,0,.782-.742c.015-.017-.3-.416-.358-.392a7.8,7.8,0,0,0-.935.556l.511.578m-2.49.089c-.338-.193-.535-.4-.659-.357a1.19,1.19,0,0,0-.561.447c-.034.049.262.449.32.429a5.3,5.3,0,0,0,.9-.519" fill="#fff"/>
        <path id="Path_514" data-name="Path 514" d="M36.712,19.4c.087-.073.133-.141.169-.136,1.637.219,2.979-.784,4.491-1.076.216-.042.431-.093.648-.115,1.259-.124,1.47-.346,1.468-1.579a15.168,15.168,0,0,0-.694-5.109c-.063-.179-.168-.344-.231-.523-.091-.262-.161-.532-.24-.8A3.881,3.881,0,0,1,43.09,9.9c.686-.012,1.38.084,2.06.02,2.472-.235,2.787,1.962,2.3,3.535-.25.807-.542,1.6-.762,2.417-.167.619.414,1.068,1.088.883a1.595,1.595,0,0,1,1.544,2.781,5.746,5.746,0,0,1-1.512.912c-.964.386-2.1,1.825-1.912,2.627a1.068,1.068,0,0,0,.463.688c.158.073.512-.128.695-.3.32-.3.548-.693.867-.99a2.706,2.706,0,0,1,.72-.35c.016.324.15.707.022.96a15.2,15.2,0,0,1-.979,1.4,1.854,1.854,0,0,0-.145.574c.177.036.372.137.527.095.776-.21,1.536-.477,2.311-.686a13.055,13.055,0,0,1,1.913-.415c1.294-.146,2.39-1.083,3.791-.869a1.378,1.378,0,0,0,1.067-.62A11.113,11.113,0,0,0,59,17.632a2.323,2.323,0,0,0-.217-.739,3.408,3.408,0,0,0-.669.221c-.879.5-1.762,1-2.6,1.565a1.248,1.248,0,0,0-.489.792,7.357,7.357,0,0,0,0,1.81,1.727,1.727,0,0,1-.916,1.708.933.933,0,0,1-.8-.015,2.235,2.235,0,0,1-.96-2.769,2.413,2.413,0,0,0,.048-1.736,18.5,18.5,0,0,1-.358-2.93.752.752,0,0,1,.423-.6.974.974,0,0,1,.8.24,13.606,13.606,0,0,1,1.358,1.845c.278.455.559.585.995.291.877-.592,1.779-1.153,2.605-1.81a2.029,2.029,0,0,1,2.016-.391,12.155,12.155,0,0,1,2.632,1.591.835.835,0,0,1,.006,1.363q-1.493,1.513-2.948,3.064a2.1,2.1,0,0,0-.274.611,2.11,2.11,0,0,0,.719.019c.645-.219,1.271-.5,1.905-.752a.867.867,0,0,1,.158-.046,5.459,5.459,0,0,1,2.966,1.374c.086.186.093.568-.023.661a3.177,3.177,0,0,1-1.383.838,32.954,32.954,0,0,1-3.5.039,1.777,1.777,0,0,1,.137.446,8.736,8.736,0,0,1,.04,1.716c-.073.53-.385,1.025-.485,1.555-.261,1.371.125,1.893,1.32,2.581,1.554.9,3.226.721,4.879.759,1.2.027,2.4-.1,3.594-.021a1.679,1.679,0,0,1,1.217.75c.126.256-.228.941-.555,1.192-1.41,1.084-2.881,2.09-4.345,3.1a1.532,1.532,0,0,1-1.782-.061c-.959-.583-1.941-1.131-2.879-1.745A24.675,24.675,0,0,1,59.1,32.329c-1.5-1.28-2.168-1.272-3.6.055a12.917,12.917,0,0,1-4.352,2.564,15.667,15.667,0,0,0-1.838.907c-.585.312-1.212.578-1.758.065a1.257,1.257,0,0,1,.038-1.742c.842-1.151,1.772-2.239,2.7-3.325.112-.131.428-.086.65-.123.014.245.125.545.023.725-.281.5-.671.933-.976,1.419a1.637,1.637,0,0,0-.1.6c.227.018.511.134.672.04,1.516-.883,3.028-1.777,4.507-2.721a.907.907,0,0,0,.038-1.626,18.147,18.147,0,0,0-2.662-1.176c-.173-.072-.44,0-.556-.108-1.025-.967-2.279-.545-3.45-.592-.52-.02-1.044.066-1.564.05-.687-.022-1.067.252-1.01.961.127,1.58.38,3.158.383,4.737a12.278,12.278,0,0,1-.538,3.274,1.013,1.013,0,0,1-1.584.38A4.125,4.125,0,0,1,42.255,34c-.053-.261-.22-.5-.29-.759a5.579,5.579,0,0,1-.1-.746,6.4,6.4,0,0,1,.853-.01,6.674,6.674,0,0,1,.849.2,8.879,8.879,0,0,0,.205-1.132c.035-.585.015-1.174,0-1.76,0-.231-.048-.461-.073-.691-.248.051-.566.021-.73.166A8.417,8.417,0,0,1,39.6,31.227a5.328,5.328,0,0,1-1.94.242c-.732-.09-.937-.812-.974-1.446-.069-1.172.43-1.556,1.588-1.549a3.377,3.377,0,0,0,1.607-.419,10.066,10.066,0,0,0,3.847-3.016,2.884,2.884,0,0,0-.008-2.416,1.045,1.045,0,0,0-.876-.163,4.17,4.17,0,0,1-3.193-.281A4.659,4.659,0,0,1,36.712,19.4m15.733,6.909.126.379A3.658,3.658,0,0,1,55.6,27.3a2.113,2.113,0,0,0,.7.4c.257.056.724.056.792-.076a4.26,4.26,0,0,0,.767-2.954c-.126-.527-.434-.774-1.045-.477-.707.344-1.489.533-2.2.875-.751.362-1.454.824-2.178,1.242" fill="#fff"/>
        <path id="Path_515" data-name="Path 515" d="M10.771,29.1c-.251-.013-.5-.047-.752-.035-.845.039-1.407-.434-1.233-1.222.184-.832-.369-1.154-.845-1.524-.12-.094-.528.059-.716.209-.225.179-.308.542-.537.712a3.347,3.347,0,0,0-1.322,3.372A5.211,5.211,0,0,1,4.9,34.048c-.289.478.1,1.308-.639,1.637a1.054,1.054,0,0,1-.842.058A29.353,29.353,0,0,1,.544,33.555c-.819-.732-.53-1.719-.307-2.625a2.716,2.716,0,0,1,.458-.872,6.19,6.19,0,0,0,.9-5.456,1.614,1.614,0,0,1-.091-.725c.055-.246.2-.575.4-.652.162-.064.521.123.666.3.605.747,1.164,1.531,1.734,2.305.332.45.673.513,1.087.092.19-.193.5-.294.633-.511a1.671,1.671,0,0,0,.369-1.031c-.282-1.184-.292-1.183.9-1.2A1.919,1.919,0,0,0,9.3,20.627c-.017-.068-.1-.118-.226-.249-1.215,1.608-2.341.051-3.525-.128-.182-.028-.293-.522-.438-.8.262-.094.552-.312.781-.26A4.43,4.43,0,0,0,8.468,18.6c1.877-.663,2.262-1.993,2.069-3.753a3.483,3.483,0,0,0-.915-2.537c-.437-.4-.923-1.054-.327-1.743.388-.449,1.15-.33,1.8.371a29.312,29.312,0,0,1,2.309,2.78A2.172,2.172,0,0,0,15.3,14.81a1.672,1.672,0,0,1,1.045.367,14.184,14.184,0,0,1,1.623,1.753c.464.588.2,1.056-.505,1.225a13.692,13.692,0,0,0-1.99.729.478.478,0,0,0-.237.375c.009.115.173.264.3.318.775.321,1.578.58,2.337.934a4.287,4.287,0,0,0,3.085.07,8.692,8.692,0,0,1,4.707.093,3.191,3.191,0,0,1,2.442,2.4A16.672,16.672,0,0,1,28.475,27a23.6,23.6,0,0,1-.652,3.212c-.195,1.1-.351,2.218-.46,3.334a4.454,4.454,0,0,1-2.512,3.166c-1.453.783-2.593-.145-3.858-.3-1.4-.173-2.329-1.217-3.282-2.155a1.506,1.506,0,0,1-.373-.434c-.164-.408-.278-.837-.412-1.258a10.187,10.187,0,0,0,1.081.378c1.114.256,2.232.494,3.355.707a.654.654,0,0,0,.516-.2c.93-1.1,1.869-2.193,2.731-3.344a3.32,3.32,0,0,0,.321-1.245,3.056,3.056,0,0,1,.168-.882,6.007,6.007,0,0,0,.474-3.377,2.352,2.352,0,0,0-2.539-2.493c-1.179-.031-2.361-.02-3.538.043a1.457,1.457,0,0,0-.873.476c-.669.726-1.264,1.518-1.925,2.252-.307.342-.251.565.084.8.134.1.267.2.393.3.613.509.552.873-.148,1.213a3.349,3.349,0,0,0-.66.564c.3.077.588.164.886.228,1.034.22,2.092.36,3.095.676a1.3,1.3,0,0,1,.777,1.416c-.011.625-.411.816-.87.924a15.053,15.053,0,0,1-2.094.361c-1.487.131-2.006.8-1.811,2.315a13.827,13.827,0,0,1,.092,2.134,3.615,3.615,0,0,1-.267,1.2c-.61,1.539-1.317,1.7-2.546.615a.452.452,0,0,1-.161-.272c-.053-1.146-.166-2.3-.11-3.438.04-.828-.059-1.083-.86-.795-1.122.4-2.162,1.035-3.281,1.448a3.037,3.037,0,0,1-1.911.2,1.809,1.809,0,0,1-.843-1.434,2.166,2.166,0,0,1,1.3-1.843c1.083-.6,2.064-1.38,3.09-2.083-.027-.1-.054-.206-.08-.309m4.122-5.886c-1.754.059-2.595,1.175-3.538,2.112a.584.584,0,0,0,.042.574.781.781,0,0,0,.639.031c.4-.161.756-.419,1.146-.6.716-.34,1.488-.621,1.8-1.435.079-.207-.06-.5-.088-.678M13.718,21.67c.677-.208,1.5.011,1.493-.864,0-.308-.493-.611-.76-.916l-1.308,1.351.575.429M11.181,31.816a15.268,15.268,0,0,0,1.5-1.17c.091-.091-.088-.454-.143-.692a5.613,5.613,0,0,0-1.327.675c-.165.145-.028.633-.028,1.187" fill="#fff"/>
        <path id="Path_516" data-name="Path 516" d="M69.9,46.509a2.184,2.184,0,0,1-.084.7c-.089.186-.31.424-.484.434a24.2,24.2,0,0,1-2.469.016c-.384-.017-.762-.16-1.155-.14-.448-.044-.894-.109-1.343-.125a12.728,12.728,0,0,0-1.513.026c-.264.022-.514.193-.778.22-.984.1-1.9.058-2.012-1.26,0-.045-.121-.079-.178-.113-.062.045-.123.067-.141.108-.177.413.264,1.183-.454,1.227-.7.042-1.535.431-2.136-.382-.3-.408-.652-.329-.928.091-.3.451-.767.6-1.087.2-.2-.25-.113-.78-.045-1.165a10.7,10.7,0,0,1,.431-1.359c.23-.719.435-1.447.705-2.15a.579.579,0,0,1,.543-.18,1.157,1.157,0,0,1,.61.571c.238.828.381,1.683.574,2.525a3.96,3.96,0,0,0,.345.644,6.373,6.373,0,0,0,.24-1.107c0-.493-.066-.986-.1-1.479-.071-.894.321-1.326,1.221-1.3a1.948,1.948,0,0,1,1.963,1.036c.1-.173.146-.267.207-.349.17-.227.347-.449.521-.674a8.084,8.084,0,0,1,.824.832c.094.123-.045.415.043.555a3.313,3.313,0,0,0,.579.574,6.89,6.89,0,0,0,.354-.647c.039-.089-.012-.215-.017-.325a.79.79,0,0,1,.844-.9c.216.01.553.559.578.883.068.9,0,1.806-.009,2.709a4.265,4.265,0,0,0,.063.538l.285,0a12.6,12.6,0,0,0-.035-2.608c-.264-1.22.159-1.915,1.7-1.565a7.351,7.351,0,0,1,1.006.39,1.853,1.853,0,0,1,2.676.212c.417.412.712.353.988-.08.289-.452.673-.623,1.1-.3.483.369.228.72-.1,1.108a.929.929,0,0,0,.036.822,2.177,2.177,0,0,1-.162,2.492c-.472.679-1.059.194-1.557.363-.793.27-1.05-.13-1.143-.819a1.621,1.621,0,0,0-.2-.437l-.3.183m-2.2-2.44c.219.423.642.876.546,1.145-.13.367-.655.594-1.011.88.006.077.013.153.019.229.418-.033,1.028.1,1.22-.129.638-.751.27-1.624.111-2.522l-.885.4m4.784,1.659c-.283-.366-.462-.6-.642-.828a4.449,4.449,0,0,0-.614.961c-.049.141.248.4.387.607l.869-.74m-11.015.909h.292V44.848h-.292Z" fill="#fff"/>
        <path id="Path_517" data-name="Path 517" d="M32.955,44.434a3.731,3.731,0,0,0,.066-.747c-.062-.56.071-1.037.654-1.161.631-.135.514.486.676.817.047.1.11.181.349.572a7.411,7.411,0,0,1,.7-1.035,1.278,1.278,0,0,1,2.213.533c.093.236.181.474.271.711l.239-.028a2.348,2.348,0,0,1,.1-.8,4.368,4.368,0,0,1,.661-.775c.2.251.529.487.557.755.074.706-.021,1.429.025,2.14a3.045,3.045,0,0,0,.344.871,2.623,2.623,0,0,0,.4-.842c.044-.572-.093-1.158-.036-1.726a4.723,4.723,0,0,1,.431-1.156l.929.446a3.55,3.55,0,0,1,.228-.336c.41-.5.848-.431,1.118.158.256.557.525,1.107.789,1.66l.294-.029v-.938c0-.3-.1-.651.033-.877a.854.854,0,0,1,.722-.337.865.865,0,0,1,.493.6,6.222,6.222,0,0,1,.022,1.23l.207.018a8.5,8.5,0,0,1,.887-1.386c.219-.236.75-.466.971-.356A2.427,2.427,0,0,1,48.555,43.5c.212.648-.477.572-.932.645-.364.058-.94.183-1.006.405a2.751,2.751,0,0,0,.13,1.368c.037.145.331.225.508.334.076-.184.161-.365.224-.554.076-.224.071-.512.214-.668a.8.8,0,0,1,.641-.239.726.726,0,0,1,.41.519,11.346,11.346,0,0,1,.081,1.806.687.687,0,0,1-.35.487,1.982,1.982,0,0,1-2.671-.892,1.649,1.649,0,0,0-.5-.619,4.245,4.245,0,0,1-.072.744c-.077.283-.2.761-.338.776a1.138,1.138,0,0,1-.9-.32,9.3,9.3,0,0,1-.8-1.471l-.247,0a4.1,4.1,0,0,0,.012.908c.119.521.042.9-.551.956s-.744-.324-.737-.84c.011-.887,0-1.773,0-2.66l-.376,0c0,.418.023.838-.005,1.254a5.375,5.375,0,0,1-.221,1.69,1.263,1.263,0,0,1-1.03.554,3.538,3.538,0,0,1-1.512-.568c-.242-.149-.33-.548-.566-.976-.463,1.022-1.1,2.093-2.222,1.432-.737-.435-1.1-1.508-1.681-2.373-.581.3-.476,1.046-.618,1.633-.1.419-.073.882-.664.82-.565-.06-.453-.532-.541-.938-.15-.7-.463-1.366-.677-2.056a4.368,4.368,0,0,1-.3-1.389c.008-.238.4-.463.622-.693a2.907,2.907,0,0,1,.6.759,4.248,4.248,0,0,1,.089,1.108l.39-.011m3.264,1.825c.928-.7,1.072-1.223.516-1.881-.263-.311-.526-.466-.882-.088-.625.663-.531,1.223.366,1.969" fill="#fff"/>
        <path id="Path_518" data-name="Path 518" d="M1.46,45.688a4.446,4.446,0,0,1,.111,1.1,3.1,3.1,0,0,1-.418.869c-.217-.232-.617-.46-.623-.7C.5,45.587.548,44.216.6,42.848a.654.654,0,0,1,.306-.51.677.677,0,0,1,.543.249,6.9,6.9,0,0,1,.547.9c.2.336.4.671.6,1.007l.287-.075a10.091,10.091,0,0,1,.008-1.044,5.529,5.529,0,0,1,.231-1.056c.012-.039.391-.05.43.021a2.516,2.516,0,0,1,.455,1.083,22,22,0,0,1-.229,2.293,6.026,6.026,0,0,0,0,.616l.3.082c.2-.6.382-1.215.6-1.812.241-.657.5-1.31.794-1.944a.522.522,0,0,1,.492-.088,1.822,1.822,0,0,1,.613.787c.228.941.359,1.906.542,2.858.016.086.133.152.343.377a4.964,4.964,0,0,0,.224-1c-.005-.63-.1-1.26-.107-1.89a2.281,2.281,0,0,1,.161-1.03.583.583,0,0,1,1.082.041c.216.465.378.956.6,1.42.068.146.245.24.372.358.085-.152.243-.3.241-.456,0-.324-.223-.713-.106-.956.162-.337.552-.566.844-.841.146.281.407.557.418.842.049,1.263.049,2.53.011,3.794-.008.272-.268.772-.373.761a1.409,1.409,0,0,1-.935-.424,8.047,8.047,0,0,1-.7-1.447l-.239.019a5.1,5.1,0,0,0-.047.852c.093.88-.046,1.042-.89,1.015-.67-.021-1.376.154-1.857-.572-.057-.086-.622.034-.835.205a1.931,1.931,0,0,1-2.9-.564c-.206-.392-.428-.776-.643-1.164l-.321.132" fill="#fff"/>
        <path id="Path_519" data-name="Path 519" d="M89.034,46.1c2.071-.372,3.119,1.246,4.628,1.684a3.322,3.322,0,0,0,2.017.074,8.534,8.534,0,0,0,3.446-2.729c.676-.867.944-.865,1.792-.218.451.344.529.7.134,1.1-1.273,1.267-2.517,2.57-3.878,3.735a2.915,2.915,0,0,1-1.731.342,4.376,4.376,0,0,1-2.974-.655c-.812-.644-1.722-1.17-2.5-1.851a6.415,6.415,0,0,1-.936-1.477" fill="#fff"/>
        <path id="Path_520" data-name="Path 520" d="M24.644,45.84c-.193.383-.373.772-.581,1.146a1.51,1.51,0,0,1-2.508.109,3.107,3.107,0,0,1,.6-4.552.8.8,0,0,1,1.22.088c.45.5.892,1.013,1.444,1.64a3.423,3.423,0,0,1,.015-.881,4.683,4.683,0,0,1,.441-.851,5.812,5.812,0,0,1,.736.689c.1.128.062.372.056.562a14.747,14.747,0,0,0-.06,1.482,4.426,4.426,0,0,0,.3.986,3.331,3.331,0,0,0,.358-.911,15.963,15.963,0,0,0-.011-1.894c-.019-.493.179-.824.674-.859.572-.041.662.407.672.836a16.711,16.711,0,0,1-.032,2.961A1.791,1.791,0,0,1,26.948,47.6a4.049,4.049,0,0,1-1.883-.165c-.111-.023-.144-.48-.184-.741-.043-.278-.052-.56-.075-.841l-.162-.009m-1.19-.7c-.042-.147-.041-.344-.139-.45a7.707,7.707,0,0,0-.732-.636,4.4,4.4,0,0,0-.381.875,1.81,1.81,0,0,0,.049.889.8.8,0,0,0,.475.458c.124.032.379-.18.472-.342a3.81,3.81,0,0,0,.256-.794" fill="#fff"/>
        <path id="Path_521" data-name="Path 521" d="M91.05,34.729c.495,0,.99,0,1.486,0,.579,0,1.3.082,1.227.744a1.751,1.751,0,0,1-1.131,1.115c-1.567.411-3.178.655-4.775.954-.694.13-1.77-.947-1.605-1.637a.772.772,0,0,1,.46-.5c1.427-.31,2.864-.572,4.3-.85.013.058.027.115.04.173" fill="#fff"/>
        <path id="Path_522" data-name="Path 522" d="M100.185,36.6a16.586,16.586,0,0,0-1.728.013c-.625.064-1.15-.2-1.178-.732a1.358,1.358,0,0,1,.831-1.02c1.465-.317,2.96-.5,4.45-.688.948-.119.957.782,1.179,1.321.074.176-.407.8-.713.869a25.361,25.361,0,0,1-2.833.343l-.008-.106" fill="#fff"/>
        <path id="Path_523" data-name="Path 523" d="M54.1,44.217c.155.134.283.2.34.3.131.241.358.534.305.745-.059.234-.382.563-.6.568-.74.018-.746.378-.7.967.021.273-.321.574-.5.862-.219-.265-.608-.517-.628-.795a30.7,30.7,0,0,1-.04-3.432c.011-.271.3-.737.5-.757a5,5,0,0,1,2.062.1c.5.174.366.73-.054,1.06a5.294,5.294,0,0,1-.692.383" fill="#fff"/>
        <path id="Path_524" data-name="Path 524" d="M19.14,45.883c-.02-.848.253-1.792-.851-2.256-.133-.056-.215-.437-.17-.633.026-.115.346-.211.542-.228a15.472,15.472,0,0,1,1.708-.066c.182,0,.475.132.512.262.056.2.009.571-.124.651-.817.489-.69,1.227-.609,1.97a4.3,4.3,0,0,1,.089,1.3c-.062.291-.424.518-.652.774a3.02,3.02,0,0,1-.478-.795,3.544,3.544,0,0,1,.033-.982" fill="#fff"/>
        <path id="Path_525" data-name="Path 525" d="M114.258,17.717l-.6-.4c.164-.189.325-.381.5-.565a.457.457,0,0,1,.2-.136,6.166,6.166,0,0,1,1.03-.222c.047,0,.241.465.172.541a5.593,5.593,0,0,1-.894.726c-.057.042-.159.025-.4.054" fill="#fff"/>
        <path id="Path_526" data-name="Path 526" d="M14.874,44.426l.767.519c-.263.128-.528.358-.788.354s-.524-.242-.785-.377l.806-.5" fill="#fff"/>
        <path id="Path_527" data-name="Path 527" d="M109.817,49.2c0,.36.006.72-.021,1.078a4.239,4.239,0,0,1-.478.011V49.206l.5,0" fill="#fff"/>
      </g>
    </g>
    <g id="Group_535" data-name="Group 535" transform="translate(201 100.169)">
      <g id="Group_534" data-name="Group 534" transform="translate(66.113 18.238)" clip-path="url(#clip-path-2)">
        <path id="Path_539" data-name="Path 539" d="M8.463,20.1A79.3,79.3,0,0,1,19.95,16.761a.47.47,0,0,0,.055.09.507.507,0,0,0,.08.049,18.96,18.96,0,0,1-2.071,4.909l-.043.164v.3a.329.329,0,0,0,.522.267,10.949,10.949,0,0,0,1.208-.981,2.61,2.61,0,0,0,.336-.39c.012-.019.02-.04.032-.059a2.818,2.818,0,0,1,.549.241l.157.04a2.494,2.494,0,0,0,1.805-.969A10.455,10.455,0,0,0,24.2,17.749l.029-.136a1.785,1.785,0,0,1,.513-1.27A5.745,5.745,0,0,1,27.73,15a28.718,28.718,0,0,1,5.762-.473,14.077,14.077,0,0,0,3.781.619.334.334,0,0,0,.194-.063,10.455,10.455,0,0,0,1.21-.989,2.521,2.521,0,0,0,.337-.4.814.814,0,0,0,.15-.437v-.3a.548.548,0,0,0-.157-.365,2.29,2.29,0,0,0-.564-.41,31.472,31.472,0,0,0-4.18-1.715l-.141-.018c-1.073.1-1.922.2-2.555.306-.316.053-.578.106-.791.163a2.761,2.761,0,0,0-.333.113l-.5-.252-.147-.035a13.837,13.837,0,0,0-2.146.26V9.217l-.02-.114a1.688,1.688,0,0,0-.448-.6,19.317,19.317,0,0,0-3.771-2.373.329.329,0,0,0-.326.01,2.755,2.755,0,0,1-1.362.248.329.329,0,0,0-.329.329v.969a.327.327,0,0,0,.067.2L22.3,9v.213a4.934,4.934,0,0,1-.522,2.251,5.83,5.83,0,0,1-1.091.462c-1.82.628-5.536,1.565-11.1,2.8v-.532a.329.329,0,0,0-.329-.329H8.047L7.9,13.9a8.166,8.166,0,0,0-1.229.746,2.064,2.064,0,0,0-.358.343.763.763,0,0,0-.178.421v.962c.009,1.069.7,2.25,1.971,3.64a.329.329,0,0,0,.362.084" transform="translate(-2.093 -2.079)" fill="#fff"/>
        <path id="Path_540" data-name="Path 540" d="M47.049,42.883l.245-.535.029-.164A26.186,26.186,0,0,0,46.81,38.4a4.072,4.072,0,0,0-.362-1.018,1.141,1.141,0,0,0-.26-.325.679.679,0,0,0-.1-.057,1.589,1.589,0,0,0-.254-.623,3.9,3.9,0,0,0-1.567-1.2c-2.19-1.066-6.321-1.914-12.473-2.6l-.036,0H28.641l-.045,0-1.945.264a.7.7,0,0,0-.327-.211,1.617,1.617,0,0,0-.455-.055.329.329,0,0,0-.191.061,4.778,4.778,0,0,1-2.635.531l-.1.015Q14.389,35.84,9.878,37.172q-2.255.665-3.5,1c-.413.111-.741.193-.981.247a2.953,2.953,0,0,1-.416.075,1.011,1.011,0,0,1-.542-.182A8.129,8.129,0,0,1,2.19,34.943a.331.331,0,0,0-.3-.194h-.3a.334.334,0,0,0-.193.063l-1.265.915A.329.329,0,0,0,0,35.994,3.416,3.416,0,0,0,.249,37.11,12.408,12.408,0,0,0,.8,38.341c-.006.007-.015.008-.021.014a.668.668,0,0,0-.16.464v2.772A14.914,14.914,0,0,1,.3,44.328a.33.33,0,0,0,.031.215l.272.52A15.634,15.634,0,0,0,.3,47.836V53.11a10.041,10.041,0,0,0,.817,4.229,6.788,6.788,0,0,0,2.479,2.882.326.326,0,0,0,.181.054.748.748,0,0,0,.5-.2,1.808,1.808,0,0,0,.447-.743,7.071,7.071,0,0,0,.3-1.188l0-.057a.655.655,0,0,0-.176-.475.546.546,0,0,0-.146-.09v-.969l0-.051L4.4,54.645V53.434a25.714,25.714,0,0,1,.292-3.373.333.333,0,0,0-.026-.182l-.249-.543.269-1.127.009-.076q0-1.813-.292-4.954l.513-2.054c.589.235,1.087.421,1.486.552a3.983,3.983,0,0,0,1.085.245,1.64,1.64,0,0,0,.324-.046c.438-.1,1.243-.346,2.453-.755,1.11-.374,2.57-.887,4.348-1.527a24.393,24.393,0,0,1-.9,4.088l-.013.091a2.4,2.4,0,0,0,.087.514c.148.6.489,1.673,1.023,3.23a6.534,6.534,0,0,0-1.744.234,1.659,1.659,0,0,0-.653.364.892.892,0,0,0-.182.255l-1.261-.239-.061-.006h-.3a.329.329,0,0,0-.213.581,5.664,5.664,0,0,1,1.41,3.171l-.283,1.495a.335.335,0,0,0,.07.272.332.332,0,0,0,.226.113.327.327,0,0,0,.091.205.332.332,0,0,0,.233.1h.323a.333.333,0,0,0,.213-.078c1.726-1.47,4.575-2.8,8.528-3.959h.013l.254,1.872v.348a106.393,106.393,0,0,0-12.123,4.25,2.893,2.893,0,0,0-1.245-.267.905.905,0,0,0-.657.251,1.105,1.105,0,0,0-.288.654l0,.043v.3l.026.129A3.4,3.4,0,0,0,8.51,59a13.358,13.358,0,0,0,2.6,1.258.331.331,0,0,0,.277-.02,85.009,85.009,0,0,1,10.163-3.991.17.17,0,0,1,.146.083,1.008,1.008,0,0,1,.1.526v.02a9.4,9.4,0,0,0,3.195,6.137.33.33,0,0,0,.229.093,2.71,2.71,0,0,0,1.611-.452A2.376,2.376,0,0,0,27.72,61.3a.329.329,0,0,0-.106-.34,4.16,4.16,0,0,1-.96-1.9,26.242,26.242,0,0,1-.762-3.788q4.278-.582,6.485-1.112a10.36,10.36,0,0,0,1.755-.55,2.054,2.054,0,0,0,.505-.307.664.664,0,0,0,.253-.493V51.549a.331.331,0,0,0-.329-.329,10.546,10.546,0,0,1-3.021-.6l-.1-.016a13.921,13.921,0,0,0-2.053.24q-1.388.235-3.538.7a.291.291,0,0,1-.2-.06.44.44,0,0,1-.1-.258V49.111a3.188,3.188,0,0,1,1.524-2.32,7.165,7.165,0,0,1,3.677-.8l.545.26a.33.33,0,0,0,.343-.036,2.58,2.58,0,0,0,1.07-2.117v-.619a.329.329,0,0,0-.329-.329,1.779,1.779,0,0,1-.352-.068c-.571-.149-1.673-.543-3.268-1.174a.333.333,0,0,0-.223-.007q-1.934.631-3.011.946c-.15.044-.281.08-.406.115A35.882,35.882,0,0,1,31.637,36.9a.33.33,0,0,0,.1-.4l-.23-.5H33.62a23.646,23.646,0,0,1,7.338,1.862l.116.021a1.253,1.253,0,0,1,.986.506,6.731,6.731,0,0,1,1.118,3.11,37.185,37.185,0,0,1,.393,6.012v2.8l.037.153.21.4a1.818,1.818,0,0,0-.161.309,19.026,19.026,0,0,0-.718,2.771,21.637,21.637,0,0,0-.9,2.1,5.949,5.949,0,0,0-.294,1.092H40.482l-.142.033-.5.24-1.76-.553a.332.332,0,0,0-.294.049.326.326,0,0,0-.111.167,3.259,3.259,0,0,1-.462-.2l-.148-.035a.94.94,0,0,0-.653.235,1.088,1.088,0,0,0-.317.628.33.33,0,0,0,.033.212,3.505,3.505,0,0,0,.546.8,1.47,1.47,0,0,0,.13.119.326.326,0,0,0-.068.191,8.441,8.441,0,0,0,.731,3.638,6.269,6.269,0,0,0,2.213,2.555.334.334,0,0,0,.184.056h.3a.331.331,0,0,0,.329-.329v-.793a40.246,40.246,0,0,0,2.96-2.765,8.16,8.16,0,0,0,.795-.966,2.248,2.248,0,0,0,.247-.473,1.63,1.63,0,0,0,.643-.261,3.515,3.515,0,0,0,1.158-1.651,19.226,19.226,0,0,0,1.021-4.968,80.648,80.648,0,0,0,.335-8.065l-.013-.092ZM24.586,37.452a16.783,16.783,0,0,1-6.19,8.184.248.248,0,0,1,.061-.169.572.572,0,0,1,.3-.135.329.329,0,0,0,.253-.384l-.24-1.248a1.375,1.375,0,0,0,.291-.224,5.017,5.017,0,0,0,.846-1.316,23.515,23.515,0,0,0,.947-2.313.329.329,0,0,0-.1-.369,1.939,1.939,0,0,1-.759-1.331,6.64,6.64,0,0,0,2.276-.761l0,.005a.626.626,0,0,0,.454.171.324.324,0,0,0,.2-.071,3.371,3.371,0,0,1,1.87-.832Z" transform="translate(0 -11.121)" fill="#fff"/>
        <path id="Path_541" data-name="Path 541" d="M150.212,60.519a13.24,13.24,0,0,1-4.491-1.22,72.359,72.359,0,0,1-7.291-3.625v-.033q2.6-4.1,3.909-6.262c.441-.729.772-1.293,1-1.7.111-.2.2-.364.257-.491.03-.064.054-.119.073-.171a.557.557,0,0,0,.041-.195,2.472,2.472,0,0,0-.694-1.447.33.33,0,0,0-.21-.117,29.963,29.963,0,0,1-3.929-.737,4.157,4.157,0,0,1-.917-.356.63.63,0,0,1-.163-.125l-.01-.013,0,0a.324.324,0,0,0-.493-.261c-2.154,1.3-6.163,2.941-11.984,4.9a3.524,3.524,0,0,1-1.675-.545.33.33,0,0,0-.329,0,.32.32,0,0,0-.146.216.982.982,0,0,1-.309.036.331.331,0,0,0-.329.329,5.552,5.552,0,0,0,.912,2.553.977.977,0,0,1-.094.454l-.061.061-.105.02a.329.329,0,0,0-.329.329,2.754,2.754,0,0,0,.615,1.723,5.32,5.32,0,0,0,1.741,1.366l.154.039h.3a.329.329,0,0,0,.329-.329,2.577,2.577,0,0,0-.293-1.006.925.925,0,0,1,.093-.444c.049-.061.053-.07.167-.079h.213c1.2.907,2.105,1.614,2.706,2.112.308.254.537.456.682.6l.043.044c-.615.727-1.118,1.287-1.488,1.658a5.083,5.083,0,0,1-.485.439l-.09.059a1.387,1.387,0,0,1-.615-.771,5.9,5.9,0,0,1-.313-2,.331.331,0,0,0-.329-.323.9.9,0,0,0-.657.252,1.1,1.1,0,0,0-.289.655l0,.043v2.7l-.564.859a.326.326,0,0,0-.054.18,2.956,2.956,0,0,0,.6,1.7,7.593,7.593,0,0,0,1.708,1.656.326.326,0,0,0,.2.065c2.124-.007,4.53-1.275,7.28-3.714h.1a65.046,65.046,0,0,0,7.287,3.251,15.638,15.638,0,0,0,4.955,1.109l.088-.012q1.693-.47,2.617-.7c.307-.078.55-.136.725-.174.088-.019.158-.033.209-.041l.059-.009.015,0a.329.329,0,0,0,.325-.385l-.323-1.857a.329.329,0,0,0-.324-.273M132.72,52.741h-.243a1.233,1.233,0,0,1-.311-.065,18.6,18.6,0,0,1-2.454-1.074v-.195q2.059-.858,5.278-1.866a15.414,15.414,0,0,1-1.155,2.085,3.144,3.144,0,0,1-1.114,1.115m5.062-8.707h0Z" transform="translate(-41.832 -14.93)" fill="#fff"/>
        <path id="Path_542" data-name="Path 542" d="M106.838,32.529h-.915a1.965,1.965,0,0,0-.342.045c-.362.071-.987.23-1.858.471V22.192a38.975,38.975,0,0,1,6.273-1.766.329.329,0,0,0,.267-.323v-.942a1.542,1.542,0,0,0-.265-.849,3.46,3.46,0,0,0-1.226-1.048,11.743,11.743,0,0,0-2.127-.893l-.173-.008-2.487.55a44.116,44.116,0,0,0-1.95-6.279,7.681,7.681,0,0,0-.944-1.71,2.21,2.21,0,0,0-.5-.479,1.067,1.067,0,0,0-.587-.19h-.323l-.142.032-.619.3a.328.328,0,0,0-.187.306q.108,3.866.263,6.056c.052.731.108,1.322.169,1.779a7.214,7.214,0,0,0,.126.713,21.369,21.369,0,0,1-10.8,2.632.329.329,0,0,0-.329.329v.942a.772.772,0,0,0,.185.49,2.149,2.149,0,0,0,.865.559,26.9,26.9,0,0,0,6.4,1.162l.034,0H98.73v13.1a7.389,7.389,0,0,0-1.307.869q-.892.689-2.283,1.893-4.022,1.8-6.123,2.895c-.705.366-1.249.672-1.638.924a4.529,4.529,0,0,0-.475.344.984.984,0,0,0-.286.353l-.024.124v.323a.328.328,0,0,0,.238.316c2.046.582,4.726,2.321,7.971,5.231l.007.006q3.059,2.587,4.933,3.988c.626.468,1.154.837,1.588,1.11a4.771,4.771,0,0,0,1.052.536l.095.014h.323a.329.329,0,0,0,.329-.312c.2-3.741.294-6.1.3-7.121l.292-1.86a.326.326,0,0,0-.075-.265.3.3,0,0,0-.04-.03,2.2,2.2,0,0,1-.088-.355c-.124-.659-.254-2.018-.383-4.036l.275-1.449a38,38,0,0,0,2.637-4.045,9.1,9.1,0,0,0,1.12-2.9l0-.045v-.3a.331.331,0,0,0-.329-.329M97.363,48.258c-.51-.092-1.186-.229-2.011-.407v-1a2.765,2.765,0,0,1,.776-1.752,10.454,10.454,0,0,1,2.4-1.949.235.235,0,0,1,.142.052c.022.022.057.076.058.231V47.7l-.46.7c-.193-.019-.5-.064-.908-.138" transform="translate(-29.568 -2.819)" fill="#fff"/>
        <path id="Path_543" data-name="Path 543" d="M123.1,32.652a2.488,2.488,0,0,0,1.474-.694l.1-.143,1.238-3.445.02-.111a9.159,9.159,0,0,1,2.175-6.157,14.769,14.769,0,0,1,6.5-4.063l.278.127q-.735,3.179-1.112,5.064a17.364,17.364,0,0,0-.4,2.553,8.635,8.635,0,0,0,2.252,5.157.329.329,0,0,0,.333.116,19.737,19.737,0,0,0,4.745-1.606,4.448,4.448,0,0,0,1.258-.953,1.763,1.763,0,0,0,.467-1.153.327.327,0,0,0-.164-.284,10.564,10.564,0,0,0-4.182-1.586,13.246,13.246,0,0,1,1.2-4.243.328.328,0,0,0-.028-.311.324.324,0,0,0-.083-.076l.1-.22.032-.142V17.36l-.007-.069a.461.461,0,0,0-.09-.187,1.282,1.282,0,0,0-.221-.212,15.453,15.453,0,0,0-1.723-1.077q-1.278-.725-3.411-1.841a.33.33,0,0,0-.3,0,54.023,54.023,0,0,0-4.936,2.792,9.217,9.217,0,0,0-1.273.979,2.38,2.38,0,0,0-.355.42c-.012.018-.018.039-.03.058-.075-.032-.163-.071-.266-.124-.793-.4-2.346-1.359-4.622-2.869a.329.329,0,0,0-.182-.055h-.969a.329.329,0,0,0-.329.329,4.753,4.753,0,0,0,1.588,2.926v1.353l-.286.548a.324.324,0,0,0,.271.476,43.052,43.052,0,0,1-1.561,7.367l-.012.086v.3a5.181,5.181,0,0,0,.589,2.614,3.254,3.254,0,0,0,1.813,1.465Z" transform="translate(-41.176 -4.758)" fill="#fff"/>
        <path id="Path_544" data-name="Path 544" d="M189.869,30.306a2,2,0,0,0,1.267.627q2.375,1.818,3.769,2.745c.473.313.861.55,1.174.713a3.568,3.568,0,0,0,.419.192,1.087,1.087,0,0,0,.366.078h.323a.329.329,0,0,0,.329-.329V31.59l.29-1.558a.33.33,0,0,0-.07-.271.317.317,0,0,0-.149-.1.734.734,0,0,1-.107-.1,11.932,11.932,0,0,1-.961-1.311l-.1-.1a19.473,19.473,0,0,1-5.8-4.884.329.329,0,0,0-.271-.143H190a.329.329,0,0,0-.313.227q-.46,1.407-.693,2.358a6.782,6.782,0,0,0-.238,1.484v1.238l.027.13a5.577,5.577,0,0,0,1.085,1.737" transform="translate(-64.451 -7.898)" fill="#fff"/>
        <path id="Path_545" data-name="Path 545" d="M226.688,46.7l-.009-.074a6.99,6.99,0,0,0-1.287-2.944,2.767,2.767,0,0,0-2.183-1.053.332.332,0,0,0-.232.1.322.322,0,0,0-.086.179c-.862-.18-1.571-.342-2.1-.481a5.877,5.877,0,0,1-1.131-.371.336.336,0,0,0-.22-.039l-1.829.319h-3.066a12.348,12.348,0,0,0-5.035.93l-1.443-.278-.062-.006a14.29,14.29,0,0,0-2.417.315q-4.838.928-17.369,4.585a8.548,8.548,0,0,0-2.508-2.465,6.141,6.141,0,0,0-3.246-.9.329.329,0,0,0-.329.329v.942a.332.332,0,0,0,.1.233.328.328,0,0,0,.163.082,1.176,1.176,0,0,1,.178.383,12.258,12.258,0,0,1,.394,2.092c.364,2.913.609,8.211.73,15.865V65.4l.039.155a11.729,11.729,0,0,0,3.517,4.123.327.327,0,0,0,.192.061h.3a.329.329,0,0,0,.3-.471l-.263-.552V68.5a3.27,3.27,0,0,1,.595-1.708.326.326,0,0,0,.051-.176,3.888,3.888,0,0,0-.26-1.219,14.7,14.7,0,0,0-.689-1.586l.294-1.15.011-.082a23.859,23.859,0,0,0-.312-3.362l.277-.555a.318.318,0,0,0-.036-.322l.013-.005a.838.838,0,0,1-.034-.121c-.061-.259-.142-.825-.23-1.66-.083-.784-.176-1.821-.278-3.09a.52.52,0,0,0,.106-.065.631.631,0,0,0,.171-.455.283.283,0,0,0-.153-.271,2.887,2.887,0,0,0,.094-.293l.067.014c.552.122,1.663.412,3.316.868a.33.33,0,0,0,.416-.317v-.124l4.435-2.345h.745a3.261,3.261,0,0,1-.2.428l-.04.157a.941.941,0,0,0,.263.7.855.855,0,0,0,.38.2,40.663,40.663,0,0,1-.93,9.3l-.009.078a2.189,2.189,0,0,0,.27.954,6.843,6.843,0,0,0,.672,1.035v.19a.33.33,0,0,0,.431.313q3.358-1.088,5.438-1.629a13.872,13.872,0,0,1,2.816-.534c1.84.214,2.972.321,3.459.323a1.1,1.1,0,0,0,.784-.329,2.692,2.692,0,0,0,.626-1.4,11.864,11.864,0,0,0,.182-2.2,16.064,16.064,0,0,0,2.483-2.58,3.992,3.992,0,0,0,.91-2.252,1.279,1.279,0,0,0-.356-.861,3.965,3.965,0,0,0-1.559-.93,16.97,16.97,0,0,0-2.711-.713l-.167.011-7.02,2.357V52a.33.33,0,0,0-.152-.278l-3.156-2.012a19.079,19.079,0,0,0,2.978-1.082,3.862,3.862,0,0,0,.894-.58,1.69,1.69,0,0,0,.142-.15l0,0a.327.327,0,0,0,.288.055q1.1-.308,1.713-.462c.2-.051.366-.088.485-.113l.141-.026.039,0h.58l.551.264a.324.324,0,0,0,.433-.148,1.066,1.066,0,0,1,.21-.077,16.329,16.329,0,0,1,2.531-.355l.562.281a.328.328,0,0,0,.222.026l5.112-1.2a1.421,1.421,0,0,0,.435.134,19.02,19.02,0,0,0,2.774.132,2.315,2.315,0,0,1,1.439.46,4.6,4.6,0,0,1,1.458,2.585,20.171,20.171,0,0,1,.515,5.016l-.316,1.5a.327.327,0,0,0,.316.4,10.512,10.512,0,0,1-3.2,7.7l-1.08-.252h-.148a18.946,18.946,0,0,0-2.859.838,3.358,3.358,0,0,0-.779.426,1.106,1.106,0,0,0-.247.261.653.653,0,0,0-.111.357.329.329,0,0,0,.329.329,7.041,7.041,0,0,1,3.028.594,4.74,4.74,0,0,1,2,1.758.326.326,0,0,0,.277.151h.867l1.171.56a.329.329,0,0,0,.431-.14l.241-.441a1.531,1.531,0,0,0,.713-.347,4.842,4.842,0,0,0,1.139-1.649,19.962,19.962,0,0,0,1.056-2.9.331.331,0,0,0-.021-.24l-.281-.562c.009-.054.025-.066.071-.1a1,1,0,0,1,.508-.1.328.328,0,0,0,.329-.329v-.323a.768.768,0,0,0-.128-.417,1.493,1.493,0,0,0-.506-.45,3.611,3.611,0,0,0-.382-.194,11.647,11.647,0,0,1,.874-1.036,2.648,2.648,0,0,1,.356-.312l.1-.056.016-.005v0a.324.324,0,0,0,.221-.094.329.329,0,0,0,.1-.233,6.632,6.632,0,0,0-.168-1.076c-.092-.441-.223-1.018-.389-1.716h.228a.329.329,0,0,0,.329-.329v-4l.316-1.528a.43.43,0,0,1,.007-.362V49.2l0-.048-.283-1.912a.513.513,0,0,0,.11-.067.659.659,0,0,0,.177-.475M200.1,58.809l-.188-.374v-.327c3.764-2.292,6.681-3.467,8.68-3.577V56.36c0,.192-.1.4-.431.648a7.963,7.963,0,0,1-2.832,1.045,44.035,44.035,0,0,1-5.229.756" transform="translate(-62.19 -14.344)" fill="#fff"/>
        <path id="Path_546" data-name="Path 546" d="M217.406,30.221a1.957,1.957,0,0,1,.807.308.331.331,0,0,0,.328,0,.326.326,0,0,0,.149-.234l0,0,.006-.009a2.421,2.421,0,0,1,.657-.485c.378-.221.908-.489,1.58-.8,1.58-.036,3.257-.945,5.071-2.654a40.739,40.739,0,0,0,6.02-7.774.327.327,0,0,0,.051-.176,1.459,1.459,0,0,0-.682-1.2,4.867,4.867,0,0,0-1.756-.686l-.071-.008a.972.972,0,0,0-.454.136,10.307,10.307,0,0,0-2.125,1.937q-1.412,1.536-3.578,4.241a47.982,47.982,0,0,0-4.474,4.154,7.218,7.218,0,0,0-1.855,2.842.33.33,0,0,0,.322.4" transform="translate(-74.121 -5.638)" fill="#fff"/>
        <path id="Path_547" data-name="Path 547" d="M206.7,9.872c0,.921-.117,3.2-.349,6.8v.021a25.794,25.794,0,0,0,.618,4.254l-1.117,1.141a.327.327,0,0,0-.094.23,10.325,10.325,0,0,0,3.216,7.361.329.329,0,0,0,.414.047l.915-.592a.327.327,0,0,0,.15-.276.67.67,0,0,0-.16-.465.507.507,0,0,0-.091-.061l.246-1.3,0-.086c-.413-5.575-.618-8.9-.618-9.933a2.08,2.08,0,0,0-.187-.773c.005,0,.012-.005.016-.01a.627.627,0,0,0,.171-.455V12.058l.319-2.156a.333.333,0,0,0-.076-.263.323.323,0,0,0-.205-.1,2.662,2.662,0,0,0,.285-1.215V7.055a1.122,1.122,0,0,0-.365-.767,5.348,5.348,0,0,0-1.527-.978,24.63,24.63,0,0,0-2.693-1.044l-.1-.017h-.323a.329.329,0,0,0-.266.524,10.13,10.13,0,0,1,1.82,5.1" transform="translate(-69.935 -1.451)" fill="#fff"/>
        <path id="Path_548" data-name="Path 548" d="M301.945,42.617a6.41,6.41,0,0,0-3.409-3.741l-.127-.026h-2.671a3.49,3.49,0,0,0-1.151.269,38.6,38.6,0,0,0-6.143,3.43,6.376,6.376,0,0,0-.263-1.754,1.726,1.726,0,0,0-.406-.69.963.963,0,0,0-.681-.279h-2.3l-.153.038-.66.344a.327.327,0,0,0-.177.292,3.071,3.071,0,0,0,.3,1.365q-1.968,10.973-2.628,19.2a.326.326,0,0,0,.086.25.265.265,0,0,0,.038.027.734.734,0,0,0-.126.41l.012.087a11,11,0,0,0,1.249,3.089,3.04,3.04,0,0,0,.776.837,1.617,1.617,0,0,0,.934.308h.344a.329.329,0,0,0,.329-.329v-5.55l.155-.31a5.38,5.38,0,0,0,2.5.877h.661l.115-.02a41.58,41.58,0,0,0,5.039-2.18,7.242,7.242,0,0,0,1.311-.87,2.191,2.191,0,0,0,.308-.338.327.327,0,0,0,.2.078,8.917,8.917,0,0,0,3.723-1.3l.014.005a.7.7,0,0,1,.161.362,4.21,4.21,0,0,1,.08.923v.675l-.29,3.648h-1.647l-1.664-.31a2.47,2.47,0,0,1-.655.465.329.329,0,0,0-.016.319l.452.923a.324.324,0,0,0-.073.049.328.328,0,0,0-.1.232,9.189,9.189,0,0,0,1.3,4.829,11.512,11.512,0,0,0,3.854,3.749.33.33,0,0,0,.5-.221,119.3,119.3,0,0,0,1.669-12.009l-.006-.092-.326-1.55.632-1.9a.329.329,0,0,0-.015-.246l-.277-.581q.308-3.868.31-5.594a19.469,19.469,0,0,0-1.1-7.187m-14.574,5.706a25.886,25.886,0,0,1,4.9-4.89,7.282,7.282,0,0,1,4.13-1.6,2.086,2.086,0,0,1,1.769.861,5.747,5.747,0,0,1,.917,2.8v1.239a16.884,16.884,0,0,1-2.528-1.208.327.327,0,0,0-.251-.028,20.812,20.812,0,0,0-3.682,1.347q-2.767,1.491-4.335,2.232c-.522.246-.943.431-1.258.55-.072.028-.138.051-.2.072a4.306,4.306,0,0,1,.538-1.375M285.789,56.9v-2.47a.379.379,0,0,0,.067,0l1.981-.316.124-.047c4.688-2.971,8.413-4.473,11.124-4.58v3.329c-3.2.089-7.612,1.456-13.3,4.08" transform="translate(-96.112 -13.266)" fill="#fff"/>
        <path id="Path_549" data-name="Path 549" d="M303.441,19.049a.327.327,0,0,0-.232-.1h-.5a6.354,6.354,0,0,0-3.049-2.313.331.331,0,0,0-.291.052.325.325,0,0,0-.119.209h0l0,0a1.271,1.271,0,0,1-.329.27,8.11,8.11,0,0,1-.765.423.423.423,0,0,1-.316-.19,1.846,1.846,0,0,1-.268-.837.33.33,0,0,0-.327-.287h-2.01a.331.331,0,0,0-.329.329V16.7c-1.07.261-1.95.495-2.623.7a8.965,8.965,0,0,0-1.431.525h-.192l-.562-.281a.328.328,0,0,0-.32.014.317.317,0,0,0-.128.173,1.071,1.071,0,0,1-.267.161,20.225,20.225,0,0,1-3.148.967h-.077c.326-.624.6-1.14.822-1.535.147-.266.272-.477.37-.636a.31.31,0,0,0,.373.144,18.112,18.112,0,0,1,4.555-.99.329.329,0,0,0,.329-.329v-.661a.33.33,0,0,0-.214-.308c-1.765-.658-3.086-1.206-3.953-1.637a6.6,6.6,0,0,1-.946-.547,1.093,1.093,0,0,1-.189-.169l-.011-.015V10.623H289.6a28.1,28.1,0,0,0,3.692-.319.331.331,0,0,0,.284-.327V8.628A.331.331,0,0,0,293.3,8.3a4.96,4.96,0,0,1-1.729-.566,1.377,1.377,0,0,1-.678-.828.33.33,0,0,0-.319-.248.646.646,0,0,0-.47.176.506.506,0,0,0-.064.1c-.631-.092-1.166-.186-1.592-.28a5.17,5.17,0,0,1-1.034-.313.329.329,0,0,0-.472.3v.015h-.1A18.017,18.017,0,0,0,285.1,1.827,4.633,4.633,0,0,0,283.97.483,2.21,2.21,0,0,0,282.619,0H282.3a.329.329,0,0,0-.31.441,45.939,45.939,0,0,1,1.6,5.511A2.957,2.957,0,0,0,283.312,7a4.456,4.456,0,0,0-3.037,1.444l.031-.127V7.967a.33.33,0,0,0-.329-.329h-.689l-.068.007-1.409.3a3.271,3.271,0,0,0-.451-.616,1.027,1.027,0,0,0-.714-.348H276.3a.928.928,0,0,0-.671.261,1.222,1.222,0,0,0-.313.672l0,.056a3.064,3.064,0,0,0,.843,2.258,4.174,4.174,0,0,0,2.425,1.055l.047,0h2.986l.061-.006,1.275-.242V13.6a.356.356,0,0,1-.062.176,2.2,2.2,0,0,1-.622.583,26.919,26.919,0,0,1-5.945,2.56l-.539-.257a.33.33,0,0,0-.317.018.324.324,0,0,0-.141.23,2.269,2.269,0,0,1-.846-.239l-.159-.041h-.345a.329.329,0,0,0-.329.329,2.116,2.116,0,0,0,.367,1.185,4.365,4.365,0,0,0,1.77,1.4,15.015,15.015,0,0,0,3.114,1.041.33.33,0,0,0,.192-.013l5.038-1.916.439.659c-.131.023-.276.055-.442.1a49.715,49.715,0,0,0-5.275,1.9l-.031.014q-4.69,2.481-7.751,3.883a26.5,26.5,0,0,1-4.458,1.716.329.329,0,0,0-.185.525,21.269,21.269,0,0,0,1.525,1.773,4.357,4.357,0,0,0,.541.472.933.933,0,0,0,.518.205h.315a6.76,6.76,0,0,0,1.822-.366,95.355,95.355,0,0,0,11.965-5.3,32.41,32.41,0,0,1,14.21-3.634.534.534,0,0,0,.095.143.694.694,0,0,0,.481.166,33.368,33.368,0,0,0,5.372-.666.329.329,0,0,0,.27-.324v-.631a.326.326,0,0,0-.1-.233m-13.805-1.206Z" transform="translate(-90.946 0)" fill="#fff"/>
      </g>
    </g>
  </g>
</svg>
