<svg xmlns="http://www.w3.org/2000/svg" xmlns:xlink="http://www.w3.org/1999/xlink" width="1920" height="364" viewBox="0 0 1920 364">
  <defs>
    <clipPath id="clip-path">
      <rect id="Rectangle_59" data-name="Rectangle 59" width="40" height="25.138" fill="#5cab4d"/>
    </clipPath>
  </defs>
  <g id="footer-bg-bottom" transform="translate(0 -36.17)">
    <rect id="Rectangle_18" data-name="Rectangle 18" width="1920" height="364" transform="translate(0 36.17)" fill="#399d26"/>
    <g id="Group_84" data-name="Group 84" transform="translate(76.092 126.601)">
      <g id="Group_83" data-name="Group 83" clip-path="url(#clip-path)">
        <path id="Path_401" data-name="Path 401" d="M0,.111C6.343.528,10.025,4.838,13.335,9.988c-.276-3.084-3.1-7.413-6.4-9.929A11.535,11.535,0,0,1,14.4,2.977c2.01,1.815,3.759,3.923,5.526,5.807,1.713-1.83,3.481-3.952,5.489-5.8A11.838,11.838,0,0,1,33.177,0c-3.685,2.424-5.419,5.852-6.584,9.693C29.916,4.8,33.594.473,40,.069c-3.1,2.092-4.847,5.18-6.106,8.613a45.919,45.919,0,0,0-2.431,11.441c-.16,1.64-.261,3.287-.4,5.015H8.834c-.146-1.792-.254-3.573-.442-5.344A44.648,44.648,0,0,0,5.719,7.975,16.575,16.575,0,0,0,0,.111" fill="#5cab4d"/>
      </g>
      <g id="Group_322" data-name="Group 322" transform="translate(154 -57)" clip-path="url(#clip-path)">
        <path id="Path_431" data-name="Path 431" d="M0,.111C6.343.528,10.025,4.838,13.335,9.988c-.276-3.084-3.1-7.413-6.4-9.929A11.535,11.535,0,0,1,14.4,2.977c2.01,1.815,3.759,3.923,5.526,5.807,1.713-1.83,3.481-3.952,5.489-5.8A11.838,11.838,0,0,1,33.177,0c-3.685,2.424-5.419,5.852-6.584,9.693C29.916,4.8,33.594.473,40,.069c-3.1,2.092-4.847,5.18-6.106,8.613a45.919,45.919,0,0,0-2.431,11.441c-.16,1.64-.261,3.287-.4,5.015H8.834c-.146-1.792-.254-3.573-.442-5.344A44.648,44.648,0,0,0,5.719,7.975,16.575,16.575,0,0,0,0,.111" fill="#5cab4d"/>
      </g>
      <g id="Group_323" data-name="Group 323" transform="translate(317)" clip-path="url(#clip-path)">
        <path id="Path_432" data-name="Path 432" d="M0,.111C6.343.528,10.025,4.838,13.335,9.988c-.276-3.084-3.1-7.413-6.4-9.929A11.535,11.535,0,0,1,14.4,2.977c2.01,1.815,3.759,3.923,5.526,5.807,1.713-1.83,3.481-3.952,5.489-5.8A11.838,11.838,0,0,1,33.177,0c-3.685,2.424-5.419,5.852-6.584,9.693C29.916,4.8,33.594.473,40,.069c-3.1,2.092-4.847,5.18-6.106,8.613a45.919,45.919,0,0,0-2.431,11.441c-.16,1.64-.261,3.287-.4,5.015H8.834c-.146-1.792-.254-3.573-.442-5.344A44.648,44.648,0,0,0,5.719,7.975,16.575,16.575,0,0,0,0,.111" fill="#5cab4d"/>
      </g>
    </g>
    <g id="Group_551" data-name="Group 551" transform="translate(1162 316.601)">
      <g id="Group_83-2" data-name="Group 83" clip-path="url(#clip-path)">
        <path id="Path_401-2" data-name="Path 401" d="M0,.111C6.343.528,10.025,4.838,13.335,9.988c-.276-3.084-3.1-7.413-6.4-9.929A11.535,11.535,0,0,1,14.4,2.977c2.01,1.815,3.759,3.923,5.526,5.807,1.713-1.83,3.481-3.952,5.489-5.8A11.838,11.838,0,0,1,33.177,0c-3.685,2.424-5.419,5.852-6.584,9.693C29.916,4.8,33.594.473,40,.069c-3.1,2.092-4.847,5.18-6.106,8.613a45.919,45.919,0,0,0-2.431,11.441c-.16,1.64-.261,3.287-.4,5.015H8.834c-.146-1.792-.254-3.573-.442-5.344A44.648,44.648,0,0,0,5.719,7.975,16.575,16.575,0,0,0,0,.111" fill="#5cab4d"/>
      </g>
      <g id="Group_322-2" data-name="Group 322" transform="translate(154 -57)" clip-path="url(#clip-path)">
        <path id="Path_431-2" data-name="Path 431" d="M0,.111C6.343.528,10.025,4.838,13.335,9.988c-.276-3.084-3.1-7.413-6.4-9.929A11.535,11.535,0,0,1,14.4,2.977c2.01,1.815,3.759,3.923,5.526,5.807,1.713-1.83,3.481-3.952,5.489-5.8A11.838,11.838,0,0,1,33.177,0c-3.685,2.424-5.419,5.852-6.584,9.693C29.916,4.8,33.594.473,40,.069c-3.1,2.092-4.847,5.18-6.106,8.613a45.919,45.919,0,0,0-2.431,11.441c-.16,1.64-.261,3.287-.4,5.015H8.834c-.146-1.792-.254-3.573-.442-5.344A44.648,44.648,0,0,0,5.719,7.975,16.575,16.575,0,0,0,0,.111" fill="#5cab4d"/>
      </g>
      <g id="Group_323-2" data-name="Group 323" transform="translate(317)" clip-path="url(#clip-path)">
        <path id="Path_432-2" data-name="Path 432" d="M0,.111C6.343.528,10.025,4.838,13.335,9.988c-.276-3.084-3.1-7.413-6.4-9.929A11.535,11.535,0,0,1,14.4,2.977c2.01,1.815,3.759,3.923,5.526,5.807,1.713-1.83,3.481-3.952,5.489-5.8A11.838,11.838,0,0,1,33.177,0c-3.685,2.424-5.419,5.852-6.584,9.693C29.916,4.8,33.594.473,40,.069c-3.1,2.092-4.847,5.18-6.106,8.613a45.919,45.919,0,0,0-2.431,11.441c-.16,1.64-.261,3.287-.4,5.015H8.834c-.146-1.792-.254-3.573-.442-5.344A44.648,44.648,0,0,0,5.719,7.975,16.575,16.575,0,0,0,0,.111" fill="#5cab4d"/>
      </g>
    </g>
    <g id="Group_324" data-name="Group 324" transform="translate(1492.092 126.601)">
      <g id="Group_83-3" data-name="Group 83" clip-path="url(#clip-path)">
        <path id="Path_401-3" data-name="Path 401" d="M0,.111C6.343.528,10.025,4.838,13.335,9.988c-.276-3.084-3.1-7.413-6.4-9.929A11.535,11.535,0,0,1,14.4,2.977c2.01,1.815,3.759,3.923,5.526,5.807,1.713-1.83,3.481-3.952,5.489-5.8A11.838,11.838,0,0,1,33.177,0c-3.685,2.424-5.419,5.852-6.584,9.693C29.916,4.8,33.594.473,40,.069c-3.1,2.092-4.847,5.18-6.106,8.613a45.919,45.919,0,0,0-2.431,11.441c-.16,1.64-.261,3.287-.4,5.015H8.834c-.146-1.792-.254-3.573-.442-5.344A44.648,44.648,0,0,0,5.719,7.975,16.575,16.575,0,0,0,0,.111" fill="#5cab4d"/>
      </g>
      <g id="Group_322-3" data-name="Group 322" transform="translate(154 -57)" clip-path="url(#clip-path)">
        <path id="Path_431-3" data-name="Path 431" d="M0,.111C6.343.528,10.025,4.838,13.335,9.988c-.276-3.084-3.1-7.413-6.4-9.929A11.535,11.535,0,0,1,14.4,2.977c2.01,1.815,3.759,3.923,5.526,5.807,1.713-1.83,3.481-3.952,5.489-5.8A11.838,11.838,0,0,1,33.177,0c-3.685,2.424-5.419,5.852-6.584,9.693C29.916,4.8,33.594.473,40,.069c-3.1,2.092-4.847,5.18-6.106,8.613a45.919,45.919,0,0,0-2.431,11.441c-.16,1.64-.261,3.287-.4,5.015H8.834c-.146-1.792-.254-3.573-.442-5.344A44.648,44.648,0,0,0,5.719,7.975,16.575,16.575,0,0,0,0,.111" fill="#5cab4d"/>
      </g>
      <g id="Group_323-3" data-name="Group 323" transform="translate(317)" clip-path="url(#clip-path)">
        <path id="Path_432-3" data-name="Path 432" d="M0,.111C6.343.528,10.025,4.838,13.335,9.988c-.276-3.084-3.1-7.413-6.4-9.929A11.535,11.535,0,0,1,14.4,2.977c2.01,1.815,3.759,3.923,5.526,5.807,1.713-1.83,3.481-3.952,5.489-5.8A11.838,11.838,0,0,1,33.177,0c-3.685,2.424-5.419,5.852-6.584,9.693C29.916,4.8,33.594.473,40,.069c-3.1,2.092-4.847,5.18-6.106,8.613a45.919,45.919,0,0,0-2.431,11.441c-.16,1.64-.261,3.287-.4,5.015H8.834c-.146-1.792-.254-3.573-.442-5.344A44.648,44.648,0,0,0,5.719,7.975,16.575,16.575,0,0,0,0,.111" fill="#5cab4d"/>
      </g>
    </g>
    <g id="Group_325" data-name="Group 325" transform="translate(805 126.601)">
      <g id="Group_83-4" data-name="Group 83" clip-path="url(#clip-path)">
        <path id="Path_401-4" data-name="Path 401" d="M0,.111C6.343.528,10.025,4.838,13.335,9.988c-.276-3.084-3.1-7.413-6.4-9.929A11.535,11.535,0,0,1,14.4,2.977c2.01,1.815,3.759,3.923,5.526,5.807,1.713-1.83,3.481-3.952,5.489-5.8A11.838,11.838,0,0,1,33.177,0c-3.685,2.424-5.419,5.852-6.584,9.693C29.916,4.8,33.594.473,40,.069c-3.1,2.092-4.847,5.18-6.106,8.613a45.919,45.919,0,0,0-2.431,11.441c-.16,1.64-.261,3.287-.4,5.015H8.834c-.146-1.792-.254-3.573-.442-5.344A44.648,44.648,0,0,0,5.719,7.975,16.575,16.575,0,0,0,0,.111" fill="#5cab4d"/>
      </g>
      <g id="Group_322-4" data-name="Group 322" transform="translate(154 -57)" clip-path="url(#clip-path)">
        <path id="Path_431-4" data-name="Path 431" d="M0,.111C6.343.528,10.025,4.838,13.335,9.988c-.276-3.084-3.1-7.413-6.4-9.929A11.535,11.535,0,0,1,14.4,2.977c2.01,1.815,3.759,3.923,5.526,5.807,1.713-1.83,3.481-3.952,5.489-5.8A11.838,11.838,0,0,1,33.177,0c-3.685,2.424-5.419,5.852-6.584,9.693C29.916,4.8,33.594.473,40,.069c-3.1,2.092-4.847,5.18-6.106,8.613a45.919,45.919,0,0,0-2.431,11.441c-.16,1.64-.261,3.287-.4,5.015H8.834c-.146-1.792-.254-3.573-.442-5.344A44.648,44.648,0,0,0,5.719,7.975,16.575,16.575,0,0,0,0,.111" fill="#5cab4d"/>
      </g>
      <g id="Group_323-4" data-name="Group 323" transform="translate(317)" clip-path="url(#clip-path)">
        <path id="Path_432-4" data-name="Path 432" d="M0,.111C6.343.528,10.025,4.838,13.335,9.988c-.276-3.084-3.1-7.413-6.4-9.929A11.535,11.535,0,0,1,14.4,2.977c2.01,1.815,3.759,3.923,5.526,5.807,1.713-1.83,3.481-3.952,5.489-5.8A11.838,11.838,0,0,1,33.177,0c-3.685,2.424-5.419,5.852-6.584,9.693C29.916,4.8,33.594.473,40,.069c-3.1,2.092-4.847,5.18-6.106,8.613a45.919,45.919,0,0,0-2.431,11.441c-.16,1.64-.261,3.287-.4,5.015H8.834c-.146-1.792-.254-3.573-.442-5.344A44.648,44.648,0,0,0,5.719,7.975,16.575,16.575,0,0,0,0,.111" fill="#5cab4d"/>
      </g>
    </g>
    <g id="Group_550" data-name="Group 550" transform="translate(433.092 316.601)">
      <g id="Group_83-5" data-name="Group 83" clip-path="url(#clip-path)">
        <path id="Path_401-5" data-name="Path 401" d="M0,.111C6.343.528,10.025,4.838,13.335,9.988c-.276-3.084-3.1-7.413-6.4-9.929A11.535,11.535,0,0,1,14.4,2.977c2.01,1.815,3.759,3.923,5.526,5.807,1.713-1.83,3.481-3.952,5.489-5.8A11.838,11.838,0,0,1,33.177,0c-3.685,2.424-5.419,5.852-6.584,9.693C29.916,4.8,33.594.473,40,.069c-3.1,2.092-4.847,5.18-6.106,8.613a45.919,45.919,0,0,0-2.431,11.441c-.16,1.64-.261,3.287-.4,5.015H8.834c-.146-1.792-.254-3.573-.442-5.344A44.648,44.648,0,0,0,5.719,7.975,16.575,16.575,0,0,0,0,.111" fill="#5cab4d"/>
      </g>
      <g id="Group_322-5" data-name="Group 322" transform="translate(154 -57)" clip-path="url(#clip-path)">
        <path id="Path_431-5" data-name="Path 431" d="M0,.111C6.343.528,10.025,4.838,13.335,9.988c-.276-3.084-3.1-7.413-6.4-9.929A11.535,11.535,0,0,1,14.4,2.977c2.01,1.815,3.759,3.923,5.526,5.807,1.713-1.83,3.481-3.952,5.489-5.8A11.838,11.838,0,0,1,33.177,0c-3.685,2.424-5.419,5.852-6.584,9.693C29.916,4.8,33.594.473,40,.069c-3.1,2.092-4.847,5.18-6.106,8.613a45.919,45.919,0,0,0-2.431,11.441c-.16,1.64-.261,3.287-.4,5.015H8.834c-.146-1.792-.254-3.573-.442-5.344A44.648,44.648,0,0,0,5.719,7.975,16.575,16.575,0,0,0,0,.111" fill="#5cab4d"/>
      </g>
      <g id="Group_323-5" data-name="Group 323" transform="translate(317)" clip-path="url(#clip-path)">
        <path id="Path_432-5" data-name="Path 432" d="M0,.111C6.343.528,10.025,4.838,13.335,9.988c-.276-3.084-3.1-7.413-6.4-9.929A11.535,11.535,0,0,1,14.4,2.977c2.01,1.815,3.759,3.923,5.526,5.807,1.713-1.83,3.481-3.952,5.489-5.8A11.838,11.838,0,0,1,33.177,0c-3.685,2.424-5.419,5.852-6.584,9.693C29.916,4.8,33.594.473,40,.069c-3.1,2.092-4.847,5.18-6.106,8.613a45.919,45.919,0,0,0-2.431,11.441c-.16,1.64-.261,3.287-.4,5.015H8.834c-.146-1.792-.254-3.573-.442-5.344A44.648,44.648,0,0,0,5.719,7.975,16.575,16.575,0,0,0,0,.111" fill="#5cab4d"/>
      </g>
    </g>
  </g>
</svg>
