<svg xmlns="http://www.w3.org/2000/svg" width="1920.002" height="60.171" viewBox="0 0 1920.002 60.171">
  <g id="footer-bg-page" transform="translate(0 0)">
    <path id="Union_2" data-name="Union 2" d="M1376.7-2905.66l-.7-2.832-.7,2.832H0v-34.911s91.131-25.008,109.557-24.7c12.321.206,55.152,7.664,82.177,12.583,25.461-6.329,53.71-12.74,63.1-12.584,12.321.207,55.152,7.665,82.178,12.584,25.462-6.33,53.709-12.74,63.1-12.583,5.2.087,15.834,1.466,28.417,3.4,6.6-1.376,13.3-2.555,19.862-3.4,21.867-2.815,52.25,5.521,74.44,13.258,11.469-2.26,26.164-5.03,36.557-6.535a300.853,300.853,0,0,1,34.276-6.724c23.993-3.088,58.241,7.25,80.667,15.489,16.166-5.242,41.268-12.483,64.6-15.488,32.819-4.225,84.824,16.669,99.517,22.955,21.1-5.673,87.668-23.214,103.117-22.955,18.426.309,105.076,16.833,105.076,16.833s47.806-10.038,62.745-11.118,89.139,15.752,89.139,15.752,43.337-16.506,81.865-21.466c30.364-3.909,77.15,13.684,95.615,21.316,18.466-7.632,65.252-25.225,95.616-21.316,38.528,4.96,81.865,21.466,81.865,21.466s74.2-16.833,89.139-15.752,62.745,11.118,62.745,11.118,86.649-16.524,105.075-16.833,109.557,24.7,109.557,24.7v34.911Z" transform="translate(0 2965.83)" fill="#399d26"/>
  </g>
</svg>
