<svg xmlns="http://www.w3.org/2000/svg" width="21" height="21" viewBox="0 0 21 21">
  <g id="ic-cart" transform="translate(-6695 -1539)">
    <path id="cart-fill" d="M0,1.667A.667.667,0,0,1,.667,1h2a.667.667,0,0,1,.647.505l.54,2.161h15.48a.667.667,0,0,1,.655.789l-2,10.667a.667.667,0,0,1-.655.544h-12a.667.667,0,0,1-.655-.544l-2-10.647L2.147,2.333H.667A.667.667,0,0,1,0,1.667m6.667,14a2.667,2.667,0,1,0,2.667,2.667,2.667,2.667,0,0,0-2.667-2.667m9.334,0a2.667,2.667,0,1,0,2.667,2.667A2.667,2.667,0,0,0,16,15.667M6.667,17a1.333,1.333,0,1,1-1.333,1.333A1.333,1.333,0,0,1,6.667,17M16,17a1.333,1.333,0,1,1-1.333,1.333A1.333,1.333,0,0,1,16,17" transform="translate(6696 1538)" fill="#fff"/>
    <rect id="Rectangle_394" data-name="Rectangle 394" width="21" height="21" transform="translate(6695 1539)" fill="none"/>
  </g>
</svg>
