<svg id="ic-ig-color" xmlns="http://www.w3.org/2000/svg" xmlns:xlink="http://www.w3.org/1999/xlink" width="29.044" height="29.044" viewBox="0 0 29.044 29.044">
  <defs>
    <clipPath id="clip-path">
      <rect id="Rectangle_21" data-name="Rectangle 21" width="29.044" height="29.044" fill="#c95166"/>
    </clipPath>
  </defs>
  <g id="Group_20" data-name="Group 20" transform="translate(0 0)" clip-path="url(#clip-path)">
    <path id="Path_27" data-name="Path 27" d="M14.493,29.044a14.522,14.522,0,1,1,14.551-14.4,14.546,14.546,0,0,1-14.551,14.4m.043-23.858v-.02c-1.292,0-2.584,0-3.876,0A6.147,6.147,0,0,0,9.9,5.2a5.438,5.438,0,0,0-4.8,5.444q-.006,3.95,0,7.9A5.434,5.434,0,0,0,10.535,24q3.974.013,7.948-.007a5.893,5.893,0,0,0,1.437-.187A5.408,5.408,0,0,0,23.944,18.6q.016-3.912,0-7.825a7.355,7.355,0,0,0-.091-1.129A5.364,5.364,0,0,0,18.929,5.2c-1.462-.063-2.928-.012-4.393-.012" transform="translate(0 0)" fill="#c95166"/>
    <path id="Path_28" data-name="Path 28" d="M28.32,20.882c0,1.317,0,2.633,0,3.949a3.6,3.6,0,0,1-3.683,3.713c-2.18.013-4.361.005-6.542,0-.625,0-1.254.027-1.874-.033a3.545,3.545,0,0,1-3.254-3.541q-.032-4.11,0-8.22a3.569,3.569,0,0,1,3.641-3.571q4.011,0,8.022,0a3.59,3.59,0,0,1,3.688,3.7q0,2,0,4m-7.685,4.865a4.89,4.89,0,1,0-4.882-4.906,4.881,4.881,0,0,0,4.882,4.906m6.2-9.966a1.141,1.141,0,1,0-1.14,1.146,1.147,1.147,0,0,0,1.14-1.146" transform="translate(-6.12 -6.228)" fill="#c95166"/>
    <path id="Path_29" data-name="Path 29" d="M24.694,28.059a3.165,3.165,0,1,1,3.165-3.166,3.154,3.154,0,0,1-3.165,3.166" transform="translate(-10.174 -10.267)" fill="#c95166"/>
  </g>
</svg>
