<svg id="ic-ig" xmlns="http://www.w3.org/2000/svg" xmlns:xlink="http://www.w3.org/1999/xlink" width="57" height="57" viewBox="0 0 57 57">
  <defs>
    <clipPath id="clip-path">
      <rect id="Rectangle_21" data-name="Rectangle 21" width="57" height="57" fill="#fff"/>
    </clipPath>
  </defs>
  <g id="Group_20" data-name="Group 20" transform="translate(0 0)" clip-path="url(#clip-path)">
    <path id="Path_27" data-name="Path 27" d="M28.443,57A28.5,28.5,0,1,1,57,28.73,28.548,28.548,0,0,1,28.443,57m.085-46.823v-.038c-2.535,0-5.071,0-7.606,0a12.063,12.063,0,0,0-1.5.07A10.672,10.672,0,0,0,10,20.9q-.011,7.752,0,15.5a10.664,10.664,0,0,0,10.671,10.71q7.8.026,15.6-.013a11.566,11.566,0,0,0,2.82-.366,10.614,10.614,0,0,0,7.9-10.23q.031-7.678,0-15.357a14.435,14.435,0,0,0-.179-2.215A10.527,10.527,0,0,0,37.149,10.2c-2.869-.124-5.747-.023-8.621-.023" transform="translate(0 0)" fill="#fff"/>
    <path id="Path_28" data-name="Path 28" d="M43.113,28.295c0,2.584,0,5.167,0,7.751a7.064,7.064,0,0,1-7.227,7.287c-4.279.025-8.559.01-12.838,0-1.226,0-2.461.054-3.678-.064a6.958,6.958,0,0,1-6.386-6.949q-.062-8.066,0-16.133a7,7,0,0,1,7.145-7.009q7.872-.006,15.744,0a7.046,7.046,0,0,1,7.239,7.263q0,3.924,0,7.848M28.03,37.842a9.6,9.6,0,1,0-9.58-9.628,9.578,9.578,0,0,0,9.58,9.628M40.19,18.283a2.238,2.238,0,1,0-2.237,2.25,2.252,2.252,0,0,0,2.237-2.25" transform="translate(0.457 0.465)" fill="#fff"/>
    <path id="Path_29" data-name="Path 29" d="M27.737,34.152a6.212,6.212,0,1,1,6.212-6.213,6.19,6.19,0,0,1-6.212,6.213" transform="translate(0.759 0.766)" fill="#fff"/>
  </g>
</svg>
