<svg id="ic-line-color" xmlns="http://www.w3.org/2000/svg" xmlns:xlink="http://www.w3.org/1999/xlink" width="28.506" height="28.518" viewBox="0 0 28.506 28.518">
  <defs>
    <clipPath id="clip-path">
      <rect id="Rectangle_23" data-name="Rectangle 23" width="28.506" height="28.518" fill="#399d26"/>
    </clipPath>
  </defs>
  <g id="Group_24" data-name="Group 24" clip-path="url(#clip-path)">
    <path id="Path_31" data-name="Path 31" d="M14.244,0A14.259,14.259,0,1,1,0,14.308,14.276,14.276,0,0,1,14.244,0m-.1,5.483c-.363.031-.825.054-1.283.113A9.233,9.233,0,0,0,6.895,8.7a6.511,6.511,0,0,0-.846,7.332A8.266,8.266,0,0,0,11.035,20a20.775,20.775,0,0,0,2.159.46c.494.1.679.324.58.791-.093.437-.241.863-.365,1.293-.111.383.019.563.4.454a3.739,3.739,0,0,0,1.1-.485c1.59-1.107,3.185-2.21,4.726-3.383A10.512,10.512,0,0,0,22.251,16.4a6.482,6.482,0,0,0-.662-7.715,9.586,9.586,0,0,0-7.446-3.2" transform="translate(-0.001)" fill="#399d26"/>
    <path id="Path_32" data-name="Path 32" d="M143.7,127.86c0,.678,0,1.355,0,2.033,0,.486-.134.719-.416.711s-.39-.227-.39-.7q0-1.247,0-2.494c0-.115-.006-.232.005-.346.028-.294,0-.635.386-.723.356-.081.511.188.672.433.517.788,1.036,1.575,1.6,2.434.014-.177.027-.273.028-.368,0-.658-.006-1.316.006-1.974,0-.26.047-.541.4-.531.329.009.365.266.366.522,0,1.051.007,2.1,0,3.152,0,.229,0,.477-.289.563a.574.574,0,0,1-.682-.278c-.405-.6-.8-1.213-1.2-1.82l-.417-.633-.074.018" transform="translate(-129.66 -114.631)" fill="#399d26"/>
    <path id="Path_33" data-name="Path 33" d="M191.2,127.686v1.024h1.452c.1,0,.209,0,.311,0,.2.018.36.119.3.326a.455.455,0,0,1-.308.281c-.413.034-.83.015-1.245.015h-.5v1.175c.571,0,1.133,0,1.7,0a.718.718,0,0,1,.339.025c.111.068.248.2.25.311s-.144.221-.248.306a.409.409,0,0,1-.234.037c-.681,0-1.362.009-2.043,0-.508-.008-.619-.114-.625-.611q-.016-1.488,0-2.977c0-.436.131-.554.565-.558.7-.006,1.408,0,2.113,0,.234,0,.431.066.429.333s-.2.309-.414.309H191.2" transform="translate(-172.71 -115.279)" fill="#399d26"/>
    <path id="Path_34" data-name="Path 34" d="M86.341,130.119c.582,0,1.1,0,1.619,0,.23,0,.467.021.475.324.009.321-.244.362-.481.366-.635.01-1.27.014-1.905,0-.418-.01-.546-.139-.549-.544-.008-1.039,0-2.077,0-3.116,0-.069-.014-.16.022-.2.11-.127.239-.319.368-.325s.315.153.395.288a.991.991,0,0,1,.055.472c0,.9,0,1.8,0,2.739" transform="translate(-77.579 -114.895)" fill="#399d26"/>
    <path id="Path_35" data-name="Path 35" d="M123.771,128.488c0-.542,0-1.083,0-1.624,0-.27.093-.489.407-.49s.42.231.422.488c.01,1.094.008,2.189,0,3.283,0,.263-.114.495-.42.492-.326,0-.413-.242-.414-.524,0-.542,0-1.083,0-1.625h.005" transform="translate(-112.305 -114.671)" fill="#399d26"/>
  </g>
</svg>
