<svg id="ic-line" xmlns="http://www.w3.org/2000/svg" xmlns:xlink="http://www.w3.org/1999/xlink" width="55.944" height="55.969" viewBox="0 0 55.944 55.969">
  <defs>
    <clipPath id="clip-path">
      <rect id="Rectangle_23" data-name="Rectangle 23" width="55.944" height="55.969" fill="#fff"/>
    </clipPath>
  </defs>
  <g id="Group_24" data-name="Group 24" clip-path="url(#clip-path)">
    <path id="Path_31" data-name="Path 31" d="M27.955,0A27.984,27.984,0,1,1,0,28.08,28.018,28.018,0,0,1,27.955,0m-.2,10.761c-.713.062-1.62.106-2.517.223a18.12,18.12,0,0,0-11.709,6.1,12.779,12.779,0,0,0-1.66,14.39,16.222,16.222,0,0,0,9.786,7.792,40.771,40.771,0,0,0,4.237.9c.97.2,1.332.637,1.138,1.552-.182.858-.473,1.693-.717,2.538-.217.753.037,1.1.777.892a7.339,7.339,0,0,0,2.153-.953c3.121-2.172,6.251-4.337,9.276-6.639a20.63,20.63,0,0,0,5.148-5.364,12.722,12.722,0,0,0-1.3-15.141c-3.789-4.377-8.762-6.143-14.613-6.286" transform="translate(-0.001)" fill="#fff"/>
    <path id="Path_32" data-name="Path 32" d="M144.476,129.335c0,1.33,0,2.66,0,3.99,0,.954-.263,1.411-.817,1.4-.529-.015-.765-.445-.765-1.37q0-2.447,0-4.894c0-.226-.011-.454.01-.679.055-.577-.005-1.245.758-1.42.7-.159,1,.369,1.319.85,1.015,1.546,2.032,3.091,3.141,4.776.027-.348.054-.535.055-.722,0-1.292-.012-2.583.011-3.874.009-.51.092-1.061.787-1.042.645.018.717.521.718,1.024.007,2.062.013,4.123,0,6.185,0,.449,0,.936-.567,1.106a1.126,1.126,0,0,1-1.338-.546c-.8-1.183-1.57-2.381-2.353-3.572q-.409-.622-.819-1.243l-.146.035" transform="translate(-116.924 -103.371)" fill="#fff"/>
    <path id="Path_33" data-name="Path 33" d="M192.031,128.3v2.01h2.85c.2,0,.409-.01.611.009.387.036.707.234.595.64a.893.893,0,0,1-.6.552c-.81.067-1.629.029-2.444.029h-.99v2.306c1.121,0,2.224,0,3.328,0a1.409,1.409,0,0,1,.666.049c.219.134.486.4.491.611s-.283.435-.486.6a.8.8,0,0,1-.46.072c-1.337.005-2.674.018-4.01,0-1-.015-1.216-.223-1.226-1.2q-.031-2.921,0-5.842c.008-.856.258-1.087,1.108-1.095,1.382-.013,2.764,0,4.146,0,.46,0,.845.129.842.654,0,.5-.39.606-.813.606h-3.6" transform="translate(-155.745 -103.956)" fill="#fff"/>
    <path id="Path_34" data-name="Path 34" d="M87.155,133.487c1.143,0,2.16,0,3.178,0,.452,0,.916.042.932.635.017.63-.479.711-.945.718-1.246.019-2.493.027-3.739,0-.821-.02-1.072-.273-1.078-1.068-.016-2.038,0-4.077,0-6.115,0-.135-.028-.315.044-.4.216-.248.468-.626.721-.638s.617.3.775.565a1.944,1.944,0,0,1,.108.927c.008,1.761,0,3.523,0,5.376" transform="translate(-69.958 -103.609)" fill="#fff"/>
    <path id="Path_35" data-name="Path 35" d="M123.776,130.523c0-1.063-.005-2.125,0-3.188,0-.53.182-.959.8-.962s.824.453.829.957c.02,2.148.015,4.3,0,6.444,0,.516-.224.971-.823.966-.639-.005-.81-.476-.812-1.029,0-1.063,0-2.125,0-3.188h.011" transform="translate(-101.273 -103.408)" fill="#fff"/>
  </g>
</svg>
