<svg xmlns="http://www.w3.org/2000/svg" width="20" height="20" viewBox="0 0 20 20">
  <g id="ic-others-black" transform="translate(-17 -9.229)">
    <path id="Subtraction_4" data-name="Subtraction 4" d="M-6071-740.771a10.011,10.011,0,0,1-10-10,10.012,10.012,0,0,1,10-10,10.012,10.012,0,0,1,10,10A10.011,10.011,0,0,1-6071-740.771Zm-3.559-14.573a1.018,1.018,0,0,0-1.017,1.016v7.115a1.018,1.018,0,0,0,1.017,1.016h7.115a1.018,1.018,0,0,0,1.016-1.016v-3.557h-1.016v3.557h-7.115v-7.115H-6071v-1.016Zm6.4,1.016-5,5,.717.717,5-5v1.825h1.016v-3.557h-3.557v1.016Z" transform="translate(6098 770)" fill="#333"/>
    <g id="launch_black_24dp" transform="translate(20.901 13.13)">
      <path id="Path_241" data-name="Path 241" d="M0,0H12.2V12.2H0Z" fill="none"/>
    </g>
  </g>
</svg>
