<svg xmlns="http://www.w3.org/2000/svg" width="28.568" height="25" viewBox="0 0 28.568 25">
  <g id="ic-pic" transform="translate(-0.002 -1)">
    <path id="Path_503" data-name="Path 503" d="M5.681,11.357A2.679,2.679,0,1,0,3,8.679a2.679,2.679,0,0,0,2.679,2.679" transform="translate(2.357 3.929)" fill="#fff"/>
    <path id="Path_504" data-name="Path 504" d="M25,22.429A3.571,3.571,0,0,1,21.431,26H3.573A3.571,3.571,0,0,1,0,22.429V8.143A3.571,3.571,0,0,1,3.57,4.571,3.571,3.571,0,0,1,7.141,1H25A3.571,3.571,0,0,1,28.57,4.571V18.857A3.571,3.571,0,0,1,25,22.429M25,2.786H7.141A1.786,1.786,0,0,0,5.356,4.571H21.431A3.571,3.571,0,0,1,25,8.143v12.5a1.786,1.786,0,0,0,1.782-1.786V4.571A1.786,1.786,0,0,0,25,2.786M3.573,6.357A1.786,1.786,0,0,0,1.788,8.143V22.429l4.725-4.2a.893.893,0,0,1,1.125-.111l4.75,3.166,6.625-6.625a.893.893,0,0,1,1.03-.168l3.173,3.477V8.143a1.786,1.786,0,0,0-1.786-1.786Z" transform="translate(0)" fill="#fff"/>
  </g>
</svg>
