<svg id="ic-shop" xmlns="http://www.w3.org/2000/svg" width="20" height="20" viewBox="0 0 20 20">
  <g id="Group_539" data-name="Group 539">
    <rect id="Rectangle_391" data-name="Rectangle 391" width="20" height="20" fill="none"/>
  </g>
  <g id="Group_541" data-name="Group 541" transform="translate(1.671 2.5)">
    <g id="Group_540" data-name="Group 540">
      <path id="Path_561" data-name="Path 561" d="M18.584,7.908l-.875-3.642A1.637,1.637,0,0,0,16.118,3H4.543A1.636,1.636,0,0,0,2.959,4.267L2.084,7.908a2.813,2.813,0,0,0,.517,2.4,3.2,3.2,0,0,0,.233.242v5.783A1.672,1.672,0,0,0,4.5,18H16.168a1.672,1.672,0,0,0,1.667-1.667V10.55a3.082,3.082,0,0,0,.233-.233A2.8,2.8,0,0,0,18.584,7.908Zm-2.492-3.25L16.968,8.3a1.13,1.13,0,0,1-.208.975.978.978,0,0,1-.783.392,1.042,1.042,0,0,1-1.008-.95l-.483-4.05Zm-4.925.008H12.8l.45,3.767a1.12,1.12,0,0,1-.275.892.994.994,0,0,1-.792.342,1.06,1.06,0,0,1-1.017-1.092ZM7.409,8.433l.458-3.767H9.5V8.575A1.071,1.071,0,0,1,8.426,9.667a1,1,0,0,1-.742-.342A1.184,1.184,0,0,1,7.409,8.433ZM3.7,8.3l.842-3.633H6.184L5.7,8.717a1.048,1.048,0,0,1-1.008.95.959.959,0,0,1-.775-.392A1.1,1.1,0,0,1,3.7,8.3Zm.8,8.033V11.308a1.509,1.509,0,0,0,.192.025,2.608,2.608,0,0,0,1.867-.792,2.68,2.68,0,0,0,1.925.792,2.642,2.642,0,0,0,1.858-.775,2.731,2.731,0,0,0,1.908.775,2.646,2.646,0,0,0,1.867-.792,2.608,2.608,0,0,0,1.867.792,1.509,1.509,0,0,0,.192-.025v5.025Z" transform="translate(-2.005 -3)" fill="#26789d"/>
    </g>
  </g>
</svg>
