<svg xmlns="http://www.w3.org/2000/svg" xmlns:xlink="http://www.w3.org/1999/xlink" width="37" height="37" viewBox="0 0 37 37">
  <defs>
    <clipPath id="clip-path">
      <rect id="Rectangle_59" data-name="Rectangle 59" width="32.889" height="20.669" fill="#399d26"/>
    </clipPath>
  </defs>
  <g id="ic-title-grass" transform="translate(-5880 167)">
    <rect id="Rectangle_394" data-name="Rectangle 394" width="37" height="37" transform="translate(5880 -167)" fill="none"/>
    <g id="Group_547" data-name="Group 547" transform="translate(5882.741 -159.576)">
      <g id="Group_83" data-name="Group 83" clip-path="url(#clip-path)">
        <path id="Path_401" data-name="Path 401" d="M0,.091C5.215.434,8.242,3.978,10.965,8.212,10.738,5.676,8.412,2.118,5.7.049a9.485,9.485,0,0,1,6.143,2.4c1.65,1.492,3.088,3.229,4.54,4.774,1.408-1.5,2.862-3.249,4.513-4.768A9.734,9.734,0,0,1,27.279,0c-3.03,1.993-4.455,4.811-5.414,7.97C24.6,3.95,27.622.389,32.889.057a13.753,13.753,0,0,0-5.021,7.082,37.756,37.756,0,0,0-2,9.407c-.131,1.348-.215,2.7-.325,4.123H7.263c-.12-1.474-.209-2.938-.363-4.394A36.711,36.711,0,0,0,4.7,6.557,13.628,13.628,0,0,0,0,.091" transform="translate(0 0)" fill="#399d26"/>
      </g>
    </g>
  </g>
</svg>
