<svg id="ic-user" xmlns="http://www.w3.org/2000/svg" width="18" height="18" viewBox="0 0 18 18">
  <path id="Path_119" data-name="Path 119" d="M11.75,6.375A3.375,3.375,0,1,1,8.375,3,3.375,3.375,0,0,1,11.75,6.375" transform="translate(0.625 0.375)" fill="#399d26"/>
  <path id="Path_120" data-name="Path 120" d="M0,9a9,9,0,1,1,9,9A9,9,0,0,1,0,9M9,1.125A7.875,7.875,0,0,0,2.849,13.916C3.647,12.629,5.406,11.25,9,11.25s5.352,1.378,6.152,2.666A7.875,7.875,0,0,0,9,1.125" fill="#399d26" fill-rule="evenodd"/>
</svg>
