<svg xmlns="http://www.w3.org/2000/svg" xmlns:xlink="http://www.w3.org/1999/xlink" width="71.108" height="72.802" viewBox="0 0 71.108 72.802">
  <defs>
    <clipPath id="clip-path">
      <rect id="Rectangle_41" data-name="Rectangle 41" width="51.56" height="55.436" fill="none"/>
    </clipPath>
  </defs>
  <g id="ic-video" transform="translate(-4359 345.031)">
    <g id="Group_548" data-name="Group 548" transform="matrix(0.891, -0.454, 0.454, 0.891, 4359, -321.623)">
      <path id="Path_224" data-name="Path 224" d="M.758,11.7l3.1,10.457L2.927,25.7,3.855,49.62,3.9,53.629l27.389,2L48.538,53.88,50.8,39.849V26.4l-1.418-4.9L46.3,20.908l-12.183-.35-23.683.35,5.706-1.52L50.8,11.7l-.838-3.443L41.358,2.184Z" transform="translate(-0.306 -0.883)" fill="#fff"/>
      <g id="Group_50" data-name="Group 50" transform="translate(0 0)">
        <g id="Group_49" data-name="Group 49" clip-path="url(#clip-path)">
          <path id="Path_225" data-name="Path 225" d="M1.68,19.756a4.294,4.294,0,0,0,.865,1.723A24.423,24.423,0,0,0,2.1,26.135c-.1,2.592-.126,6.082-.071,9.825.1,6.879.484,14.687,1.1,16.621.18.564.759.847,2.38,1.163,4.191.817,14.459,1.552,23.378,1.673q1.356.019,2.645.018c3.969,0,7.437-.13,10.138-.384,5.472-.513,6.815-1.424,7.349-2.064.188-.225.685-.821,1.361-5.5.415-2.874.771-6.486.974-9.909.317-5.332.541-14.646-1.526-17.127-.391-.469-1.231-.948-6.7-1.2-5.449-.247-14.514-.181-24.25.176-1.115.041-2.207.085-3.266.131,3.432-.67,7.322-1.446,11.349-2.263,6.076-1.232,11.7-2.4,15.839-3.3,7.471-1.617,7.591-1.756,7.831-2.031.946-1.086.134-4.812-.137-5.929C50.02,4.093,48.971.729,47.26.051c-.267-.106-.428-.169-7.113,1.083-4.4.824-9.7,1.876-14.544,2.884C15.829,6.056,3.609,8.8.9,10.308a1.552,1.552,0,0,0-.885,1A28.982,28.982,0,0,0,.84,16.594c.2.886.506,2.153.84,3.161m19.806,9.353q-2.384-.07-4.765-.17a38.463,38.463,0,0,0,4.245-7.963c1.423-.046,2.891-.088,4.386-.124a51.97,51.97,0,0,1-3.866,8.257m-5.655-1.739c-.082.124-.166.248-.25.371Zm-8.79,1.04q-1.694-.115-3.386-.245a39.391,39.391,0,0,1,.427-6.186c.883-.172,3.63-.393,7.473-.6a65.522,65.522,0,0,1-4.514,7.033m42.71,8.878c-.453,7.821-1.474,13.9-1.98,14.672-.231.266-1.43,1.125-7.355,1.576-3.76.286-8.735.357-14.386.206-11.3-.3-19.944-1.287-21.423-1.882-.445-1.824-.832-8.032-.956-15.439-.042-2.494-.046-4.717-.023-6.634,9.52.733,19.125,1.1,28.718,1.1q8.815,0,17.593-.415c.018,2.026-.042,4.319-.188,6.816m-6.01-8.2q-2.027.062-4.057.1A40.291,40.291,0,0,0,43.6,20.9a29.661,29.661,0,0,1,4.449.454c-1.347,2.618-2.795,5.219-4.309,7.74M36.95,20.73a71.307,71.307,0,0,1-4.519,8.536q-1.864,0-3.73-.019a76.522,76.522,0,0,0,3.78-8.513c1.579-.013,3.073-.014,4.469,0M24.878,16.068c-1.886.381-3.758.758-5.566,1.117a51.041,51.041,0,0,1-8.649-8.17c1.715-.422,3.748-.9,6.161-1.445a112.17,112.17,0,0,0,8.054,8.5M49.423,10.8c-.628.192-2.338.592-4.747,1.123l0-.006a73.751,73.751,0,0,1-8.1-8.459c1.337-.259,2.59-.5,3.732-.712l9.135,7.33.016-.02a3.6,3.6,0,0,1-.044.744M29.569,4.855,37.2,13.53c-1.769.372-3.645.761-5.57,1.159a97.44,97.44,0,0,1-7.961-8.61l.663-.14c1.767-.372,3.526-.735,5.238-1.084M3.514,10.99l7.639,7.793c-3.809.73-6.634,1.24-7.6,1.352a41.366,41.366,0,0,1-1.938-8.379,10.146,10.146,0,0,1,1.9-.767" transform="translate(0 0)" fill="#486149"/>
          <path id="Path_226" data-name="Path 226" d="M47.426,46.641a.674.674,0,1,0-1.348.036c.149,5.647.518,11.358,1.1,16.977a.674.674,0,0,0,.67.6c.023,0,.047,0,.07,0a.674.674,0,0,0,.6-.74c-.575-5.585-.942-11.262-1.091-16.874" transform="translate(-13.591 -13.564)" fill="#486149"/>
          <path id="Path_227" data-name="Path 227" d="M60.923,52.387l-10.943.041a.674.674,0,0,0,0,1.349h0l10.943-.041a.674.674,0,0,0,0-1.349" transform="translate(-14.544 -15.452)" fill="#486149"/>
          <path id="Path_228" data-name="Path 228" d="M60.677,62.125a.674.674,0,0,0,.037-1.347l-9.974-.55a.674.674,0,1,0-.074,1.346l9.973.55h.038" transform="translate(-14.757 -17.764)" fill="#486149"/>
          <path id="Path_229" data-name="Path 229" d="M61.6,67.7a66.316,66.316,0,0,0-8.346-.529h-.011a.674.674,0,1,0,.011,1.349,65.086,65.086,0,0,1,8.176.517.587.587,0,0,0,.086.006A.674.674,0,0,0,61.6,67.7" transform="translate(-15.506 -19.812)" fill="#486149"/>
          <path id="Path_230" data-name="Path 230" d="M8.538,48.168a.675.675,0,0,0-.656.692L8.3,64.727a.675.675,0,0,0,.674.657h.018a.674.674,0,0,0,.656-.692L9.23,48.825a.67.67,0,0,0-.692-.657" transform="translate(-2.325 -14.207)" fill="#486149"/>
          <path id="Path_231" data-name="Path 231" d="M30.526,52.849c-2.651-1.383-4.684-2.652-7.376-3.892a1.544,1.544,0,0,0-2.278,1.19c.093,2.162.246,5.4.362,7.784a1.576,1.576,0,0,0,2.348,1.055c2.647-1.366,4.6-2.511,7.026-3.974a1.2,1.2,0,0,0-.081-2.164" transform="translate(-6.156 -14.393)" fill="#486149"/>
        </g>
      </g>
    </g>
    <rect id="Rectangle_394" data-name="Rectangle 394" width="62" height="68" transform="translate(4366 -343)" fill="none"/>
  </g>
</svg>
