<svg xmlns="http://www.w3.org/2000/svg" width="48.622" height="48.622" viewBox="0 0 48.622 48.622">
  <g id="ic-zoom" transform="translate(-52.689 -50.689)">
    <g id="Path_240" data-name="Path 240" transform="translate(52.689 50.689)" fill="#ffd85f">
      <path d="M 24.3111572265625 47.62231826782227 C 21.16372680664062 47.62231826782227 18.11097717285156 47.00611877441406 15.23770713806152 45.79081726074219 C 12.46195697784424 44.61677551269531 9.968856811523438 42.93581771850586 7.827677249908447 40.79463577270508 C 5.686497211456299 38.65345764160156 4.005537033081055 36.16035842895508 2.831497192382812 33.38460540771484 C 1.616197228431702 30.51133728027344 0.9999971985816956 27.45858764648438 0.9999971985816956 24.3111572265625 C 0.9999971985816956 21.16372680664062 1.616197228431702 18.11097717285156 2.831497192382812 15.23770713806152 C 4.005537033081055 12.46195697784424 5.686497211456299 9.968856811523438 7.827677249908447 7.827677249908447 C 9.968856811523438 5.686497211456299 12.46195697784424 4.005537033081055 15.23770713806152 2.831497192382812 C 18.11097717285156 1.616197228431702 21.16372680664062 0.9999971985816956 24.3111572265625 0.9999971985816956 C 27.45858764648438 0.9999971985816956 30.51133728027344 1.616197228431702 33.38460540771484 2.831497192382812 C 36.16035842895508 4.005537033081055 38.65345764160156 5.686497211456299 40.79463577270508 7.827677249908447 C 42.93581771850586 9.968856811523438 44.61677551269531 12.46195697784424 45.79081726074219 15.23770713806152 C 47.00611877441406 18.11097717285156 47.62231826782227 21.16372680664062 47.62231826782227 24.3111572265625 C 47.62231826782227 27.45858764648438 47.00611877441406 30.51133728027344 45.79081726074219 33.38460540771484 C 44.61677551269531 36.16035842895508 42.93581771850586 38.65345764160156 40.79463577270508 40.79463577270508 C 38.65345764160156 42.93581771850586 36.16035842895508 44.61677551269531 33.38460540771484 45.79081726074219 C 30.51133728027344 47.00611877441406 27.45858764648438 47.62231826782227 24.3111572265625 47.62231826782227 Z" stroke="none"/>
      <path d="M 24.3111572265625 1.999996185302734 C 21.29828643798828 1.999996185302734 18.37660789489746 2.589626312255859 15.62725830078125 3.752498626708984 C 12.97070693969727 4.876125335693359 10.58444595336914 6.485118865966797 8.534786224365234 8.534786224365234 C 6.485118865966797 10.58444595336914 4.876125335693359 12.97070693969727 3.752498626708984 15.62725830078125 C 2.589626312255859 18.37660789489746 1.999996185302734 21.29828643798828 1.999996185302734 24.3111572265625 C 1.999996185302734 27.32402801513672 2.589626312255859 30.24570655822754 3.752498626708984 32.99505615234375 C 4.876125335693359 35.65160751342773 6.485118865966797 38.03786849975586 8.534786224365234 40.08752822875977 C 10.58444595336914 42.1371955871582 12.97070693969727 43.74618530273438 15.62725830078125 44.86981582641602 C 18.37660789489746 46.03268814086914 21.29828643798828 46.62231826782227 24.3111572265625 46.62231826782227 C 27.32402801513672 46.62231826782227 30.24570655822754 46.03268814086914 32.99505615234375 44.86981582641602 C 35.65160751342773 43.74618530273438 38.03786849975586 42.1371955871582 40.08752822875977 40.08752822875977 C 42.1371955871582 38.03786849975586 43.74618530273438 35.65160751342773 44.86981582641602 32.99505615234375 C 46.03268814086914 30.24570655822754 46.62231826782227 27.32402801513672 46.62231826782227 24.3111572265625 C 46.62231826782227 21.29828643798828 46.03268814086914 18.37660789489746 44.86981582641602 15.62725830078125 C 43.74618530273438 12.97070693969727 42.1371955871582 10.58444595336914 40.08752822875977 8.534786224365234 C 38.03786849975586 6.485118865966797 35.65160751342773 4.876125335693359 32.99505615234375 3.752498626708984 C 30.24570655822754 2.589626312255859 27.32402801513672 1.999996185302734 24.3111572265625 1.999996185302734 M 24.3111572265625 -3.814697265625e-06 C 37.73783874511719 -3.814697265625e-06 48.62231826782227 10.88447570800781 48.62231826782227 24.3111572265625 C 48.62231826782227 37.73783874511719 37.73783874511719 48.62231826782227 24.3111572265625 48.62231826782227 C 10.88447570800781 48.62231826782227 -3.814697265625e-06 37.73783874511719 -3.814697265625e-06 24.3111572265625 C -3.814697265625e-06 10.88447570800781 10.88447570800781 -3.814697265625e-06 24.3111572265625 -3.814697265625e-06 Z" stroke="none" fill="#fff"/>
    </g>
    <g id="zoom-in" transform="translate(64.674 62.674)">
      <path id="Path_237" data-name="Path 237" d="M10.015,18.489a8.474,8.474,0,1,0-8.474-8.474,8.474,8.474,0,0,0,8.474,8.474M20.03,10.015A10.015,10.015,0,1,1,10.015,0,10.015,10.015,0,0,1,20.03,10.015" transform="translate(0 0)" fill="#333" fill-rule="evenodd"/>
      <path id="Path_238" data-name="Path 238" d="M10.344,12.5a1.622,1.622,0,0,0,.151.177l5.932,5.932a1.541,1.541,0,0,0,2.18-2.179L12.675,10.5a1.541,1.541,0,0,0-.177-.154A10.015,10.015,0,0,1,10.344,12.5Z" transform="translate(5.594 5.593)" fill="#333"/>
      <path id="Path_239" data-name="Path 239" d="M8.393,3a.77.77,0,0,1,.77.77V7.622h3.852a.77.77,0,1,1,0,1.541H9.163v3.852a.77.77,0,1,1-1.541,0V9.163H3.77a.77.77,0,0,1,0-1.541H7.622V3.77A.77.77,0,0,1,8.393,3" transform="translate(1.622 1.622)" fill="#333" fill-rule="evenodd"/>
    </g>
  </g>
</svg>
