<svg xmlns="http://www.w3.org/2000/svg" xmlns:xlink="http://www.w3.org/1999/xlink" width="465.758" height="285.933" viewBox="0 0 465.758 285.933">
  <defs>
    <clipPath id="clip-path">
      <rect id="Rectangle_28" data-name="Rectangle 28" width="68.05" height="91.937" fill="#399d26"/>
    </clipPath>
    <clipPath id="clip-path-2">
      <rect id="Rectangle_28-2" data-name="Rectangle 28" width="54.102" height="73.092" fill="#84b5df"/>
    </clipPath>
    <clipPath id="clip-path-3">
      <rect id="Rectangle_29" data-name="Rectangle 29" width="80.071" height="54.196" fill="#84b5df"/>
    </clipPath>
  </defs>
  <g id="leaf-left" transform="translate(-35.242 -1621.07)">
    <g id="Group_29" data-name="Group 29" transform="translate(239.636 1833.949) rotate(146)">
      <g id="Group_27" data-name="Group 27" transform="translate(0 0)" clip-path="url(#clip-path)">
        <path id="Path_36" data-name="Path 36" d="M34.247,71.83c-6.987-4.8-14.263-9.92-18.017-17.515-4.057-8.206-3.314-17.834-4.024-26.959S8.309,8.061,0,4.219C7.661,1.231,15.984.414,24.2.092,30.6-.157,37.235-.073,43.054,2.59c5.775,2.637,10.162,7.551,14.066,12.557,6.9,8.847,13.121,19.947,10.188,30.775-.912,3.369-2.662,6.438-4.149,9.594-1.893,4.021-2.5,8.609-3.607,12.875-1.183,4.566-3.655,8.357-4.951,12.8-1.022,3.486-.19,7.214.641,10.748-2.355-4.2-5.456-9.17-9.331-12.154-3.64-2.8-7.848-5.332-11.663-7.954" transform="translate(0 0)" fill="#399d26"/>
      </g>
    </g>
    <g id="Group_33" data-name="Group 33" transform="translate(35.242 1674.769) rotate(-83)">
      <g id="Group_27-2" data-name="Group 27" transform="translate(0 0)" clip-path="url(#clip-path-2)">
        <path id="Path_36-2" data-name="Path 36" d="M27.227,15.986C21.672,19.8,15.887,23.873,12.9,29.911c-3.226,6.524-2.635,14.178-3.2,21.433S6.606,66.684,0,69.738c6.091,2.376,12.708,3.025,19.241,3.281,5.083.2,10.361.131,14.988-1.986,4.591-2.1,8.079-6,11.182-9.983,5.485-7.034,10.431-15.858,8.1-24.467a47.4,47.4,0,0,0-3.3-7.628c-1.505-3.2-1.991-6.845-2.868-10.236-.94-3.63-2.906-6.644-3.936-10.175C42.6,5.773,43.257,2.809,43.918,0,42.046,3.342,39.58,7.29,36.5,9.663c-2.894,2.227-6.239,4.239-9.273,6.323" transform="translate(0 -0.001)" fill="#84b5df"/>
      </g>
    </g>
    <g id="Group_32" data-name="Group 32" transform="matrix(0.788, 0.616, -0.616, 0.788, 437.903, 1815)">
      <g id="Group_30" data-name="Group 30" transform="translate(0 0)" clip-path="url(#clip-path-3)">
        <path id="Path_37" data-name="Path 37" d="M41.222,23.46c-4.768,7.067-10.275,13.777-17.229,18.708S8.483,50.134,0,49.295c9.325,2.782,18.921,5.6,28.615,4.748,9.986-.876,19.221-5.578,27.755-10.835A120.954,120.954,0,0,0,72.523,31.584c2.56-2.229,5.052-4.7,6.348-7.834,1.4-3.39,1.263-7.195,1.1-10.86a4.673,4.673,0,0,0-.455-2.177,4.1,4.1,0,0,0-1.95-1.5,16.439,16.439,0,0,0-13.75.178A6.271,6.271,0,0,0,65.08,0c-1.234,5.759-3.739,6.738-8.786,8.822-7.166,2.958-10.86,8.395-15.072,14.637" transform="translate(0 0)" fill="#84b5df"/>
      </g>
    </g>
  </g>
</svg>
