<svg xmlns="http://www.w3.org/2000/svg" width="10.136" height="192.076" viewBox="0 0 10.136 192.076">
  <g id="scroll-down" transform="translate(-46.846 -277.1)">
    <path id="Path_2527" data-name="Path 2527" d="M13.332,8.4c0-1.386-.882-2.128-2.59-3.024C9.566,4.756,8.866,4.35,8.866,3.426a1.217,1.217,0,0,1,.35-.854,1.756,1.756,0,0,1,1.106-.28,5.125,5.125,0,0,1,1.568.294,1.718,1.718,0,0,0,.546.1.556.556,0,0,0,.574-.616.733.733,0,0,0-.35-.6,4.169,4.169,0,0,0-1.974-.448c-1.918,0-3.178,1.162-3.178,2.632,0,1.358.868,2.044,2.422,2.828C11.456,7.234,12,7.766,12,8.634a1.464,1.464,0,0,1-.364.952,2.267,2.267,0,0,1-1.274.336,4.634,4.634,0,0,1-1.736-.378A2.613,2.613,0,0,0,7.9,9.306a.6.6,0,0,0-.588.63.718.718,0,0,0,.462.63,4.914,4.914,0,0,0,2.24.588C11.974,11.154,13.332,10.02,13.332,8.4Zm8.3,1.75a.555.555,0,0,0-.574-.588,1.328,1.328,0,0,0-.322.07,4.619,4.619,0,0,1-1.414.238c-1.946,0-3.122-1.4-3.122-3.78A4.243,4.243,0,0,1,17.546,2.7a2.976,2.976,0,0,1,1.54-.406,4.016,4.016,0,0,1,1.358.238,1.894,1.894,0,0,0,.5.1A.6.6,0,0,0,21.536,2a.65.65,0,0,0-.462-.63,5.068,5.068,0,0,0-1.834-.35c-2.688,0-4.41,2.17-4.41,5.236,0,3.108,1.806,4.9,4.41,4.9a4.152,4.152,0,0,0,1.988-.406A.673.673,0,0,0,21.634,10.146Zm7.938-6.1c0-1.722-1.092-2.87-3.3-2.87h-1.82c-.742,0-1.022.252-1.022.966V10.37a.647.647,0,0,0,.672.7.654.654,0,0,0,.672-.7V7.234h1.722l.14-.028,1.652,3.36a.75.75,0,0,0,.686.5.615.615,0,0,0,.63-.672.939.939,0,0,0-.126-.42l-1.652-3.15A3.012,3.012,0,0,0,29.572,4.042Zm-4.8,2.03V2.4h1.512a1.735,1.735,0,0,1,1.946,1.82,1.849,1.849,0,0,1-.882,1.638,3.774,3.774,0,0,1-1.33.21ZM39.148,5.96c0-2.968-1.218-4.942-3.934-4.942-2.576,0-3.948,2.016-3.948,5.18,0,2.954,1.19,4.956,3.934,4.956C37.846,11.154,39.148,9.012,39.148,5.96Zm-6.524-.028a4.511,4.511,0,0,1,1.05-3.346A2.616,2.616,0,0,1,35,2.236c2.016,0,2.786,1.61,2.786,3.976A4.584,4.584,0,0,1,36.8,9.544a2.473,2.473,0,0,1-1.4.392C33.436,9.936,32.624,8.4,32.624,5.932Zm13.818,4.41a.641.641,0,0,0-.714-.616H42.62V1.816a.673.673,0,1,0-1.344,0V9.992A.917.917,0,0,0,42.312,11h3.416A.656.656,0,0,0,46.442,10.342Zm6.79,0a.641.641,0,0,0-.714-.616H49.41V1.816a.673.673,0,1,0-1.344,0V9.992A.917.917,0,0,0,49.1,11h3.416A.656.656,0,0,0,53.232,10.342ZM65.048,6.058c0-2.8-1.456-4.886-4.634-4.886H59.056c-.756,0-1.134.308-1.134,1.036v7.77c0,.826.546,1.022,1.092,1.022h1.694C63.62,11,65.048,8.816,65.048,6.058Zm-5.782,3.71V2.418h1.246c2.142,0,3.178,1.61,3.178,3.836A4.4,4.4,0,0,1,62.5,9.39a4.38,4.38,0,0,1-1.946.378ZM74.6,5.96c0-2.968-1.218-4.942-3.934-4.942-2.576,0-3.948,2.016-3.948,5.18,0,2.954,1.19,4.956,3.934,4.956C73.294,11.154,74.6,9.012,74.6,5.96Zm-6.524-.028a4.511,4.511,0,0,1,1.05-3.346,2.616,2.616,0,0,1,1.33-.35c2.016,0,2.786,1.61,2.786,3.976a4.584,4.584,0,0,1-.994,3.332,2.473,2.473,0,0,1-1.4.392C68.884,9.936,68.072,8.4,68.072,5.932ZM86.944,1.76a.6.6,0,0,0-.63-.658c-.35,0-.616.224-.686.714L84.4,9.4h-.028L82.31,1.732a.713.713,0,0,0-.756-.63.974.974,0,0,0-.714.294L78.628,9.418H78.6L77.34,1.774c-.056-.406-.266-.672-.672-.672a.629.629,0,0,0-.644.658,1.528,1.528,0,0,0,.056.378l1.526,8.148a.854.854,0,0,0,.924.784,1.152,1.152,0,0,0,.882-.42L81.47,3.272h.042l1.932,7.07a.872.872,0,0,0,.924.728,1,1,0,0,0,.882-.462l1.638-8.414A2.636,2.636,0,0,0,86.944,1.76Zm9.142,8.876V1.8c0-.434-.224-.7-.616-.7s-.6.266-.6.7V8.76H94.84L90.458,1.634a.9.9,0,0,0-.826-.532.792.792,0,0,0-.77.448v8.82a.614.614,0,0,0,.616.7.624.624,0,0,0,.63-.7V3.412h.028l4.34,7.056c.252.406.476.6.854.6A.805.805,0,0,0,96.086,10.636Z" transform="translate(58 269.788) rotate(90)" fill="#333"/>
    <g id="Group_2" data-name="Group 2">
      <path id="Path_5" data-name="Path 5" d="M282.987,144.788v82.679" transform="translate(-231.35 229)" fill="none" stroke="#333" stroke-linecap="round" stroke-width="2"/>
      <path id="Path_6" data-name="Path 6" d="M282.987,144.788v.3" transform="translate(-231.35 321.087)" fill="none" stroke="#333" stroke-linecap="round" stroke-width="6"/>
    </g>
  </g>
</svg>
