<svg xmlns="http://www.w3.org/2000/svg" xmlns:xlink="http://www.w3.org/1999/xlink" width="225.989" height="138.737" viewBox="0 0 225.989 138.737">
  <defs>
    <clipPath id="clip-path">
      <rect id="Rectangle_28" data-name="Rectangle 28" width="33.018" height="44.609" fill="#bedb8d"/>
    </clipPath>
    <clipPath id="clip-path-2">
      <rect id="Rectangle_28-2" data-name="Rectangle 28" width="26.25" height="35.465" fill="#d3efa2"/>
    </clipPath>
    <clipPath id="clip-path-3">
      <rect id="Rectangle_29" data-name="Rectangle 29" width="38.851" height="26.296" fill="#d3efa2"/>
    </clipPath>
  </defs>
  <g id="side-menu-p1" transform="translate(-35.242 -1621.07)">
    <g id="Group_29" data-name="Group 29" transform="translate(134.415 1724.36) rotate(146)">
      <g id="Group_27" data-name="Group 27" transform="translate(0 0)" clip-path="url(#clip-path)">
        <path id="Path_36" data-name="Path 36" d="M16.617,34.852c-3.39-2.328-6.921-4.813-8.742-8.5C5.906,22.372,6.267,17.7,5.922,13.273S4.032,3.911,0,2.047a36.068,36.068,0,0,1,11.743-2c3.1-.121,6.324-.08,9.147,1.212,2.8,1.279,4.931,3.664,6.825,6.093,3.348,4.293,6.366,9.678,4.943,14.932a28.931,28.931,0,0,1-2.013,4.655,35.005,35.005,0,0,0-1.75,6.247c-.574,2.216-1.773,4.055-2.4,6.21a10.319,10.319,0,0,0,.311,5.215,19.67,19.67,0,0,0-4.527-5.9c-1.766-1.359-3.808-2.587-5.659-3.859" transform="translate(0 0)" fill="#bedb8d"/>
      </g>
    </g>
    <g id="Group_33" data-name="Group 33" transform="translate(35.242 1647.125) rotate(-83)">
      <g id="Group_27-2" data-name="Group 27" transform="translate(0 0)" clip-path="url(#clip-path-2)">
        <path id="Path_36-2" data-name="Path 36" d="M13.211,7.757c-2.7,1.851-5.5,3.827-6.95,6.757-1.565,3.166-1.278,6.879-1.552,10.4S3.205,32.356,0,33.838A28.675,28.675,0,0,0,9.336,35.43a15.915,15.915,0,0,0,7.272-.963,15.386,15.386,0,0,0,5.426-4.844c2.661-3.413,5.061-7.694,3.93-11.872a23,23,0,0,0-1.6-3.7,27.83,27.83,0,0,1-1.391-4.967c-.456-1.762-1.41-3.224-1.91-4.937A8.2,8.2,0,0,1,21.309,0a15.638,15.638,0,0,1-3.6,4.688c-1.4,1.081-3.027,2.057-4.5,3.068" transform="translate(0 0)" fill="#d3efa2"/>
      </g>
    </g>
    <g id="Group_32" data-name="Group 32" transform="matrix(0.788, 0.616, -0.616, 0.788, 230.616, 1715.166)">
      <g id="Group_30" data-name="Group 30" transform="translate(0 0)" clip-path="url(#clip-path-3)">
        <path id="Path_37" data-name="Path 37" d="M20,11.383a34.518,34.518,0,0,1-8.359,9.077A17.527,17.527,0,0,1,0,23.918c4.524,1.35,9.181,2.715,13.884,2.3,4.845-.425,9.326-2.707,13.467-5.257a58.688,58.688,0,0,0,7.837-5.64,10.743,10.743,0,0,0,3.08-3.8A12.307,12.307,0,0,0,38.8,6.255,2.267,2.267,0,0,0,38.582,5.2a1.989,1.989,0,0,0-.946-.729,7.976,7.976,0,0,0-6.672.086A3.043,3.043,0,0,0,31.577,0c-.6,2.794-1.814,3.269-4.263,4.281-3.477,1.435-5.269,4.073-7.313,7.1" transform="translate(0 0)" fill="#d3efa2"/>
      </g>
    </g>
  </g>
</svg>
