<svg xmlns="http://www.w3.org/2000/svg" xmlns:xlink="http://www.w3.org/1999/xlink" width="140" height="88.614" viewBox="0 0 140 88.614">
  <defs>
    <clipPath id="clip-path">
      <rect id="Rectangle_49" data-name="Rectangle 49" width="120.245" height="88.614" fill="none"/>
    </clipPath>
  </defs>
  <g id="subheader-bg" transform="translate(-1452 -1037)">
    <path id="Subtraction_3" data-name="Subtraction 3" d="M34.241,34H5.76A19.974,19.974,0,0,1,20,0,19.969,19.969,0,0,1,34.241,34Z" transform="translate(1452 1091.442)" fill="#ffd85f" opacity="0.55"/>
    <ellipse id="Ellipse_11" data-name="Ellipse 11" cx="37" cy="36.5" rx="37" ry="36.5" transform="translate(1479 1043.442)" fill="#d3efa2"/>
    <g id="Group_80" data-name="Group 80" transform="translate(1471.755 1037)">
      <g id="Group_79" data-name="Group 79" clip-path="url(#clip-path)">
        <path id="Path_244" data-name="Path 244" d="M120.771,19.03c.375,0,.465-.293.625-.566-.161.273-.251.565-.625.566" transform="translate(-40.238 -6.152)" fill="#fff"/>
        <path id="Path_245" data-name="Path 245" d="M117.673,13.774c2.08-.868,4.256,1.214,6.327.96a5.418,5.418,0,0,0,1.16.217,5.41,5.41,0,0,1-1.16-.217c-2.071.254-4.248-1.827-6.327-.96-.032.29-.737.255-.94.322a8.775,8.775,0,0,1-.62.661,8.775,8.775,0,0,0,.62-.661c.2-.067.908-.032.94-.322" transform="translate(-38.686 -4.518)" fill="#fff"/>
        <path id="Path_246" data-name="Path 246" d="M51.488,43.588A38.658,38.658,0,0,0,53.1,48.054c.8,3.816,3.086,9.692,3.63,13.493a9.655,9.655,0,0,0,.64,1.6,2.167,2.167,0,0,1,.639,1.83c.414.277.569,1.193.8,1.6.709.448.395,2.287.479,3.216.776,1.122.886,2.807,1.121,4.144,2.409-.4,4.332-1.764,6.964-1.926.711-.79,2.835-.012,3.455-.788a34.6,34.6,0,0,0-.594-5.369,18.852,18.852,0,0,1-1.12-4.285c-2.3-1.954-5.717-5.215-2.535-7.858-.375-.093-.273-.811-.505-1.05a3.911,3.911,0,0,1-.48-1.526,8.444,8.444,0,0,1-.8-2.08c-.445-.76-1.3-1.61-1.446-2.383-.221,0-.261-.317-.321-.471-.358-.061-.413-.514-.477-.8a.4.4,0,0,1-.317-.477,14.19,14.19,0,0,1-1.46-1.613c-.325.089-.491-.255-.636-.48a.673.673,0,0,1-.643-.321.393.393,0,0,1-.468-.313c-.287-.12-1.082-.231-1.124-.641-.453-.192-1.293-.411-1.588-.8-1.686-.177-2.937-1.277-4.7-1.449-.581,1.624-1.354,2.821-.127,4.279" transform="translate(-16.937 -13.097)" fill="#fff"/>
        <path id="Path_247" data-name="Path 247" d="M148.053,32.779a6.3,6.3,0,0,1-.083.744,6.3,6.3,0,0,0,.083-.744" transform="translate(-49.3 -10.921)" fill="#fff"/>
        <path id="Path_248" data-name="Path 248" d="M129.218,19.844c.171-.014.341-.025.506-.029-.165,0-.335.015-.506.029" transform="translate(-43.052 -6.602)" fill="#fff"/>
        <path id="Path_249" data-name="Path 249" d="M139.725,19.007c-.3-.163-.669-.241-.788-.561.119.32.485.4.788.561" transform="translate(-46.291 -6.146)" fill="#fff"/>
        <path id="Path_250" data-name="Path 250" d="M15.052,30.137a17.834,17.834,0,0,1-.994-4.638,17.834,17.834,0,0,0,.994,4.638" transform="translate(-4.684 -8.496)" fill="#fff"/>
        <path id="Path_251" data-name="Path 251" d="M73.824,64.734c.172.047.178.309.159.45a.4.4,0,0,1,.321.474c1.562,1.27,3.041,3.681,4.869,4.178,2.1.788,4.5.991,6.572,1.9a1.993,1.993,0,0,0,1.118.633A14.145,14.145,0,0,0,88.3,73.744c.06.387.348.54.6.815.024.549.614.772.617,1.348.423.047.5.824.641,1.119.365.065.417.531.511.818.351.059.367.513.448.783.4.115.256.595.684.721.118.427.475.524.43.878.374.07.405.5.486.8.513.223.5.95.865,1.322.219.05.269.233.249.437a.4.4,0,0,1,.32.477c.224.145.571.311.479.641.225.145.571.31.48.64.223.144.571.309.481.637.208.181.767.437.639.8.854.631,1.786,1.909,2.65,2.209.1.328.414.349.643.462a3.443,3.443,0,0,0,.843.849c.939.546,3.32.955,3.769-.166l.01-.034c-2.48-1.612-4.167-4.288-5.929-6.368.066-.359-.637-.383-.479-.824-.582-.3-.751-1.062-1.346-1.364a1.772,1.772,0,0,0-.8-.96c-.059-.427-.41-.512-.573-.851.061-.3-.444-.291-.321-.666-.221-.141-.574-.315-.479-.64-.221-.141-.575-.314-.481-.64-.451-.121-.39-.621-.713-.758-.153-.439-.659-.76-.886-1.126-.091-.581-.871-.952-1.482-1.117A10.448,10.448,0,0,1,89.89,72.4c-.165-.454-.563-.785-.642-1.336a1.106,1.106,0,0,1-.647-.812c-.389-.112-1.076-.16-1.27-.481-5.429-.462-11.456-.441-12.3-7.2-1.33-.281-1.23,1.282-1.2,2.164" transform="translate(-24.592 -20.836)" fill="#fff"/>
        <path id="Path_252" data-name="Path 252" d="M21.792,6.585a5.379,5.379,0,0,1,1.244-.671,5.365,5.365,0,0,0-1.244.671" transform="translate(-7.261 -1.97)" fill="#fff"/>
        <path id="Path_253" data-name="Path 253" d="M36.267,17.068c-.283-.065-.737-.121-.8-.479-.286-.121-1.078-.228-1.118-.639a2.927,2.927,0,0,1-1.592-.966c-4.044-1.189-4.292-2.405-6.466,1.582-1.349,3.314-3.015,5.1-4.038,10.739-1.04.079-1.7-.788-3.149-.643-.712.933-.891,3.337.377,4.165.924,1.282,2.974.465,3.451,2.143,1.092,1.394.615,3.736,1.438,5.281.291-.057.563,1.276.647,1.43.351.055.427.53.481.81.213,0,.268.319.319.469a.4.4,0,0,1,.313.477.4.4,0,0,1,.32.474c.1.119,1,.734.96.918-.165.228.733.726.812.854.133.151.094.4.371.327,1.827,2.065,2.809,2.4,4.334-.215,1.554-1.7,2.089-3.63,3.04-5.777a11.57,11.57,0,0,1-9.186-1.2c-.19-.406-.989-.411-1.4-1.192-2.481-1.138-.581-2.632.589-.414.469-.042.6.491,1.042.619.057.416,1.5.381,1.518.822,5.652,2.371,8.769.133,11.106-4.959a8.472,8.472,0,0,1,.639-1.83c.293-.269.1-1.338.48-1.523a22.626,22.626,0,0,0-.8-6.971c-.525-1.858-2.545-2.968-3.692-4.3m-.871,11.1c1.016.78-1.778.993-2.293.622-1.05-1.012,2.009-.509,2.293-.622m-6.644-2.886c-.651-.507.151-1.787.83-1.1.38.615.054,1.685-.83,1.1m7.382,7.16c-.639,1.03-6.289-.543-4-1.067,1.233.652,3.438,1.023,4.362-.325.249-.158.587-.577.978-.482.9.6-1.067,1.514-1.339,1.874m.955-8.347c-.747-.348-.455-1.506.494-1.13a.628.628,0,0,1-.494,1.13" transform="translate(-6.181 -4.608)" fill="#fff"/>
        <path id="Path_254" data-name="Path 254" d="M141.93,20.709c.095.085.235.315.393.509-.158-.194-.3-.425-.393-.509-.533.051-.675-.71-1.2-.74.521.031.663.792,1.2.74" transform="translate(-46.889 -6.653)" fill="#fff"/>
        <path id="Path_255" data-name="Path 255" d="M25.431,76.353c-.463-.465-.932-.548-1.047.208.449.187.938.637,1.047-.208" transform="translate(-8.124 -25.321)" fill="#fff"/>
        <path id="Path_256" data-name="Path 256" d="M127.348,40.048c-1.621.914-1.6,1.193-.844,2.861,1.475-.848,3.886-2.508,5.513-2.405a5.817,5.817,0,0,1,4.427-.479l.039,0c-.6-2.744-1.9-4.587-2.247-7.754-3.612.579,1.214-2.223,1.283-3.3.581-3.093-1.844-4.31-3.746-2.289-.93,3.419-1.477.359-1.854-1.122-.471-.42-.667-1.389-.96-1.919-.284.032-.4-.786-.483-.946-.211-.185-.947-.659-.968-.974-.323.1-.507-.258-.643-.479a.4.4,0,0,1-.475-.32c-.357.043-.517-.319-.772-.48-3.177-.4-3.007.7-6-1.45-.786,2.463-2.521-.221-3.993-.313-.07,1.146-1.21.2-1.7.613-.569,1.488-1.054,6.509-.063,7.759-.069,5.423,1.8,10.332,6.32,12.8,1.032,1.057,3.8.985,5.085.5.3-.33,2.713-1.782,2.088-.293m-6.443-13.791c.784-.064.189,1.554-.357.925-.354-.261-.219-1.291.357-.925m-5.815,1.76c-.487-.116-.449-1.483.219-1.118.643.143.623,1.566-.219,1.118m3.189,3.924c-.448-.113-.942-.091-1.2-.443-.563-1.466,2.282,0,1.2.443m2.291,4.978c-.311-.225-.948-.177-1.063-.641a.367.367,0,0,1-.448-.256c-.563-.322-1.143-1.282-1.55-1.6-1.172-1.29,5.717-1.044,5.319-.292.537,1.1-.992,2.963-2.259,2.791" transform="translate(-37.744 -6.222)" fill="#fff"/>
        <path id="Path_257" data-name="Path 257" d="M27.072,52.656c-.421-.832-.846-1.761-1.242-2.563-.293-.251-.1-.862-.708-.709A74.15,74.15,0,0,0,26.4,61.612c.659,2.747,3.984,3.107,6.4,2.4a32.816,32.816,0,0,0,6.167-.48c.363-.214.782-.624,1.247-.64a2.775,2.775,0,0,1,.975-.975c.032-1.8-.3-3.723-.319-5.508-.429-2.259-.423-5.469-.8-7.823-.231.006-.285-.141-.543-.171a18.343,18.343,0,0,1-2.082,4.81A12.389,12.389,0,0,1,33.7,58.278c-.988.343-1.559-.366-2.2-.846-.3-.389-1.088-.784-1.367-1.328-.8-.1-1.042-1.313-1.813-1.666-.053-.432-.409-.511-.57-.852.093-.285-.336-.235-.32-.5.083-.259-.307-.217-.357-.425" transform="translate(-8.37 -16.13)" fill="#fff"/>
        <path id="Path_258" data-name="Path 258" d="M45.1,130.89l-1.035-.172c-.184.81.971,1.158,1.035.172" transform="translate(-14.676 -43.552)" fill="#fff"/>
        <path id="Path_259" data-name="Path 259" d="M77.649,102.18c.475,1.272,1.124,3.687.477,5.193L78.29,110c.788.488,1.066-2.009,1.306-2.311.608-.8,1.606-1.434,1.992-2.555a1.638,1.638,0,0,1-.352-.1c-.838-1.871-.255-4.6-.961-6.464-2.549.4-3.984.826-2.626,3.6" transform="translate(-25.697 -32.843)" fill="#fff"/>
        <path id="Path_260" data-name="Path 260" d="M38.936,113.2c.271-.625.978.128,1.129-.858-3.256-.867-5.344-3.238-7.511-5.228a19.814,19.814,0,0,1-2.443-2.459,3.193,3.193,0,0,1-1.58-1.434c-.459-.035-.581-.418-.642-.814a5.04,5.04,0,0,0-1.906,1.165c-.8-.007-1.382,1.066-1.929,1.4-.181.315-.629.329-.861.659.058.493-.665.6-.609,1.159-1.951,2.032-.171,2.2,1.248,3.207a29.3,29.3,0,0,1,3.6,1.739c.042.291.372.087.479.32.042.292.374.091.481.324.042.288.374.083.479.317.069.291.541.19.558.5.426-.085.687.4,1.029.48.307.225.944.176,1.06.633.561.2,1.334.431,1.6.968.329-.094.5.254.643.479a.4.4,0,0,1,.473.316c.667-.009,1.093.756,1.494,1.139.369.762,1.122,5.349,2.253,2.553a18,18,0,0,1-.49-2c-.909-1.367-.231-4.288,1.44-4.572" transform="translate(-7.237 -34.12)" fill="#fff"/>
        <path id="Path_261" data-name="Path 261" d="M64.241,96.377a3.806,3.806,0,0,0,2.137.345.371.371,0,1,1,.742,0h2.471a13.834,13.834,0,0,0-1.178-3.962c-.331-.821.715-3.021.947-1.334.5.188.569.746.892.929.323.3.125,1.028.773.848.107-.456-.106-2.6.877-2.12.671.867.191,2.745.661,4.04,4.6-.773,5.385-1.093,4.064-5.987-.193-.05-1.2.139-1.263-.159a26.167,26.167,0,0,0-8.087,1.44c-4.066,1.284-4.9,1.231-3.035,5.959" transform="translate(-21.089 -29.643)" fill="#fff"/>
        <path id="Path_262" data-name="Path 262" d="M71.8,101.926c-.488.137-2.631-.419-2.311.712.163.113,1.954,9.895,1.88,11.933a1.713,1.713,0,0,0,.281.155c.383.255.39,3.067,1.108,2.957-.017-.434.145-7.484-.331-7.46-1.86-1.988-.259-5.641-.627-8.3" transform="translate(-23.141 -33.953)" fill="#fff"/>
        <path id="Path_263" data-name="Path 263" d="M79.387,64.568c.9.449,2.182.82,3.02,1.282,1.889.2,4.34.044,6.066.639a2.545,2.545,0,0,1,2.417,1.588c.556.289.573,1.226,1.014,1.642-.089.419.7.826.954,1,.141.219.152.543.479.639.1.423.417.509.591.85-.138.2.468.492.541.589a1.333,1.333,0,0,0,.64.8,1.127,1.127,0,0,0,.456.66c-.015.453.674.619.764.98-.071.314.444.3.32.674.21.182.766.435.64.8a17.513,17.513,0,0,1,1.919,2.038c-.082.384.635.388.481.844.221.143.574.313.48.64.21.181.766.435.639.8.212.183.767.438.639.8a.748.748,0,0,1,.486.639c.189.217,1.125.728.954,1.115.668.613,1.77,1.522,2.279,2.122,1.854,1.679,4.786,3.279,6.4.5.7-.787,2.535-2.275,2.9-3.127.2-.321.584-.559.691-.978a23.24,23.24,0,0,0,1.969-1.859c.564-.463-.579-.786-1-.978-.164-.114-.187-.473-.457-.371a9.858,9.858,0,0,0-1.127-.618c-.055-.285-.325-.1-.49-.255-.373-.412-1.428-.7-1.806-1.034-1.118-.267-2.493-1.512-3.515-.605a5.13,5.13,0,0,1-2.92-1.964c-.316.085-.513-.258-.643-.483a.4.4,0,0,1-.475-.319c-.359.125-.634-.425-.8-.641-.331.3-2.365-2.308-2.562-2.4-.579.049-.971-1.021-1.5-1.1a48.177,48.177,0,0,1-4.724-5.445c-.654-1.787-1.152-4.1-1.916-5.6-.367-.068-.41-.5-.482-.8-.3-.073-.412-.365-.479-.639-.888-.591-1.088-1.724-2.3-2.1-.772,1.814.475,4.28.639,6.143-.557.716-5.682-.312-6.3-.233-3.347-1.408-9.814-3.764-6.175,2.471a4.709,4.709,0,0,1,1.3,1.292" transform="translate(-25.659 -18.289)" fill="#fff"/>
        <path id="Path_264" data-name="Path 264" d="M124.967,42.35l.007-.034c-6.481-1.4-.622,3.671-.007.034" transform="translate(-40.631 -14.015)" fill="#fff"/>
        <path id="Path_265" data-name="Path 265" d="M41.589,7.221c-.213-.007-.373-.219-.48-.405.107.186.266.4.48.405" transform="translate(-13.697 -2.271)" fill="#fff"/>
        <path id="Path_266" data-name="Path 266" d="M40.115,6.121h0a.388.388,0,0,1-.412-.164.388.388,0,0,0,.412.164" transform="translate(-13.228 -1.985)" fill="#fff"/>
        <path id="Path_267" data-name="Path 267" d="M68.529,126.79c.063-.565-.013-1.034-.706-.876-.093.524.167.754.706.876" transform="translate(-22.591 -41.941)" fill="#fff"/>
        <path id="Path_268" data-name="Path 268" d="M43.569,8.831l.018.016-.018-.016" transform="translate(-14.516 -2.942)" fill="#fff"/>
        <path id="Path_269" data-name="Path 269" d="M85.619,120.388c-.73.583-.947,1.472-1.648,1.947a.4.4,0,0,1-.315.477c-.07.619-.522.986-.645,1.318-.371.828-2.056.846-1.759,1.952.625-.067.93-.76,1.494-.812.058-.5.766-.285.89-.661a9.511,9.511,0,0,1,3.121-.619c.245-.534,1.141-.2,1.434-.815l.022-.031a5.277,5.277,0,0,1-2.594-2.755" transform="translate(-27.059 -40.111)" fill="#fff"/>
        <path id="Path_270" data-name="Path 270" d="M129.724,53.287c.013.027.818.173.863.183l.181-.539c-.422-.189-1-.329-1.044.355" transform="translate(-43.221 -17.584)" fill="#fff"/>
        <path id="Path_271" data-name="Path 271" d="M16.622,104.142c-.075-.408.46-.5.425-.93a14.459,14.459,0,0,1,2.71-3.069c.347-.091.655-.567,1.335-.646a.4.4,0,0,1,.479-.315.406.406,0,0,1,.49-.319c2.265-1.01,1.257-3.716,1.12-5.816-2.106-1.052-5.339-.46-7.745.949a10.088,10.088,0,0,1-2.388,1.121.4.4,0,0,1-.479.32c-.063.129-.139.331-.315.319-.135-.047-.221.071-.255.181-.125.23-.458.039-.5.359-.057.168-.554.215-.691.264-.139.221-.311.571-.635.476-.206.2-.573.947-.956.8-.358.385-.582,1.031-1.14,1.3a12.017,12.017,0,0,0,.655,4.393c.144.267.511.4.465.761.2.341,1.04.207,1.12.657a7.875,7.875,0,0,0,5.665.478c.241-.39.226-1.11.64-1.28" transform="translate(-2.683 -30.822)" fill="#fff"/>
        <path id="Path_272" data-name="Path 272" d="M20.286,8.14a.317.317,0,0,1-.175-.019.317.317,0,0,0,.175.019" transform="translate(-6.701 -2.706)" fill="#fff"/>
        <path id="Path_273" data-name="Path 273" d="M66.94,128.264a14.722,14.722,0,0,1-2.744-3.057c-.469-.177-.988-.495-1.095-.962-.374.131-.634-.421-.817-.64-.322.095-.5-.255-.635-.475-1.117-.389-1.63-1.524-2.933-1.774-.029,1.069,1.066,1.4,1.6,2a.409.409,0,0,1,.493.32c.379-.123.465.349.7.479.293-.088.453.3.583.48.4-.164.87.732,1.094.926,1.479.69,2.051,2.12,3.087,3.155h.859a.523.523,0,0,1-.191-.45" transform="translate(-19.563 -40.433)" fill="#fff"/>
        <path id="Path_274" data-name="Path 274" d="M8.84,78.344c.362-.077.615-.435,1.022-.446a.4.4,0,0,1,.477-.315c.063-.109.127-.331.274-.352C11.4,77,12.087,76.5,12.891,76.3a.675.675,0,0,1,.649-.321c.143-.495.934-.434,1.29-.641a5.82,5.82,0,0,1,3.848-.96c-.071-.814-.842-1.24-.807-1.986a12.575,12.575,0,0,1-1.44-3.521,8.751,8.751,0,0,1-.809-2.259,9.053,9.053,0,0,1-.952-2.54c-1.664-4.532-1.108-12.42-.959-17.355a7.483,7.483,0,0,1,1.22-3.149c.644-.264.645-1.054,1.316-1.189.063.027,0-.529.023-.538-1.015-.005-2.529-1.142-3.305-.541a25.612,25.612,0,0,0-4.752,4.224,15.385,15.385,0,0,0-6.1,12.731c-1.3,7.027.8,14.117,3.05,19.964a.249.249,0,0,1,.226.171,4.631,4.631,0,0,0,.917,1.924c.889-.638,1.82-1.362,2.532-1.974" transform="translate(-0.571 -13.703)" fill="#fff"/>
        <path id="Path_275" data-name="Path 275" d="M44.947,9.97c1.206,2.021,2.891,4.511,3.207,7.1-.315-2.594-2-5.084-3.207-7.1-.407-.089-.586-.717-1.052-.73a1.566,1.566,0,0,0-.291-.375,1.566,1.566,0,0,1,.291.375c.466.013.645.641,1.052.73" transform="translate(-14.528 -2.954)" fill="#fff"/>
        <path id="Path_276" data-name="Path 276" d="M144.589,22.814c-.146-.127-.358-.153-.494-.29-.006-.014-.014-.032-.023-.051.009.019.017.037.023.051.136.137.347.163.494.29" transform="translate(-48.001 -7.487)" fill="#fff"/>
        <path id="Path_277" data-name="Path 277" d="M145.964,24.012a1.217,1.217,0,0,0-.576-.551,1.217,1.217,0,0,1,.576.551" transform="translate(-48.44 -7.817)" fill="#fff"/>
        <path id="Path_278" data-name="Path 278" d="M32.444,12.884c-.052.031-.1.069-.154.1.051-.035.1-.073.154-.1" transform="translate(-10.758 -4.293)" fill="#fff"/>
        <path id="Path_279" data-name="Path 279" d="M143.963,22.339a.122.122,0,0,0-.092-.06.122.122,0,0,1,.092.06" transform="translate(-47.935 -7.423)" fill="#fff"/>
        <path id="Path_280" data-name="Path 280" d="M44.314,16.743c.3.175.583.365.864.5a.494.494,0,0,0,.093.159.5.5,0,0,1-.093-.159c-.281-.131-.565-.321-.864-.5" transform="translate(-14.764 -5.578)" fill="#fff"/>
        <path id="Path_281" data-name="Path 281" d="M144.063,22.455l0,.009,0-.009" transform="translate(-47.998 -7.481)" fill="#fff"/>
        <path id="Path_282" data-name="Path 282" d="M120.314,19.138a.254.254,0,0,0-.127-.241.255.255,0,0,1,.127.241" transform="translate(-40.044 -6.296)" fill="#fff"/>
        <path id="Path_283" data-name="Path 283" d="M115.692,15.667c.087-.1.179-.2.27-.3-.091.095-.183.194-.27.3" transform="translate(-38.546 -5.122)" fill="#fff"/>
        <path id="Path_284" data-name="Path 284" d="M40.357,14.345a1.537,1.537,0,0,1-.423-.133,1.537,1.537,0,0,0,.423.133.923.923,0,0,0,.219.22.923.923,0,0,1-.219-.22" transform="translate(-13.305 -4.735)" fill="#fff"/>
        <path id="Path_285" data-name="Path 285" d="M88.7,116.486l.006.04c.414,6.051,10.037,4.655,6.964-1.268-1.776-2.115-2.036.878-2.523-.871a3.667,3.667,0,0,1-.428-.173c-1.436-1.139-3.361,1.286-4.019,2.272" transform="translate(-29.552 -37.954)" fill="#ffd85f"/>
        <path id="Path_286" data-name="Path 286" d="M91.259,59.446a11.859,11.859,0,0,0-.653-2.677c-.007-.62.2-3.688-.469-3.951-.952-.178-1.744-1.152-2.733-.619-1.976-.734-4.957.575-5.051,2.7-1.083,4.58,5.582,4.09,8.907,4.545" transform="translate(-27.398 -17.323)" fill="#ffd85f"/>
        <path id="Path_287" data-name="Path 287" d="M52.852,121.172c-1.168-1.412-1.234-.034-2.124.586-.85-.015-.2-1.712-.633-1.91-.611-.984-2.452-.8-3.028-.077-1.738.986-.8,4.28.427,5.334,1.8,1.708,5.589,2.182,6.758-.569.041-1.07-.074-3.189-1.4-3.364" transform="translate(-15.364 -39.705)" fill="#ffd85f"/>
        <path id="Path_288" data-name="Path 288" d="M55.325,72.726c.125-.72-.388-1.617-1.186-1.506-.163.808.261,1.988,1.186,1.506" transform="translate(-18.026 -23.726)" fill="#65b95a"/>
        <path id="Path_289" data-name="Path 289" d="M52.5,82.824c-1.844-.026-3.741-.534-3.68-2.736-.541-.792-.931-2.942-.16-3.74.069-.928.728-.743.8-1.807-.413-1.255-.615-2.517-1.12-3.647a8.158,8.158,0,0,0-.32-2.949c-2.527-3.665-3.1-9.862-4.974-14.462-.185-1.9-2.014-6.951-2.715-9.056-.919-.223-.521,1.086-1.183,1.28A64.649,64.649,0,0,1,40.276,56.19c.614,4.254,1.074,5.185-3.119,6.968C33.7,62.785,26.748,65.5,24.823,61.865,22.6,56.7,22.791,50.345,23.063,44.106c-.748-.116-.593.773-1.187.976.041.355-.321.511-.479.766-.11.533-.406,1-.481,1.527-.4,5.5-.433,12.112.64,17.285,3.623-1.508,5.2,3.544.957,2.157.316,1.907,1.43,3.427,1.764,5.195.363.095.419.966.639,1.211.352.07.892,1.678,1,1.988,2.812,1.618,2.546.415,2.679,6.206.866.035,1.392.974.147.912-.368.212.01.89.031,1.2,1.752,1.01,2.931,2.893,4.635,4a10.758,10.758,0,0,0,2.637,2.358c.1.338.423.333.641.48.111.5.975.475,1.244.776.44.6,1.868.874,2.574,1.033.342.377,1.546-.157,1.7.479.579.251.619-1.1,1-.441l-.043-.247c1.275-.26.415,1.712.777,2.129.437.015,1.06-.464,1.3.159.286.11.683.115.8.462a.449.449,0,0,1,.488.338.4.4,0,0,1,.479.32,2.7,2.7,0,0,1,.843.407c.144.327.636.256.76.714a.4.4,0,0,1,.479.32c.848.173,1.248,1.282,2.3,1.287a13.113,13.113,0,0,0-1.819-3.184c-.527-.946-2.312-2.787.379-1.765.026-.106.155-.145.173-.255-.449-.348-.2-1.535-.045-1.836.429-.565.948.4,1.4.077.749-.281,1.056.641,1.274,1.126.095.165.418.225.321.531a.676.676,0,0,1,.319.647c.365.061.418.512.486.8.137.14.372.384.634.62a91.2,91.2,0,0,1-1.374-9.493,11.751,11.751,0,0,1-.639-2.543M44.677,64.472c-.676.462-1.949.249-2.094-.687-.271.009-.383-.354-.483-.563-1.164-4.053,4.576-1.252,2.577,1.25m1.58,15.4A33.148,33.148,0,0,0,43,81.225c-2.63,1.748-10.614,1.982-13.442.787,4.125-.755,10.418.527,13.987-1.84.289-.479,1.272-.521,1.69-.8a3.981,3.981,0,0,1,1.9-.938c1.115.639-.71.88-.871,1.442" transform="translate(-6.883 -14.692)" fill="#65b95a"/>
        <path id="Path_290" data-name="Path 290" d="M35.01,123.988a23.086,23.086,0,0,0-.984-3.26c-2.149-1.162-3.8-2.735-5.971-3.484-.258-.367-.7-.373-.9-.838-.324.093-.5-.254-.637-.476-.978-.311-1.836-1.082-2.777-1.444-.736-.206-1.191-.73-1.908-.928a3,3,0,0,0-1.454-.846,1.8,1.8,0,0,1-.794.493,17.071,17.071,0,0,0,1.28,7.907,3.776,3.776,0,0,1,.8,1.776,3.135,3.135,0,0,1,.639,1.424c.449.255.485,1.1.822,1.521H34.207c.031-.663-.291-1.94.8-1.846" transform="translate(-6.506 -37.553)" fill="#65b95a"/>
        <path id="Path_291" data-name="Path 291" d="M149.807,26.208a3.836,3.836,0,0,1-.4,3.651c.1.451-.253.661-.467.954.019.5-.4.7-.493,1-.291.38-.351.734-.794.954a.7.7,0,0,1-.645.637c.248.944,1.869,1,2.543,1.5a8.2,8.2,0,0,0,4.146-.028c2.827.132,2.608-2.243,1.858-4.2-.353-.118-.483-1-.64-1.28-.289.031-.391-.784-.485-.946A8.761,8.761,0,0,1,152.821,27c-.389.147-.75-.6-.962-.8-.327.093-.494-.257-.637-.481-.327.091-.493-.249-.637-.475-1.124-.011-1.191-1.255-2.455-1.288.163.87,1.228,1.6,1.676,2.257" transform="translate(-48.98 -7.98)" fill="#ffd85f"/>
        <path id="Path_292" data-name="Path 292" d="M121.806,8.261a13.072,13.072,0,0,1,3.678.96,2.27,2.27,0,0,1,1.429.481c.338.039.964.165,1.134.479a7.608,7.608,0,0,1,2.543.952c1.632.4,3.559.964,4.671,2.088.331-.087.494.242.64.477.287.067.741.119.8.483a.4.4,0,0,1,.481.32.4.4,0,0,1,.477.315c.11.037.649.12.7.242a2.823,2.823,0,0,0,1.914,1.046c.5-2.685.451-6.171-1.114-8.371-.359-.828-1.7-1.711-2.256-2.578-.318.087-.506-.249-.639-.479-.4.066-.511-.435-.854-.48-3.15-1.2-7.372-2.6-10.879-1.919,0,.253-.465.264-.627.323a.4.4,0,0,1-.479.316c-.062.129-.137.332-.314.32-.283-.043-.279.444-.645.319a.4.4,0,0,1-.476.321c-1.184,1.358-2.688,2.389-4.018,3.7-.289,1.286,3.082-.195,3.837.687" transform="translate(-39.299 -0.699)" fill="#ffd85f"/>
        <path id="Path_293" data-name="Path 293" d="M109.177,19.525c.427-.584.293-1.5.679-2.118a2.088,2.088,0,0,1,.169-1.638c.12-.259.476-.485.451-.862a2.351,2.351,0,0,0,.647-.8c.531-.323.7-.89,1.436-1.039.057.021,0-.367.024-.387a35.469,35.469,0,0,0-6.946,1.767c-2.632,2.711-2.443,5.225-1.438,8.7.515.795,3.449,4.586,4.764,4.318.537.213.025.789,1.062.8.22-3.033-1.2-5.442-.849-8.745" transform="translate(-34.489 -4.224)" fill="#ffd85f"/>
        <path id="Path_294" data-name="Path 294" d="M20.341,22.895a13.391,13.391,0,0,1,1.764-5.927,13.975,13.975,0,0,1,.806-1.785,22.581,22.581,0,0,0,1.4-2.913A7.2,7.2,0,0,1,26.178,9.94c.051-.035.1-.074.154-.1.9-.525,1.976-.385,3.7.411a2.946,2.946,0,0,1,1.242.475,1.526,1.526,0,0,0,.422.133.937.937,0,0,0,.22.22c.144.1.28.136.389.235a.543.543,0,0,1,.141.213c.283.066.739.121.8.478a3.253,3.253,0,0,1,.948.409c.3.175.583.365.865.5a.488.488,0,0,0,.093.159.2.2,0,0,0,.207.063c.27-.005.314.456.551.493a.237.237,0,0,0,.115-.013.4.4,0,0,1,.1.045c.4.235,1.009,1.227,1.566,1.608a.869.869,0,0,0,.3.139.411.411,0,0,0,.279-.032c-.316-2.594-2-5.084-3.207-7.1-.407-.089-.586-.717-1.052-.73a1.584,1.584,0,0,0-.291-.375l-.005-.006L33.7,7.134a7.416,7.416,0,0,1-1.049-.954.369.369,0,0,1-.111.015c-.214-.007-.373-.22-.48-.405-.018-.031-.034-.061-.049-.089a.432.432,0,0,1-.165,0,.416.416,0,0,1-.311-.321.388.388,0,0,1-.412-.164.505.505,0,0,1-.067-.151C30.885,5,30.444,5,30.427,4.75a11.243,11.243,0,0,0-9.649.151,1.271,1.271,0,0,1-.357.288,5.412,5.412,0,0,0-1.245.671.336.336,0,0,0-.275.132c-.213.219-.4.637-.671.687a.317.317,0,0,1-.175-.019,14.567,14.567,0,0,0-2.675,3.582,10.749,10.749,0,0,0-1.357,4.552c-.055.567-.081,1.146-.081,1.725s.026,1.159.076,1.73a17.834,17.834,0,0,0,.994,4.638c.671.329.292,1.45,1.166,1.452-.012-.691.391-1.042.551-1.553.765-.867,2.608-.073,3.612.109" transform="translate(-4.646 -1.245)" fill="#ffd85f"/>
        <path id="Path_295" data-name="Path 295" d="M138.373,25.15a4.175,4.175,0,0,0,.1-1.074,1.846,1.846,0,0,0-.544-1.372,11.47,11.47,0,0,0-1.852-1.87,1.169,1.169,0,0,0-.253-.121,1.22,1.22,0,0,0-.576-.551c-.077-.04-.153-.073-.223-.1a.433.433,0,0,0-.137-.217c-.147-.128-.358-.153-.494-.29-.006-.014-.014-.032-.023-.051v0l-.006-.009a.343.343,0,0,0-.036-.057.122.122,0,0,0-.092-.061c-.167.061-.344-.1-.5-.291s-.3-.424-.393-.509c-.532.051-.675-.71-1.2-.741a.763.763,0,0,0-.41-.453c-.3-.163-.669-.241-.788-.561-.453-.194-1.3-.408-1.59-.8a4.764,4.764,0,0,1-.491-.121,11.928,11.928,0,0,1-1.888-.673,8.26,8.26,0,0,0-1.254-.183c-.316-.029-.639-.054-.948-.087a5.417,5.417,0,0,1-1.161-.217c-2.07.254-4.247-1.826-6.327-.96-.032.29-.737.255-.939.322a8.916,8.916,0,0,1-.62.661l-.011.011c-.091.1-.183.194-.27.3-.434.506-.74,1.07-.22,1.5a2.675,2.675,0,0,1,.433-.207c.988-.365,1.835.069,2.785.758a.256.256,0,0,1,.127.241,1.078,1.078,0,0,0,.262.037c.375,0,.465-.293.626-.566a.976.976,0,0,1,.251-.3,2.811,2.811,0,0,1,1.992.621.443.443,0,0,0,.061.152c.191.3.683.216.8.535a9.057,9.057,0,0,0,1.9-.08c.171-.014.341-.025.505-.029a2.181,2.181,0,0,1,1.267.259c.655.11,1,.528,1.541.762a.465.465,0,0,0,.112.2c.143.148.364.167.529.283.079.237.351.371.513.486.3,0,.877,1.03,1.42,2.108.068.135.135.27.2.4.132.269.259.533.377.778.293.613.525,1.1.616,1.238a4.209,4.209,0,0,1,2.967-1.137,2.709,2.709,0,0,1,2.539,3.266,6.165,6.165,0,0,1-.083.744c.674-.139,1.193-1.015,1.4-1.97" transform="translate(-38.299 -4.518)" fill="#65b95a"/>
        <path id="Path_296" data-name="Path 296" d="M59.905,128.717c.313-.678-1.184-1.348-1.376-1.82-.018-.293-.344-.084-.477-.265a8.177,8.177,0,0,0-2.861-2.165c1.144,4.784-4.842,5.781-7.676,3.375-.656-.491-.681.334-.795.846.593.143.627.6.479,1.063h9.282c-3.333-4.168,1.125-1.889,3.423-1.032" transform="translate(-15.566 -41.469)" fill="#d3e498"/>
        <path id="Path_297" data-name="Path 297" d="M64.758,131.631a8.582,8.582,0,0,0-2.691-1.15c-.143.715.687.691.906,1.273h2.915c-.415-.076-.912-.081-1.13-.123" transform="translate(-20.674 -43.473)" fill="#d3e498"/>
        <path id="Path_298" data-name="Path 298" d="M71.176,123.769c-1.372.315-1.314-2.779-1.6-3.507a4.4,4.4,0,0,1-2.077-2.574c-.722-.961-.277-1.052-1.832-1.124.151.641.557,1.878-.479,1.765a9.566,9.566,0,0,0,2.1,3.586.4.4,0,0,1,.474.32c.279-.063.425.147.51.379a5.767,5.767,0,0,1,.758,1.86,10.005,10.005,0,0,1,1.121,2.388.439.439,0,0,1,.286.254H71.8a13.835,13.835,0,0,0-.62-3.348" transform="translate(-21.718 -38.836)" fill="#d3e498"/>
        <path id="Path_299" data-name="Path 299" d="M76.96,119.581c-.192-.5.845-.719.8-1.122-.025-.265.4-.216.319-.48,0-.275.425-.225.321-.533.354-.443,1.147-.551,1.6-1.049a1.413,1.413,0,0,1,.481-.87c.164-.263.107-.639.479-.743-.1-.323.259-.507.479-.643-.027-.385.312-.429.433-.875.509-.054.444-1.215.511-1.546.006-.167.217-.232.337-.3a.405.405,0,0,1,.319-.481,1.38,1.38,0,0,1,.891-1.107,3.971,3.971,0,0,1,2.147-1.605c.013-.959.8-1.537.982-2.473a32.427,32.427,0,0,0-5.788.171c-.233.071-.7,1.045-1.016.96a11.93,11.93,0,0,0-2.241,8.318c-2.408,1.53-1.208-9.814-1.694-10.969a36.759,36.759,0,0,1-1.12-4.708c-.495.063-.7-.461-1.189-.491-.086.8.445,4.336,0,4.953-.115,1.607-.4,4.174.8,5.186.39.5.347,6.5.32,7.344a29.612,29.612,0,0,1,.634,4.755h1.255a.937.937,0,0,1-.062-1.7" transform="translate(-24.621 -32.998)" fill="#d3e498"/>
        <path id="Path_300" data-name="Path 300" d="M85.757,129.6a.405.405,0,0,1,.315-.49,1.1,1.1,0,0,1,.645-.806c.062-.635.787-.7,1.029-1.152.652-.277.458-.4,1.2-.592.161-.575.531-.154.664-.868-2.072.113-3.5,1.293-5.521,1.124-.141.4-.908.24-1.035.659-.064.152-.254.145-.391.139a.4.4,0,0,1-.477.319c-.248.321-.528.813-.957.8a4.652,4.652,0,0,1-1.573,1.428h5.7a1.292,1.292,0,0,1,.4-.561" transform="translate(-26.54 -41.876)" fill="#d3e498"/>
        <path id="Path_301" data-name="Path 301" d="M118.82,121.422c-.247-.067-.223-.659-.3-.856-.753-.816.433-2.253-.313-3.183-1.951-.535-1.274-3.433-2.611-3.215-.454.025-.344,6.428-.5,6.61.111.113,1.313.719,1.3.909a30.166,30.166,0,0,1,1.256,4.4.925.925,0,0,1,.183.224H119.8c.016-1.3.658-4.649-.984-4.893" transform="translate(-38.348 -38.034)" fill="#d3e498"/>
        <path id="Path_302" data-name="Path 302" d="M158.448,105.395a.776.776,0,0,1-.2-.129.8.8,0,0,1-.067-.081.842.842,0,0,1-.1-.125.961.961,0,0,1-.115-.273,12.065,12.065,0,0,1-.97-2.809,7.635,7.635,0,0,1-.952-2.4,6.939,6.939,0,0,1-.969-2.723c-3.2-8.711-4.246-17.313-6.872-26.514a40.079,40.079,0,0,0-2.558-10.264c-.685-.463-.44-1.72-.96-2.223.08-.263-.343-.215-.319-.479.083-.265-.315-.213-.353-.441a2.186,2.186,0,0,0-.815-1.248c-.337-1.055-2.266-2.092-2.991-2.649a8.975,8.975,0,0,1-2.721-1.12c-1.808-.742-3.624.6-5.363.639-1.539.646-2.831,1.778-4.554,2.528-.555-.051-.385-.8-.651-1.247-2.043-.135-3.529.073-4.131,2.012-1.531,2.279-2.111,5.1-3.436,7.405-.834,4.461-4.777,7.262,1.016,9.858.4-2.121.954-14.261,3.2-14.115-.772,3.66-3.366,11.454-1.608,15.072.063-.156.1-.5.333-.487a.41.41,0,0,1,.319-.493.4.4,0,0,1,.315-.477,1.469,1.469,0,0,1,.485-.97,11.459,11.459,0,0,1,1.113-2.217c.568-1.249.782-2.713,1.608-3.842a12.279,12.279,0,0,1,1.28-2.72c.52-1.632,1.215-3.324,1.858-4.974,1.89-2.255-.96,4.774-1.124,5.137-1.167,2.221-2.289,5.739-3.52,8a10.22,10.22,0,0,1-1.24,2.293c-.9,1.109,1.154.775,1.4,1.384.467.223,1.44.332,1.762.8a15.367,15.367,0,0,1,1.656.727c.215.428.75.461,1.157.626a3.834,3.834,0,0,0,2.7,1.046c.486-.083.374.461.411.946,1.306.84,1.906,2.441,2.6-.047,1.154-1.372,1.712-3.647,2.747-5.058a7.936,7.936,0,0,1,.964-2.543c-.034-.479.344-.818.481-1.207.214-.239.281-1.126.639-1.21a9.837,9.837,0,0,1,.948-2.378c.165-.653.62-2.8,1.379-2.743.721.449-.215,1.792-.463,2.313a10.289,10.289,0,0,1-1.13,3.043,17.1,17.1,0,0,1-1.27,2.717,8.852,8.852,0,0,1-1.291,3.221c-.321.842-.833,1.748-1.119,2.577-.075.235-.347.386-.481.6.033.406-.305.736-.458,1.064-.434.251-.29,1.02-.8,1.2-.175.2-.3,1.45-.668,1.436-.569.161-1.064-.471-1.2-.944-.6-.307-1.074-1.867-1.986-1.271-.435.89-1.8,1.6-2.244,2.4a18.828,18.828,0,0,1-3.352,3.672c-.094.8-1.158.934-1.435,1.594-.838.123-.87.563-.8,1.326,1.39,5.473,2.033,11.1,3.842,16.335,1.206-.433,2.412-.021,1.61.557h29.7c0-.02,0-.037,0-.057l-.007,0a.54.54,0,0,1-.194-.049l0,0" transform="translate(-39.07 -17.224)" fill="#ccc"/>
        <path id="Path_303" data-name="Path 303" d="M118.938,37.585c.259.351.754.33,1.2.443,1.08-.44-1.764-1.909-1.2-.443" transform="translate(-39.603 -12.311)" fill="#486149"/>
        <path id="Path_304" data-name="Path 304" d="M118.938,37.585c.259.351.754.33,1.2.443C121.22,37.588,118.375,36.119,118.938,37.585Z" transform="translate(-39.603 -12.311)" fill="none" stroke="#486149" stroke-miterlimit="10" stroke-width="1"/>
        <path id="Path_305" data-name="Path 305" d="M124.437,30.005c-.577-.366-.711.663-.357.925.546.629,1.142-.988.357-.925" transform="translate(-41.276 -9.971)" fill="#486149"/>
        <path id="Path_306" data-name="Path 306" d="M124.437,30.005c-.577-.366-.711.663-.357.925C124.626,31.559,125.221,29.942,124.437,30.005Z" transform="translate(-41.276 -9.971)" fill="none" stroke="#486149" stroke-miterlimit="10" stroke-width="1"/>
        <path id="Path_307" data-name="Path 307" d="M116.048,30.976c-.668-.365-.706,1-.219,1.118.842.447.862-.976.219-1.118" transform="translate(-38.482 -10.3)" fill="#486149"/>
        <path id="Path_308" data-name="Path 308" d="M116.048,30.976c-.668-.365-.706,1-.219,1.118C116.671,32.542,116.691,31.119,116.048,30.976Z" transform="translate(-38.482 -10.3)" fill="none" stroke="#486149" stroke-miterlimit="10" stroke-width="1"/>
        <path id="Path_309" data-name="Path 309" d="M33.729,30.356c.884.583,1.21-.486.831-1.1-.679-.686-1.482.594-.831,1.1" transform="translate(-11.157 -9.681)" fill="#486149"/>
        <path id="Path_310" data-name="Path 310" d="M33.729,30.356c.884.583,1.21-.486.831-1.1C33.881,28.569,33.077,29.849,33.729,30.356Z" transform="translate(-11.157 -9.681)" fill="none" stroke="#486149" stroke-miterlimit="10" stroke-width="1"/>
        <path id="Path_311" data-name="Path 311" d="M119.555,41.83c.407.32.987,1.28,1.55,1.6a.365.365,0,0,0,.447.256c.115.464.752.416,1.063.641,1.266.172,2.8-1.689,2.259-2.791.4-.752-6.491-1-5.319.292m4.569.139c-.615,3.637-6.474-1.436.007-.034Z" transform="translate(-39.788 -13.633)" fill="#486149"/>
        <path id="Path_312" data-name="Path 312" d="M119.555,41.83c.407.32.987,1.28,1.55,1.6a.365.365,0,0,0,.447.256c.115.464.752.416,1.063.641,1.266.172,2.8-1.689,2.259-2.791C125.273,40.786,118.383,40.54,119.555,41.83Zm4.569.139c-.615,3.637-6.474-1.436.007-.034Z" transform="translate(-39.788 -13.633)" fill="none" stroke="#486149" stroke-miterlimit="10" stroke-width="1"/>
        <path id="Path_313" data-name="Path 313" d="M43.989,38.926c-.391-.095-.729.324-.978.482-.924,1.348-3.129.977-4.361.325-2.289.523,3.361,2.1,4,1.068.273-.36,2.241-1.279,1.339-1.874" transform="translate(-12.697 -12.965)" fill="#486149"/>
        <path id="Path_314" data-name="Path 314" d="M43.989,38.926c-.391-.095-.729.324-.978.482-.924,1.348-3.129.977-4.361.325-2.289.523,3.361,2.1,4,1.068C42.923,40.44,44.891,39.522,43.989,38.926Z" transform="translate(-12.697 -12.965)" fill="none" stroke="#486149" stroke-miterlimit="10" stroke-width="1"/>
        <path id="Path_315" data-name="Path 315" d="M53.216,72.32c.146.935,1.418,1.148,2.1.687,2-2.5-3.743-5.3-2.578-1.25.1.209.211.572.483.563m.414-1.6c.8-.111,1.309.786,1.186,1.506-.925.483-1.349-.7-1.186-1.506" transform="translate(-17.517 -23.226)" fill="#486149"/>
        <path id="Path_316" data-name="Path 316" d="M53.216,72.32c.146.935,1.418,1.148,2.1.687,2-2.5-3.743-5.3-2.578-1.25C52.833,71.965,52.944,72.328,53.216,72.32Zm.414-1.6c.8-.111,1.309.786,1.186,1.506C53.891,72.709,53.467,71.528,53.63,70.72Z" transform="translate(-17.517 -23.226)" fill="none" stroke="#486149" stroke-miterlimit="10" stroke-width="1"/>
        <path id="Path_317" data-name="Path 317" d="M42.558,35.319c-.283.113-3.342-.39-2.293.622.515.371,3.309.158,2.293-.622" transform="translate(-13.343 -11.758)" fill="#486149"/>
        <path id="Path_318" data-name="Path 318" d="M42.558,35.319c-.283.113-3.342-.39-2.293.622C40.781,36.312,43.575,36.1,42.558,35.319Z" transform="translate(-13.343 -11.758)" fill="none" stroke="#486149" stroke-miterlimit="10" stroke-width="1"/>
        <path id="Path_319" data-name="Path 319" d="M46.635,27.5c-.949-.375-1.241.782-.494,1.13a.628.628,0,0,0,.494-1.13" transform="translate(-15.232 -9.136)" fill="#486149"/>
        <path id="Path_320" data-name="Path 320" d="M46.635,27.5c-.949-.375-1.241.782-.494,1.13A.628.628,0,0,0,46.635,27.5Z" transform="translate(-15.232 -9.136)" fill="none" stroke="#486149" stroke-miterlimit="10" stroke-width="1"/>
        <path id="Path_321" data-name="Path 321" d="M51.572,95.59a3.975,3.975,0,0,0-1.9.938c-.419.279-1.4.321-1.69.8C44.417,99.7,38.124,98.413,34,99.168c2.828,1.195,10.813.961,13.442-.787a32.987,32.987,0,0,1,3.26-1.35c.161-.562,1.986-.8.871-1.442" transform="translate(-11.328 -31.848)" fill="#486149"/>
        <path id="Path_322" data-name="Path 322" d="M51.572,95.59a3.975,3.975,0,0,0-1.9.938c-.419.279-1.4.321-1.69.8C44.417,99.7,38.124,98.413,34,99.168c2.828,1.195,10.813.961,13.442-.787a32.987,32.987,0,0,1,3.26-1.35C50.862,96.47,52.687,96.229,51.572,95.59Z" transform="translate(-11.328 -31.848)" fill="none" stroke="#486149" stroke-miterlimit="10" stroke-width="1"/>
        <path id="Path_323" data-name="Path 323" d="M15.96,86.927a3.128,3.128,0,0,0-.639-1.424,3.774,3.774,0,0,0-.8-1.776,17.068,17.068,0,0,1-1.28-7.907,1.8,1.8,0,0,0,.794-.493,2.993,2.993,0,0,1,1.454.846c.718.2,1.172.721,1.908.928.942.362,1.8,1.133,2.777,1.444.141.221.312.568.636.475.2.466.647.472.9.839,2.169.749,3.823,2.323,5.971,3.484a23.087,23.087,0,0,1,.984,3.26c-1.093-.095-.772,1.183-.8,1.845H31.8c.148-.466.114-.92-.48-1.063.114-.511.138-1.337.795-.846,2.835,2.406,8.821,1.408,7.677-3.375a8.185,8.185,0,0,1,2.86,2.165c.133.182.459-.027.477.266.191.471,1.689,1.143,1.375,1.82-2.3-.858-6.756-3.136-3.423,1.032h1.383c-.218-.581-1.049-.557-.906-1.272a8.582,8.582,0,0,1,2.691,1.15c.218.041.715.047,1.13.122h1.5c-1.036-1.035-1.608-2.466-3.087-3.155-.224-.194-.7-1.091-1.094-.927-.131-.183-.291-.567-.583-.48-.235-.131-.321-.6-.7-.479a.409.409,0,0,0-.493-.32c-.533-.6-1.628-.927-1.6-2,1.3.249,1.816,1.384,2.933,1.774.138.219.313.569.635.474.183.219.443.772.817.64.107.467.625.784,1.095.962A14.722,14.722,0,0,0,47.544,88a.523.523,0,0,0,.19.45h1.151a.437.437,0,0,0-.286-.253,9.993,9.993,0,0,0-1.121-2.388,5.752,5.752,0,0,0-.758-1.86c-.085-.233-.231-.443-.51-.379a.4.4,0,0,0-.473-.321,9.561,9.561,0,0,1-2.1-3.586c1.036.113.63-1.124.479-1.765,1.555.072,1.11.163,1.832,1.124a4.4,4.4,0,0,0,2.077,2.573c.287.729.229,3.823,1.6,3.507a13.827,13.827,0,0,1,.62,3.347h1.069a29.679,29.679,0,0,0-.634-4.754c.027-.848.07-6.849-.321-7.345-1.2-1.012-.914-3.578-.8-5.186.442-.617-.09-4.152,0-4.952.489.029.695.554,1.19.491a36.785,36.785,0,0,0,1.12,4.708c.486,1.156-.714,12.5,1.694,10.969A11.928,11.928,0,0,1,55.8,74.06c.313.085.782-.889,1.016-.96a32.364,32.364,0,0,1,5.788-.171c-.183.935-.969,1.514-.982,2.473a3.963,3.963,0,0,0-2.146,1.605,1.38,1.38,0,0,0-.891,1.106.406.406,0,0,0-.319.481c-.121.064-.332.129-.337.3-.068.331,0,1.492-.511,1.546-.121.446-.459.489-.432.875-.22.136-.576.32-.479.643-.371.1-.315.48-.479.742a1.421,1.421,0,0,0-.481.87c-.453.5-1.245.605-1.6,1.048.1.309-.325.259-.321.534.081.263-.344.215-.32.479.047.4-.991.623-.8,1.123a.936.936,0,0,0,.062,1.7h.715a4.648,4.648,0,0,0,1.574-1.428c.429.013.709-.479.957-.8a.4.4,0,0,0,.477-.319c.137.005.327.013.39-.139.127-.419.894-.257,1.035-.659,2.02.169,3.449-1.01,5.521-1.124-.133.713-.5.292-.664.868-.742.191-.547.315-1.2.592-.242.457-.967.516-1.029,1.152a1.1,1.1,0,0,0-.645.806.405.405,0,0,0-.315.49,1.286,1.286,0,0,0-.4.561h1.026a7.394,7.394,0,0,1,.961-1.334c.224-.043.655-1,.928-.894.178.012.251-.191.315-.319a.4.4,0,0,0,.477-.316,1.147,1.147,0,0,0,.86-.484c.27-.175.595-.1.8-.4.193-.836-.4-1.372.828-1.434,1.178-.091,1.508-.727,2.149-1.35.874-2.063.093-5.371-2.068-6.351-.121-1.167.571-2.586-1.3-1.752a.41.41,0,0,0-.319-.5c-.025-.345.143-1.178-.337-1.286-2.124-.137-4.81.318-7.067.341.247-.615-.689-5.831-.6-6.783,2.327-.451,1.463-4.806.972-6.029C56.567,59,55.54,58.621,55,58.6A42.416,42.416,0,0,0,53.4,49.567a52.3,52.3,0,0,0,6.079,1.774c.519.079.982.349,1.5.48a.4.4,0,0,0,.479.32.409.409,0,0,0,.493.319c0,.363.348.369.639.505A6.633,6.633,0,0,0,63.7,54.394c-.005.347.613.88.6,1.337a1.075,1.075,0,0,1,.486.788c.358.226.385.649.611.964.277.131.506.84.663,1.129.411.259.27.573.677.741-.12.372.358.359.321.645-.012.177.191.252.319.315a.4.4,0,0,0,.317.477c.07.171.061.609.313.627.069.271.182.588.49.657a2.69,2.69,0,0,0,.408.843c.332.047.144.356.344.513.352.1.313.441.507.632.295.042.087.359.293.488.339.1.334.4.462.642.636.461,1.24,1.545,1.98,2,.175.2.431.763.794.628a.4.4,0,0,0,.476.319c.263.572.96.662,1.228,1.212a3.307,3.307,0,0,1,1.01.549,17.572,17.572,0,0,0,1.729.453c1.155.076,2.661-.816,3.718-.453.058.327.4.35.668.32a2.108,2.108,0,0,0,1.423.32c1.612,5.988,2.2,12.068,4,17.82a1.457,1.457,0,0,0-.683.087h3.193c.8-.577-.4-.99-1.61-.557-1.808-5.235-2.452-10.863-3.842-16.335-.068-.763-.036-1.2.8-1.326.277-.661,1.341-.8,1.435-1.594a18.844,18.844,0,0,0,3.352-3.672c.439-.8,1.808-1.507,2.244-2.4.912-.6,1.387.965,1.986,1.271.138.473.633,1.106,1.2.944.373.015.493-1.236.668-1.436.515-.183.371-.952.8-1.2.153-.329.491-.658.458-1.064.133-.215.407-.365.481-.6.286-.83.8-1.736,1.119-2.578a8.853,8.853,0,0,0,1.291-3.221,17.156,17.156,0,0,0,1.27-2.717,10.293,10.293,0,0,0,1.13-3.043c.247-.521,1.184-1.864.463-2.313-.759-.053-1.214,2.09-1.379,2.743a9.838,9.838,0,0,0-.948,2.378c-.358.085-.425.971-.639,1.21-.137.388-.515.728-.481,1.207a7.93,7.93,0,0,0-.964,2.543c-1.034,1.411-1.592,3.686-2.747,5.057-.69,2.489-1.29.887-2.6.047-.037-.485.075-1.03-.411-.946a3.837,3.837,0,0,1-2.7-1.047c-.407-.165-.942-.2-1.157-.626a15.368,15.368,0,0,0-1.656-.727c-.321-.468-1.294-.577-1.762-.8-.243-.609-2.3-.274-1.4-1.384a10.22,10.22,0,0,0,1.24-2.293c1.231-2.261,2.353-5.779,3.52-8,.163-.363,3.013-7.391,1.124-5.137-.643,1.65-1.338,3.343-1.858,4.974a12.293,12.293,0,0,0-1.28,2.72c-.826,1.13-1.04,2.594-1.608,3.842A11.458,11.458,0,0,0,84.5,54.588a1.469,1.469,0,0,0-.485.97.4.4,0,0,0-.315.477.41.41,0,0,0-.319.493c-.23-.008-.269.332-.333.488-1.758-3.618.836-11.412,1.608-15.072-2.241-.146-2.793,11.993-3.2,14.115-5.793-2.6-1.85-5.4-1.016-9.858,1.325-2.309,1.905-5.127,3.436-7.405.6-1.939,2.088-2.146,4.131-2.011.267.447.1,1.2.651,1.247,1.722-.75,3.015-1.882,4.554-2.528,1.74-.039,3.555-1.382,5.363-.64a8.975,8.975,0,0,0,2.721,1.12c.726.557,2.654,1.594,2.991,2.649a2.188,2.188,0,0,1,.815,1.248c.038.228.436.175.353.441-.023.264.4.216.319.479.52.5.275,1.76.96,2.223A40.079,40.079,0,0,1,109.3,53.285c2.625,9.2,3.676,17.8,6.872,26.514a6.918,6.918,0,0,0,.969,2.723,7.612,7.612,0,0,0,.951,2.4,12.054,12.054,0,0,0,.97,2.809.973.973,0,0,0,.115.274.916.916,0,0,0,.1.125.88.88,0,0,0,.067.081.791.791,0,0,0,.2.129l0,0a.555.555,0,0,0,.194.049c.261.014.451-.214.253-.774-.95-1.789-1.209-3.934-2.282-5.686-.659-1.917-1.166-4.25-1.918-6.027-1.06-3.547-1.754-7.419-2.88-10.879-.853-5.887-2.9-12.432-4-18.166-.484-.962-.6-2.268-1.277-3.15-.354-.806.38-1.5-.323-2.043a1.912,1.912,0,0,0-.3-.739.205.205,0,0,1-.181-.255c.012-.177-.192-.253-.321-.316a.4.4,0,0,0-.315-.475c-.055-.247-.13-.771-.485-.8a.405.405,0,0,0-.319-.481,6.146,6.146,0,0,0-2.861-2.867,5.133,5.133,0,0,1-3.219-3.343c-.429-1.844-1.374-3.333-1.6-5.54,2.754,1.648,6.792,1.94,9.35.657,2.063-.918,1.022-4.218.091-5.533-.425-.962-.872-2.517-2.062-2.879-.321-.627-1.041-.792-1.366-1.34-.45-.176-1.351-1.117-1.852-1.42,1.387-4.088.351-9.286-3.031-11.812-.275-.42-.992-1.106-1.436-1.107-.036-.427-.868-.529-1.157-.657A3.807,3.807,0,0,0,94.5,2.129,25.394,25.394,0,0,0,87.951.5c-1.856.1-3.6.485-4.74,1.785-.614-.063-1.266.9-1.605,1.284-.406-.173-.888.772-1.119.96-.247-.055-.417.127-.507.339C78.737,5.624,77.536,8.039,75.9,8A32.412,32.412,0,0,1,71.279,9.46,4.577,4.577,0,0,0,69.3,11.89c-1.794,2.058-.842,7.512.96,9.067.2.749,2.094,1.868,2.547,2.711,4.418,1.913,3.994,7.65,8.081,10.132,1.52.677,2.253,1.764,4.584,1.7-.136.843-.5.163-.653.707-.433-.107-.8.589-.96.891-.117.167-.417.248-.319.566a9.892,9.892,0,0,0-1.44,2.7,3.606,3.606,0,0,0-.808,1.94,5.478,5.478,0,0,0-.793,1.9,12.672,12.672,0,0,0-1.28,2.969A19.164,19.164,0,0,0,78.1,50.451c-.808.323-.009,3.426-1.561,1.5-.448.007-.667-.475-.965-.735-.944-.466-3.156-3.157-4.1-3.828-.113-.375-.205-.778-.639-.956a.4.4,0,0,0-.313-.475c-.048-.153-.111-.48-.327-.47-.523-1.523-.775-4.04-1.76-5.28-.457-1.319-2.464-4.056-3.981-4.47.026-.395.2-.976-.489-1.023-.437.071-.581-.965-.726-1.194-.124-.371-.956.041-1.2-.055.408-2.519-1.135-2.233-1.853-.3H59.8c-1.513-2.061-2.293-1.775-1.21.8-1.492.2-3.635,1-3.843,2.4-.916.776-.166,2.885-.643,3.818-1.3.086-2.014-.45-3.405.355-1.051-1.975-1.525-4.509-2.716-6.174-.289-.081-.115-.52-.5-.57a.4.4,0,0,0-.315-.479c-.079-.3-.113-.729-.485-.8.052-.384-.5-.577-.451-1.026a2.3,2.3,0,0,1-.645-.8c-.366-.125-.645-1.029-1.127-.879-.112-.131-.246-.492-.453-.479-.288.09-.233-.334-.505-.321-.3.013-.461-.453-.834-.32a1.853,1.853,0,0,0-1.091-.645c-.257-.488-.923-.517-1.382-.794a41.838,41.838,0,0,0-4.873-1.609c.051-.25.1-1.952.379-2.022a28.749,28.749,0,0,0-1.015-7.232,11.276,11.276,0,0,0-1.6-6.737A6.349,6.349,0,0,0,31.32,6.86c-.159-.289-.521-.995-.943-.892-.229-.194-.721-1.126-1.121-.96-.181-.209-.435-.767-.8-.639-.207-.458-.641-.49-.918-.832-.685-.161-1.614-1.07-2.459-1.087C22.8,1.275,18.5,1.62,16.346,2.93c-.712.117-1.264.79-2.01.928a12.152,12.152,0,0,0-1.681,1.624c-.607.533-1.614,1.36-1.754,2.078-.36.061-.413.516-.477.8-.545.314-.721,1.207-.974,1.794-1.386,3.619-1.12,9.257.818,12.548.363.821.653,1.907,1.437,2.413a5.067,5.067,0,0,0,.82,1.792,22.873,22.873,0,0,0-5.637,4.822c-.4-.231-1.194,1.12-1.432,1.271a10.106,10.106,0,0,0-2.709,3.294C.322,42.037-.107,50.053,1.3,56.281a16.661,16.661,0,0,0,1.438,4.959,19.281,19.281,0,0,0,1.918,4.975c.8,1.172.15,2.251.119,3.626.455.875.083,2.933,1.172,3.592-.124.357.383.38.319.674A2.96,2.96,0,0,0,8.2,75.179c1.126.815,2.907.447,4.282.8-.016,1.83-.1,5.869,1.14,7.356a21.573,21.573,0,0,0,1.92,4.321,5.923,5.923,0,0,1,.3.788h.932c-.336-.419-.372-1.266-.822-1.52M45.4,84.14c.694-.159.77.311.706.876-.539-.121-.8-.351-.706-.876m15.9-.908c-.293.617-1.189.281-1.434.814a9.528,9.528,0,0,0-3.121.619c-.125.376-.832.161-.891.661-.563.053-.868.746-1.494.813-.3-1.108,1.388-1.125,1.76-1.952.123-.332.575-.7.645-1.318a.4.4,0,0,0,.315-.477c.7-.475.918-1.364,1.648-1.947A5.283,5.283,0,0,0,61.32,83.2Zm2.033-6.8a3.726,3.726,0,0,0,.429.172c.485,1.749.746-1.244,2.522.872,3.073,5.923-6.549,7.319-6.963,1.268l-.006-.039c.657-.986,2.582-3.411,4.018-2.272m24.2-40.373c-.045-.011-.85-.157-.863-.183.045-.685.621-.545,1.044-.355Zm11.3-13.286a6.156,6.156,0,0,0,.083-.744,2.709,2.709,0,0,0-2.539-3.266A4.212,4.212,0,0,0,93.413,19.9c-.091-.133-.322-.624-.615-1.237-.117-.245-.245-.51-.377-.779-.066-.135-.133-.27-.2-.4-.543-1.078-1.123-2.1-1.419-2.107-.161-.116-.433-.249-.513-.487-.165-.115-.386-.135-.529-.282a.471.471,0,0,1-.112-.2c-.539-.233-.886-.651-1.542-.762a2.179,2.179,0,0,0-1.266-.259c-.165,0-.335.015-.506.029a9.054,9.054,0,0,1-1.9.08c-.121-.319-.613-.239-.8-.535a.469.469,0,0,1-.062-.152,2.809,2.809,0,0,0-1.991-.621.988.988,0,0,0-.251.3c-.161.273-.251.565-.625.566a1.051,1.051,0,0,1-.263-.037.255.255,0,0,0-.127-.241c-.95-.688-1.8-1.122-2.785-.758a2.788,2.788,0,0,0-.433.207c-.519-.435-.213-1,.22-1.5.087-.1.179-.2.27-.3l.011-.011a8.777,8.777,0,0,0,.62-.661c.2-.067.908-.031.94-.322,2.08-.867,4.256,1.214,6.327.96a5.448,5.448,0,0,0,1.16.217c.309.032.632.057.948.087a8.194,8.194,0,0,1,1.254.183,11.929,11.929,0,0,0,1.888.673,4.723,4.723,0,0,0,.491.121c.285.4,1.138.61,1.59.8.119.321.485.4.788.561a.761.761,0,0,1,.411.454c.521.03.663.792,1.2.74.095.085.235.315.393.509s.335.352.5.291a.123.123,0,0,1,.092.061.46.46,0,0,1,.036.057l.005.01v0c.009.019.017.037.023.051.136.137.347.163.494.291a.422.422,0,0,1,.137.217,2.207,2.207,0,0,1,.223.1,1.216,1.216,0,0,1,.576.55,1.174,1.174,0,0,1,.253.121,11.466,11.466,0,0,1,1.851,1.87,1.846,1.846,0,0,1,.544,1.372,4.172,4.172,0,0,1-.1,1.073c-.211.956-.731,1.831-1.4,1.97Zm3.573-4.866c.143.224.31.573.637.481.211.2.571.947.961.8a8.761,8.761,0,0,0,1.61,1.453c.095.162.2.977.486.946.157.282.286,1.162.639,1.28.75,1.954.97,4.33-1.857,4.2a8.211,8.211,0,0,1-4.146.028c-.674-.495-2.3-.554-2.543-1.5a.706.706,0,0,0,.646-.637c.443-.221.5-.574.794-.955.089-.3.511-.5.492-1,.215-.292.566-.5.468-.954a3.834,3.834,0,0,0,.4-3.65c-.447-.656-1.513-1.387-1.676-2.257,1.263.033,1.33,1.276,2.454,1.287.144.227.309.567.637.476M78.838,7.041c1.329-1.308,2.834-2.339,4.018-3.7a.4.4,0,0,0,.475-.321c.367.125.363-.361.645-.319.177.013.252-.191.315-.319a.4.4,0,0,0,.478-.316c.163-.059.625-.071.627-.324,3.507-.675,7.729.718,10.879,1.92.343.045.451.545.854.48.133.229.321.567.639.479.555.867,1.9,1.75,2.256,2.578,1.566,2.2,1.618,5.686,1.115,8.371a2.827,2.827,0,0,1-1.915-1.046c-.047-.123-.586-.2-.7-.243a.4.4,0,0,0-.477-.315.4.4,0,0,0-.482-.32c-.059-.364-.513-.417-.8-.483-.147-.234-.309-.564-.641-.476-1.112-1.124-3.039-1.684-4.671-2.088a7.625,7.625,0,0,0-2.542-.953c-.171-.314-.8-.44-1.134-.479a2.272,2.272,0,0,0-1.429-.48,13.05,13.05,0,0,0-3.678-.96c-.755-.882-4.126.6-3.836-.687M75.7,24.213c-1.036-.016-.525-.592-1.062-.8-1.315.268-4.249-3.524-4.764-4.318-1-3.477-1.194-5.991,1.438-8.7a35.469,35.469,0,0,1,6.946-1.767c-.02.02.033.407-.024.387-.734.149-.9.716-1.436,1.039a2.358,2.358,0,0,1-.647.8c.025.377-.332.6-.451.862a2.089,2.089,0,0,0-.169,1.638c-.386.617-.252,1.534-.679,2.118-.355,3.3,1.068,5.712.849,8.745M82.6,33.787c-4.517-2.464-6.389-7.373-6.32-12.8-.992-1.25-.507-6.27.063-7.759.493-.417,1.632.533,1.7-.612,1.472.093,3.207,2.776,3.993.313,3,2.155,2.827,1.049,6,1.45.255.162.414.524.772.481a.4.4,0,0,0,.475.32c.137.221.321.575.643.479.022.313.758.788.969.973.087.161.2.979.483.946.293.531.489,1.5.96,1.92.377,1.481.924,4.54,1.853,1.122,1.9-2.021,4.328-.8,3.746,2.289-.069,1.082-4.9,3.885-1.283,3.3.35,3.168,1.644,5.011,2.247,7.755l-.039,0a5.816,5.816,0,0,0-4.427.479c-1.627-.1-4.038,1.556-5.513,2.405-.755-1.668-.778-1.947.843-2.861.625-1.489-1.792-.037-2.087.293-1.288.486-4.053.559-5.085-.5M29.56,87.333l1.035.171c-.064.986-1.219.638-1.035-.171m-.9-4.072c-.4-.383-.827-1.148-1.494-1.139a.4.4,0,0,0-.473-.316c-.145-.225-.315-.573-.643-.479-.269-.536-1.042-.771-1.6-.968-.116-.457-.752-.409-1.06-.633-.341-.075-.6-.565-1.029-.48-.017-.31-.489-.209-.557-.5-.106-.233-.437-.028-.48-.317-.107-.233-.439-.031-.481-.323-.107-.233-.437-.029-.479-.32a29.3,29.3,0,0,0-3.6-1.739c-1.419-1.008-3.2-1.175-1.248-3.207-.057-.559.666-.665.608-1.159.232-.33.68-.344.861-.659.547-.336,1.134-1.409,1.929-1.4a5.041,5.041,0,0,1,1.906-1.166c.061.4.183.779.642.814A3.194,3.194,0,0,0,23.04,70.7a19.812,19.812,0,0,0,2.443,2.458c2.167,1.99,4.255,4.362,7.512,5.229-.151.986-.859.233-1.13.858-1.67.283-2.349,3.2-1.44,4.572a17.862,17.862,0,0,0,.491,2c-1.132,2.8-1.884-1.79-2.254-2.553M39.054,85c-1.17,2.751-4.954,2.277-6.758.569-1.223-1.054-2.165-4.348-.427-5.334.576-.719,2.417-.906,3.027.077.437.2-.215,1.894.634,1.91.89-.62.956-2,2.124-.585,1.326.175,1.44,2.295,1.4,3.363m8.11-5.282c-.068-.289-.121-.74-.486-.8a.676.676,0,0,0-.319-.647c.1-.306-.226-.365-.32-.53-.218-.485-.526-1.408-1.275-1.126-.453.325-.972-.642-1.4-.077-.152.3-.4,1.488.045,1.836-.017.111-.147.149-.172.255-2.691-1.022-.906.819-.379,1.765a13.088,13.088,0,0,1,1.819,3.184c-1.055-.006-1.455-1.114-2.3-1.287a.405.405,0,0,0-.479-.321c-.123-.457-.616-.385-.76-.713a2.717,2.717,0,0,0-.843-.407.4.4,0,0,0-.48-.319.448.448,0,0,0-.488-.338c-.12-.347-.517-.352-.8-.462-.239-.624-.862-.145-1.3-.159-.362-.417.5-2.389-.777-2.129l.043.247c-.377-.661-.417.691-1,.441-.157-.635-1.361-.1-1.7-.479-.706-.16-2.135-.432-2.575-1.034-.269-.3-1.133-.271-1.244-.776-.218-.146-.542-.141-.641-.48A10.758,10.758,0,0,1,26.693,73c-1.7-1.1-2.882-2.986-4.635-4-.02-.309-.4-.988-.031-1.2,1.246.061.719-.878-.147-.912-.133-5.791.133-4.588-2.679-6.206-.109-.311-.649-1.919-1-1.989-.22-.245-.275-1.116-.639-1.21-.334-1.768-1.448-3.288-1.764-5.195,4.241,1.387,2.666-3.666-.956-2.157-1.074-5.173-1.041-11.781-.64-17.285.075-.531.371-.995.481-1.527.159-.255.52-.411.479-.766.594-.2.439-1.092,1.187-.977-.272,6.239-.459,12.6,1.759,17.759,1.926,3.639,8.879.92,12.334,1.293,4.194-1.784,3.734-2.713,3.119-6.968a64.723,64.723,0,0,0-1.126-10.483c.661-.193.263-1.5,1.183-1.28.7,2.105,2.531,7.156,2.715,9.056,1.871,4.6,2.447,10.8,4.974,14.462a8.191,8.191,0,0,1,.32,2.95c.5,1.13.706,2.391,1.12,3.647-.071,1.064-.731.88-.8,1.807-.771.8-.381,2.948.16,3.74-.06,2.2,1.836,2.711,3.68,2.736a11.757,11.757,0,0,0,.639,2.544A91.294,91.294,0,0,0,47.8,80.336c-.263-.237-.5-.48-.635-.62M16.426,51.408c.115-.756.584-.673,1.047-.208-.108.845-.6.4-1.047.208m3.119-13.784c.161.34.517.419.57.851.771.353,1.017,1.565,1.813,1.667.279.543,1.069.94,1.367,1.328.638.479,1.21,1.188,2.2.846a12.387,12.387,0,0,0,3.747-5.053,18.357,18.357,0,0,0,2.082-4.811c.258.031.312.177.543.171.377,2.354.371,5.563.8,7.822.021,1.785.351,3.714.319,5.509a2.767,2.767,0,0,0-.975.974c-.465.016-.884.427-1.247.64a32.871,32.871,0,0,1-6.167.481c-2.412.707-5.737.348-6.4-2.4a74.142,74.142,0,0,1-1.282-12.226c.6-.153.415.457.708.709.4.8.82,1.731,1.242,2.562.05.209.441.167.357.426-.016.269.413.219.32.5M49.453,76.438c.477-.024.315,7.026.332,7.46-.719.109-.726-2.7-1.109-2.957a1.712,1.712,0,0,1-.281-.155c.073-2.038-1.717-11.821-1.88-11.933-.32-1.131,1.823-.574,2.311-.711.368,2.657-1.232,6.31.627,8.3m6.253-4.075a1.617,1.617,0,0,0,.353.1c-.387,1.12-1.384,1.75-1.992,2.555-.241.3-.519,2.8-1.307,2.311L52.6,74.7c.647-1.507,0-3.922-.476-5.193-1.358-2.779.077-3.2,2.626-3.6.705,1.868.123,4.592.96,6.463m0-12.7c1.321,4.894.539,5.214-4.064,5.987-.471-1.295.01-3.173-.661-4.04-.982-.476-.769,1.664-.876,2.12-.648.18-.449-.545-.774-.848-.323-.183-.4-.741-.891-.929-.232-1.686-1.278.513-.948,1.334a13.835,13.835,0,0,1,1.179,3.962H46.2a.371.371,0,1,0-.742,0,3.805,3.805,0,0,1-2.137-.345c-1.862-4.728-1.031-4.675,3.035-5.959a26.163,26.163,0,0,1,8.087-1.44c.062.3,1.07.109,1.262.159M55.12,37.744c.094-2.126,3.075-3.435,5.051-2.7.989-.533,1.782.441,2.733.619.668.263.463,3.331.469,3.951a11.789,11.789,0,0,1,.653,2.677c-3.325-.455-9.99.035-8.907-4.545m3.654,4.936c.623-.079,5.747.949,6.3.233-.165-1.863-1.411-4.328-.639-6.143,1.213.377,1.414,1.51,2.3,2.1.067.274.178.565.479.639.072.3.115.732.482.8.766,1.508,1.263,3.817,1.917,5.6a48.105,48.105,0,0,0,4.723,5.445c.533.081.924,1.151,1.5,1.1.2.092,2.231,2.7,2.562,2.4.171.215.446.766.8.64a.4.4,0,0,0,.476.319c.129.225.326.568.642.483a5.129,5.129,0,0,0,2.92,1.964c1.022-.907,2.4.339,3.515.605.379.329,1.433.622,1.806,1.034.165.152.435-.031.491.254a9.912,9.912,0,0,1,1.126.619c.271-.1.293.257.457.371.419.191,1.562.514,1,.978a23.253,23.253,0,0,1-1.97,1.859c-.107.419-.494.657-.692.978-.369.852-2.2,2.34-2.9,3.127-1.615,2.777-4.548,1.177-6.4-.5-.509-.6-1.611-1.509-2.279-2.122.171-.387-.765-.9-.954-1.115a.748.748,0,0,0-.485-.639c.127-.367-.428-.621-.64-.8.127-.364-.429-.618-.639-.8.094-.328-.259-.5-.479-.64.153-.455-.563-.459-.481-.844A17.512,17.512,0,0,0,71.8,58.589c.125-.364-.43-.617-.64-.8.124-.379-.39-.36-.32-.674-.089-.361-.779-.527-.764-.981a1.124,1.124,0,0,1-.456-.659,1.335,1.335,0,0,1-.64-.8c-.073-.1-.679-.389-.541-.589-.173-.339-.493-.425-.591-.849-.327-.1-.337-.421-.479-.64-.252-.174-1.043-.58-.954-1-.441-.416-.458-1.354-1.014-1.642a2.545,2.545,0,0,0-2.417-1.588c-1.725-.6-4.177-.439-6.065-.64-.838-.462-2.124-.834-3.021-1.282a4.721,4.721,0,0,0-1.3-1.293c-3.639-6.235,2.827-3.878,6.175-2.471M50.6,41.9c.848,6.759,6.874,6.738,12.3,7.2.194.321.88.369,1.27.481a1.106,1.106,0,0,0,.647.812c.079.551.477.882.642,1.336a10.478,10.478,0,0,0,.758,1.586c.611.165,1.392.536,1.482,1.117.227.365.733.687.887,1.126.323.137.261.637.712.758-.095.326.259.5.481.64-.094.325.259.5.479.64-.123.375.381.362.321.666.163.339.514.423.573.851a1.774,1.774,0,0,1,.8.96c.594.3.764,1.069,1.346,1.364-.157.441.546.465.48.824,1.762,2.08,3.449,4.756,5.928,6.368l-.009.034c-.449,1.121-2.83.712-3.77.167a3.466,3.466,0,0,1-.843-.849c-.228-.113-.545-.135-.642-.463-.864-.3-1.8-1.578-2.65-2.209.127-.363-.431-.618-.64-.8.091-.329-.258-.494-.481-.638.091-.33-.255-.5-.479-.64.091-.329-.256-.5-.479-.641a.4.4,0,0,0-.32-.476c.02-.2-.03-.387-.25-.437-.369-.371-.351-1.1-.865-1.322-.081-.3-.111-.731-.486-.8.045-.353-.312-.45-.43-.878-.427-.126-.283-.606-.684-.721-.081-.269-.1-.724-.447-.783-.094-.286-.147-.752-.511-.818-.137-.295-.218-1.072-.641-1.119,0-.575-.593-.8-.617-1.348-.247-.275-.536-.428-.6-.815A14.078,14.078,0,0,1,62.437,51.7a1.993,1.993,0,0,1-1.118-.633c-2.072-.909-4.475-1.112-6.572-1.9-1.828-.5-3.307-2.907-4.869-4.178a.4.4,0,0,0-.321-.474c.019-.141.013-.4-.159-.45-.028-.881-.127-2.445,1.2-2.164M39.546,27.828c.3.389,1.134.607,1.588.8.042.409.837.521,1.124.641a.394.394,0,0,0,.469.313.671.671,0,0,0,.643.321c.145.225.311.569.635.48A14.321,14.321,0,0,0,45.465,32a.4.4,0,0,0,.317.477c.064.285.119.738.477.8.059.153.1.472.321.47.141.772,1,1.623,1.446,2.383a8.419,8.419,0,0,0,.8,2.08,3.9,3.9,0,0,0,.479,1.526c.233.24.131.958.505,1.05-3.181,2.643.239,5.9,2.535,7.859a18.855,18.855,0,0,0,1.119,4.284,34.525,34.525,0,0,1,.594,5.369c-.619.776-2.744,0-3.454.788-2.633.163-4.556,1.531-6.965,1.926-.234-1.336-.345-3.021-1.12-4.144-.085-.928.229-2.768-.48-3.216-.231-.407-.386-1.324-.8-1.6a2.169,2.169,0,0,0-.64-1.83,9.672,9.672,0,0,1-.64-1.6c-.543-3.8-2.831-9.678-3.63-13.494a38.613,38.613,0,0,1-1.611-4.466c-1.228-1.458-.454-2.655.127-4.279,1.764.172,3.015,1.272,4.7,1.449m-4.8-3.932c-.381.185-.187,1.254-.479,1.523a8.5,8.5,0,0,0-.64,1.831c-2.337,5.092-5.454,7.33-11.106,4.959-.019-.441-1.461-.406-1.518-.822-.442-.127-.573-.66-1.043-.619-1.171-2.218-3.069-.723-.589.414.412.782,1.212.786,1.4,1.193a11.568,11.568,0,0,0,9.186,1.2c-.951,2.148-1.486,4.073-3.04,5.777-1.524,2.613-2.507,2.281-4.334.216-.277.073-.238-.176-.371-.327-.079-.127-.978-.626-.812-.854.037-.183-.857-.8-.959-.918A.4.4,0,0,0,20.12,37a.4.4,0,0,0-.313-.477c-.051-.151-.105-.473-.319-.47-.053-.279-.129-.754-.481-.81-.085-.153-.356-1.486-.647-1.43-.824-1.545-.347-3.886-1.439-5.281-.477-1.678-2.528-.862-3.451-2.143-1.268-.828-1.089-3.232-.377-4.164,1.45-.146,2.109.721,3.149.642,1.024-5.643,2.69-7.424,4.039-10.739,2.173-3.988,2.421-2.771,6.465-1.582a2.924,2.924,0,0,0,1.592.966c.041.411.833.517,1.118.639.061.357.515.413.8.478,1.148,1.331,3.167,2.441,3.692,4.3a22.628,22.628,0,0,1,.8,6.971M12.251,21.707c-.16.511-.562.862-.55,1.553-.874,0-.494-1.122-1.166-1.452a17.89,17.89,0,0,1-.994-4.638c-.049-.571-.076-1.152-.076-1.73s.026-1.158.081-1.725A10.768,10.768,0,0,1,10.9,9.164a14.58,14.58,0,0,1,2.675-3.582.318.318,0,0,0,.175.019c.273-.05.458-.467.671-.687a.34.34,0,0,1,.275-.132,5.393,5.393,0,0,1,1.244-.671,1.241,1.241,0,0,0,.357-.288,11.243,11.243,0,0,1,9.649-.151c.017.246.458.254.627.316a.489.489,0,0,0,.067.151.387.387,0,0,0,.412.164.415.415,0,0,0,.311.321.429.429,0,0,0,.165,0l.049.089c.108.185.267.4.48.405a.35.35,0,0,0,.112-.015,7.445,7.445,0,0,0,1.048.954l.018.016.005.006a1.566,1.566,0,0,1,.291.375c.466.013.645.641,1.052.73,1.207,2.021,2.891,4.511,3.207,7.1a.411.411,0,0,1-.279.032.875.875,0,0,1-.3-.139c-.556-.381-1.162-1.372-1.565-1.608a.4.4,0,0,0-.105-.045.235.235,0,0,1-.114.013c-.237-.037-.281-.5-.551-.493a.2.2,0,0,1-.207-.063.481.481,0,0,1-.093-.159c-.281-.131-.565-.321-.864-.5a3.282,3.282,0,0,0-.949-.409c-.06-.357-.516-.412-.8-.478a.551.551,0,0,0-.142-.213c-.109-.1-.245-.133-.389-.235a.923.923,0,0,1-.219-.22,1.551,1.551,0,0,1-.423-.133,2.925,2.925,0,0,0-1.242-.475c-1.725-.8-2.8-.936-3.7-.411-.053.031-.1.069-.154.1a7.2,7.2,0,0,0-1.865,2.329,22.494,22.494,0,0,1-1.4,2.913,14.069,14.069,0,0,0-.806,1.785,13.391,13.391,0,0,0-1.764,5.927c-1-.183-2.847-.976-3.612-.109M4.986,64.859a.249.249,0,0,0-.226-.171C2.513,58.841.406,51.751,1.71,44.723a15.385,15.385,0,0,1,6.1-12.731,25.636,25.636,0,0,1,4.752-4.224c.777-.6,2.291.535,3.305.541-.02.009.039.565-.023.539-.671.134-.671.924-1.316,1.189a7.485,7.485,0,0,0-1.22,3.149c-.149,4.935-.7,12.823.959,17.355a9.09,9.09,0,0,0,.952,2.54,8.76,8.76,0,0,0,.809,2.259,12.571,12.571,0,0,0,1.44,3.521c-.035.748.736,1.174.807,1.987a5.813,5.813,0,0,0-3.847.96c-.357.206-1.148.145-1.291.64a.676.676,0,0,0-.649.321c-.8.193-1.5.7-2.279.928-.147.021-.212.243-.274.351a.4.4,0,0,0-.477.316c-.406.011-.659.369-1.022.445-.712.613-1.642,1.336-2.532,1.974a4.631,4.631,0,0,1-.917-1.924M7.8,74.288c-.08-.449-.915-.315-1.12-.656.046-.357-.321-.494-.465-.762a12.015,12.015,0,0,1-.655-4.393c.558-.266.782-.913,1.14-1.3.383.148.75-.6.956-.8.324.095.5-.255.635-.477.137-.049.634-.1.691-.264.041-.32.374-.129.5-.359.035-.11.12-.227.255-.181.176.012.252-.191.315-.319a.4.4,0,0,0,.479-.32,10.124,10.124,0,0,0,2.388-1.12c2.406-1.41,5.639-2,7.745-.949.137,2.1,1.145,4.806-1.12,5.815a.406.406,0,0,0-.49.32.4.4,0,0,0-.479.314c-.679.08-.988.555-1.335.646a14.459,14.459,0,0,0-2.71,3.069c.035.435-.5.522-.425.93-.414.171-.4.891-.64,1.28A7.868,7.868,0,0,1,7.8,74.288" transform="translate(-0.167 -0.167)" fill="#486149"/>
        <path id="Path_324" data-name="Path 324" d="M15.96,86.927a3.128,3.128,0,0,0-.639-1.424,3.774,3.774,0,0,0-.8-1.776,17.068,17.068,0,0,1-1.28-7.907,1.8,1.8,0,0,0,.794-.493,2.993,2.993,0,0,1,1.454.846c.718.2,1.172.721,1.908.928.942.362,1.8,1.133,2.777,1.444.141.221.312.568.636.475.2.466.647.472.9.839,2.169.749,3.823,2.323,5.971,3.484a23.087,23.087,0,0,1,.984,3.26c-1.093-.095-.772,1.183-.8,1.845H31.8c.148-.466.114-.92-.48-1.063.114-.511.138-1.337.795-.846,2.835,2.406,8.821,1.408,7.677-3.375a8.185,8.185,0,0,1,2.86,2.165c.133.182.459-.027.477.266.191.471,1.689,1.143,1.375,1.82-2.3-.858-6.756-3.136-3.423,1.032h1.383c-.218-.581-1.049-.557-.906-1.272a8.582,8.582,0,0,1,2.691,1.15c.218.041.715.047,1.13.122h1.5c-1.036-1.035-1.608-2.466-3.087-3.155-.224-.194-.7-1.091-1.094-.927-.131-.183-.291-.567-.583-.48-.235-.131-.321-.6-.7-.479a.409.409,0,0,0-.493-.32c-.533-.6-1.628-.927-1.6-2,1.3.249,1.816,1.384,2.933,1.774.138.219.313.569.635.474.183.219.443.772.817.64.107.467.625.784,1.095.962A14.722,14.722,0,0,0,47.544,88a.523.523,0,0,0,.19.45h1.151a.437.437,0,0,0-.286-.253,9.993,9.993,0,0,0-1.121-2.388,5.752,5.752,0,0,0-.758-1.86c-.085-.233-.231-.443-.51-.379a.4.4,0,0,0-.473-.321,9.561,9.561,0,0,1-2.1-3.586c1.036.113.63-1.124.479-1.765,1.555.072,1.11.163,1.832,1.124a4.4,4.4,0,0,0,2.077,2.573c.287.729.229,3.823,1.6,3.507a13.827,13.827,0,0,1,.62,3.347h1.069a29.679,29.679,0,0,0-.634-4.754c.027-.848.07-6.849-.321-7.345-1.2-1.012-.914-3.578-.8-5.186.442-.617-.09-4.152,0-4.952.489.029.695.554,1.19.491a36.785,36.785,0,0,0,1.12,4.708c.486,1.156-.714,12.5,1.694,10.969A11.928,11.928,0,0,1,55.8,74.06c.313.085.782-.889,1.016-.96a32.364,32.364,0,0,1,5.788-.171c-.183.935-.969,1.514-.982,2.473a3.963,3.963,0,0,0-2.146,1.605,1.38,1.38,0,0,0-.891,1.106.406.406,0,0,0-.319.481c-.121.064-.332.129-.337.3-.068.331,0,1.492-.511,1.546-.121.446-.459.489-.432.875-.22.136-.576.32-.479.643-.371.1-.315.48-.479.742a1.421,1.421,0,0,0-.481.87c-.453.5-1.245.605-1.6,1.048.1.309-.325.259-.321.534.081.263-.344.215-.32.479.047.4-.991.623-.8,1.123a.936.936,0,0,0,.062,1.7h.715a4.648,4.648,0,0,0,1.574-1.428c.429.013.709-.479.957-.8a.4.4,0,0,0,.477-.319c.137.005.327.013.39-.139.127-.419.894-.257,1.035-.659,2.02.169,3.449-1.01,5.521-1.124-.133.713-.5.292-.664.868-.742.191-.547.315-1.2.592-.242.457-.967.516-1.029,1.152a1.1,1.1,0,0,0-.645.806.405.405,0,0,0-.315.49,1.286,1.286,0,0,0-.4.561h1.026a7.394,7.394,0,0,1,.961-1.334c.224-.043.655-1,.928-.894.178.012.251-.191.315-.319a.4.4,0,0,0,.477-.316,1.147,1.147,0,0,0,.86-.484c.27-.175.595-.1.8-.4.193-.836-.4-1.372.828-1.434,1.178-.091,1.508-.727,2.149-1.35.874-2.063.093-5.371-2.068-6.351-.121-1.167.571-2.586-1.3-1.752a.41.41,0,0,0-.319-.5c-.025-.345.143-1.178-.337-1.286-2.124-.137-4.81.318-7.067.341.247-.615-.689-5.831-.6-6.783,2.327-.451,1.463-4.806.972-6.029C56.567,59,55.54,58.621,55,58.6A42.416,42.416,0,0,0,53.4,49.567a52.3,52.3,0,0,0,6.079,1.774c.519.079.982.349,1.5.48a.4.4,0,0,0,.479.32.409.409,0,0,0,.493.319c0,.363.348.369.639.505A6.633,6.633,0,0,0,63.7,54.394c-.005.347.613.88.6,1.337a1.075,1.075,0,0,1,.486.788c.358.226.385.649.611.964.277.131.506.84.663,1.129.411.259.27.573.677.741-.12.372.358.359.321.645-.012.177.191.252.319.315a.4.4,0,0,0,.317.477c.07.171.061.609.313.627.069.271.182.588.49.657a2.69,2.69,0,0,0,.408.843c.332.047.144.356.344.513.352.1.313.441.507.632.295.042.087.359.293.488.339.1.334.4.462.642.636.461,1.24,1.545,1.98,2,.175.2.431.763.794.628a.4.4,0,0,0,.476.319c.263.572.96.662,1.228,1.212a3.307,3.307,0,0,1,1.01.549,17.572,17.572,0,0,0,1.729.453c1.155.076,2.661-.816,3.718-.453.058.327.4.35.668.32a2.108,2.108,0,0,0,1.423.32c1.612,5.988,2.2,12.068,4,17.82a1.457,1.457,0,0,0-.683.087h3.193c.8-.577-.4-.99-1.61-.557-1.808-5.235-2.452-10.863-3.842-16.335-.068-.763-.036-1.2.8-1.326.277-.661,1.341-.8,1.435-1.594a18.844,18.844,0,0,0,3.352-3.672c.439-.8,1.808-1.507,2.244-2.4.912-.6,1.387.965,1.986,1.271.138.473.633,1.106,1.2.944.373.015.493-1.236.668-1.436.515-.183.371-.952.8-1.2.153-.329.491-.658.458-1.064.133-.215.407-.365.481-.6.286-.83.8-1.736,1.119-2.578a8.853,8.853,0,0,0,1.291-3.221,17.156,17.156,0,0,0,1.27-2.717,10.293,10.293,0,0,0,1.13-3.043c.247-.521,1.184-1.864.463-2.313-.759-.053-1.214,2.09-1.379,2.743a9.838,9.838,0,0,0-.948,2.378c-.358.085-.425.971-.639,1.21-.137.388-.515.728-.481,1.207a7.93,7.93,0,0,0-.964,2.543c-1.034,1.411-1.592,3.686-2.747,5.057-.69,2.489-1.29.887-2.6.047-.037-.485.075-1.03-.411-.946a3.837,3.837,0,0,1-2.7-1.047c-.407-.165-.942-.2-1.157-.626a15.368,15.368,0,0,0-1.656-.727c-.321-.468-1.294-.577-1.762-.8-.243-.609-2.3-.274-1.4-1.384a10.22,10.22,0,0,0,1.24-2.293c1.231-2.261,2.353-5.779,3.52-8,.163-.363,3.013-7.391,1.124-5.137-.643,1.65-1.338,3.343-1.858,4.974a12.293,12.293,0,0,0-1.28,2.72c-.826,1.13-1.04,2.594-1.608,3.842A11.458,11.458,0,0,0,84.5,54.588a1.469,1.469,0,0,0-.485.97.4.4,0,0,0-.315.477.41.41,0,0,0-.319.493c-.23-.008-.269.332-.333.488-1.758-3.618.836-11.412,1.608-15.072-2.241-.146-2.793,11.993-3.2,14.115-5.793-2.6-1.85-5.4-1.016-9.858,1.325-2.309,1.905-5.127,3.436-7.405.6-1.939,2.088-2.146,4.131-2.011.267.447.1,1.2.651,1.247,1.722-.75,3.015-1.882,4.554-2.528,1.74-.039,3.555-1.382,5.363-.64a8.975,8.975,0,0,0,2.721,1.12c.726.557,2.654,1.594,2.991,2.649a2.188,2.188,0,0,1,.815,1.248c.038.228.436.175.353.441-.023.264.4.216.319.479.52.5.275,1.76.96,2.223A40.079,40.079,0,0,1,109.3,53.285c2.625,9.2,3.676,17.8,6.872,26.514a6.918,6.918,0,0,0,.969,2.723,7.612,7.612,0,0,0,.951,2.4,12.054,12.054,0,0,0,.97,2.809.973.973,0,0,0,.115.274.916.916,0,0,0,.1.125.88.88,0,0,0,.067.081.791.791,0,0,0,.2.129l0,0a.555.555,0,0,0,.194.049c.261.014.451-.214.253-.774-.95-1.789-1.209-3.934-2.282-5.686-.659-1.917-1.166-4.25-1.918-6.027-1.06-3.547-1.754-7.419-2.88-10.879-.853-5.887-2.9-12.432-4-18.166-.484-.962-.6-2.268-1.277-3.15-.354-.806.38-1.5-.323-2.043a1.912,1.912,0,0,0-.3-.739.205.205,0,0,1-.181-.255c.012-.177-.192-.253-.321-.316a.4.4,0,0,0-.315-.475c-.055-.247-.13-.771-.485-.8a.405.405,0,0,0-.319-.481,6.146,6.146,0,0,0-2.861-2.867,5.133,5.133,0,0,1-3.219-3.343c-.429-1.844-1.374-3.333-1.6-5.54,2.754,1.648,6.792,1.94,9.35.657,2.063-.918,1.022-4.218.091-5.533-.425-.962-.872-2.517-2.062-2.879-.321-.627-1.041-.792-1.366-1.34-.45-.176-1.351-1.117-1.852-1.42,1.387-4.088.351-9.286-3.031-11.812-.275-.42-.992-1.106-1.436-1.107-.036-.427-.868-.529-1.157-.657A3.807,3.807,0,0,0,94.5,2.129,25.394,25.394,0,0,0,87.951.5c-1.856.1-3.6.485-4.74,1.785-.614-.063-1.266.9-1.605,1.284-.406-.173-.888.772-1.119.96-.247-.055-.417.127-.507.339C78.737,5.624,77.536,8.039,75.9,8A32.412,32.412,0,0,1,71.279,9.46,4.577,4.577,0,0,0,69.3,11.89c-1.794,2.058-.842,7.512.96,9.067.2.749,2.094,1.868,2.547,2.711,4.418,1.913,3.994,7.65,8.081,10.132,1.52.677,2.253,1.764,4.584,1.7-.136.843-.5.163-.653.707-.433-.107-.8.589-.96.891-.117.167-.417.248-.319.566a9.892,9.892,0,0,0-1.44,2.7,3.606,3.606,0,0,0-.808,1.94,5.478,5.478,0,0,0-.793,1.9,12.672,12.672,0,0,0-1.28,2.969A19.164,19.164,0,0,0,78.1,50.451c-.808.323-.009,3.426-1.561,1.5-.448.007-.667-.475-.965-.735-.944-.466-3.156-3.157-4.1-3.828-.113-.375-.205-.778-.639-.956a.4.4,0,0,0-.313-.475c-.048-.153-.111-.48-.327-.47-.523-1.523-.775-4.04-1.76-5.28-.457-1.319-2.464-4.056-3.981-4.47.026-.395.2-.976-.489-1.023-.437.071-.581-.965-.726-1.194-.124-.371-.956.041-1.2-.055.408-2.519-1.135-2.233-1.853-.3H59.8c-1.513-2.061-2.293-1.775-1.21.8-1.492.2-3.635,1-3.843,2.4-.916.776-.166,2.885-.643,3.818-1.3.086-2.014-.45-3.405.355-1.051-1.975-1.525-4.509-2.716-6.174-.289-.081-.115-.52-.5-.57a.4.4,0,0,0-.315-.479c-.079-.3-.113-.729-.485-.8.052-.384-.5-.577-.451-1.026a2.3,2.3,0,0,1-.645-.8c-.366-.125-.645-1.029-1.127-.879-.112-.131-.246-.492-.453-.479-.288.09-.233-.334-.505-.321-.3.013-.461-.453-.834-.32a1.853,1.853,0,0,0-1.091-.645c-.257-.488-.923-.517-1.382-.794a41.838,41.838,0,0,0-4.873-1.609c.051-.25.1-1.952.379-2.022a28.749,28.749,0,0,0-1.015-7.232,11.276,11.276,0,0,0-1.6-6.737A6.349,6.349,0,0,0,31.32,6.86c-.159-.289-.521-.995-.943-.892-.229-.194-.721-1.126-1.121-.96-.181-.209-.435-.767-.8-.639-.207-.458-.641-.49-.918-.832-.685-.161-1.614-1.07-2.459-1.087C22.8,1.275,18.5,1.62,16.346,2.93c-.712.117-1.264.79-2.01.928a12.152,12.152,0,0,0-1.681,1.624c-.607.533-1.614,1.36-1.754,2.078-.36.061-.413.516-.477.8-.545.314-.721,1.207-.974,1.794-1.386,3.619-1.12,9.257.818,12.548.363.821.653,1.907,1.437,2.413a5.067,5.067,0,0,0,.82,1.792,22.873,22.873,0,0,0-5.637,4.822c-.4-.231-1.194,1.12-1.432,1.271a10.106,10.106,0,0,0-2.709,3.294C.322,42.037-.107,50.053,1.3,56.281a16.661,16.661,0,0,0,1.438,4.959,19.281,19.281,0,0,0,1.918,4.975c.8,1.172.15,2.251.119,3.626.455.875.083,2.933,1.172,3.592-.124.357.383.38.319.674A2.96,2.96,0,0,0,8.2,75.179c1.126.815,2.907.447,4.282.8-.016,1.83-.1,5.869,1.14,7.356a21.573,21.573,0,0,0,1.92,4.321,5.923,5.923,0,0,1,.3.788h.932C16.446,88.028,16.41,87.182,15.96,86.927ZM45.4,84.14c.694-.159.77.311.706.876C45.566,84.895,45.306,84.665,45.4,84.14Zm15.9-.908c-.293.617-1.189.281-1.434.814a9.528,9.528,0,0,0-3.121.619c-.125.376-.832.161-.891.661-.563.053-.868.746-1.494.813-.3-1.108,1.388-1.125,1.76-1.952.123-.332.575-.7.645-1.318a.4.4,0,0,0,.315-.477c.7-.475.918-1.364,1.648-1.947A5.283,5.283,0,0,0,61.32,83.2Zm2.033-6.8a3.726,3.726,0,0,0,.429.172c.485,1.749.746-1.244,2.522.872,3.073,5.923-6.549,7.319-6.963,1.268l-.006-.039C59.969,77.713,61.894,75.288,63.331,76.427Zm24.2-40.373c-.045-.011-.85-.157-.863-.183.045-.685.621-.545,1.044-.355Zm11.3-13.286a6.156,6.156,0,0,0,.083-.744,2.709,2.709,0,0,0-2.539-3.266A4.212,4.212,0,0,0,93.413,19.9c-.091-.133-.322-.624-.615-1.237-.117-.245-.245-.51-.377-.779-.066-.135-.133-.27-.2-.4-.543-1.078-1.123-2.1-1.419-2.107-.161-.116-.433-.249-.513-.487-.165-.115-.386-.135-.529-.282a.471.471,0,0,1-.112-.2c-.539-.233-.886-.651-1.542-.762a2.179,2.179,0,0,0-1.266-.259c-.165,0-.335.015-.506.029a9.054,9.054,0,0,1-1.9.08c-.121-.319-.613-.239-.8-.535a.469.469,0,0,1-.062-.152,2.809,2.809,0,0,0-1.991-.621.988.988,0,0,0-.251.3c-.161.273-.251.565-.625.566a1.051,1.051,0,0,1-.263-.037.255.255,0,0,0-.127-.241c-.95-.688-1.8-1.122-2.785-.758a2.788,2.788,0,0,0-.433.207c-.519-.435-.213-1,.22-1.5.087-.1.179-.2.27-.3l.011-.011a8.777,8.777,0,0,0,.62-.661c.2-.067.908-.031.94-.322,2.08-.867,4.256,1.214,6.327.96a5.448,5.448,0,0,0,1.16.217c.309.032.632.057.948.087a8.194,8.194,0,0,1,1.254.183,11.929,11.929,0,0,0,1.888.673,4.723,4.723,0,0,0,.491.121c.285.4,1.138.61,1.59.8.119.321.485.4.788.561a.761.761,0,0,1,.411.454c.521.03.663.792,1.2.74.095.085.235.315.393.509s.335.352.5.291a.123.123,0,0,1,.092.061.46.46,0,0,1,.036.057l.005.01v0c.009.019.017.037.023.051.136.137.347.163.494.291a.422.422,0,0,1,.137.217,2.207,2.207,0,0,1,.223.1,1.216,1.216,0,0,1,.576.55,1.174,1.174,0,0,1,.253.121,11.466,11.466,0,0,1,1.851,1.87,1.846,1.846,0,0,1,.544,1.372,4.172,4.172,0,0,1-.1,1.073c-.211.956-.731,1.831-1.4,1.97Zm3.573-4.866c.143.224.31.573.637.481.211.2.571.947.961.8a8.761,8.761,0,0,0,1.61,1.453c.095.162.2.977.486.946.157.282.286,1.162.639,1.28.75,1.954.97,4.33-1.857,4.2a8.211,8.211,0,0,1-4.146.028c-.674-.495-2.3-.554-2.543-1.5a.706.706,0,0,0,.646-.637c.443-.221.5-.574.794-.955.089-.3.511-.5.492-1,.215-.292.566-.5.468-.954a3.834,3.834,0,0,0,.4-3.65c-.447-.656-1.513-1.387-1.676-2.257,1.263.033,1.33,1.276,2.454,1.287C101.915,17.652,102.081,17.993,102.409,17.9ZM78.838,7.041c1.329-1.308,2.834-2.339,4.018-3.7a.4.4,0,0,0,.475-.321c.367.125.363-.361.645-.319.177.013.252-.191.315-.319a.4.4,0,0,0,.478-.316c.163-.059.625-.071.627-.324,3.507-.675,7.729.718,10.879,1.92.343.045.451.545.854.48.133.229.321.567.639.479.555.867,1.9,1.75,2.256,2.578,1.566,2.2,1.618,5.686,1.115,8.371a2.827,2.827,0,0,1-1.915-1.046c-.047-.123-.586-.2-.7-.243a.4.4,0,0,0-.477-.315.4.4,0,0,0-.482-.32c-.059-.364-.513-.417-.8-.483-.147-.234-.309-.564-.641-.476-1.112-1.124-3.039-1.684-4.671-2.088a7.625,7.625,0,0,0-2.542-.953c-.171-.314-.8-.44-1.134-.479a2.272,2.272,0,0,0-1.429-.48,13.05,13.05,0,0,0-3.678-.96C81.919,6.846,78.548,8.327,78.838,7.041ZM75.7,24.213c-1.036-.016-.525-.592-1.062-.8-1.315.268-4.249-3.524-4.764-4.318-1-3.477-1.194-5.991,1.438-8.7a35.469,35.469,0,0,1,6.946-1.767c-.02.02.033.407-.024.387-.734.149-.9.716-1.436,1.039a2.358,2.358,0,0,1-.647.8c.025.377-.332.6-.451.862a2.089,2.089,0,0,0-.169,1.638c-.386.617-.252,1.534-.679,2.118C74.5,18.771,75.924,21.18,75.7,24.213ZM82.6,33.787c-4.517-2.464-6.389-7.373-6.32-12.8-.992-1.25-.507-6.27.063-7.759.493-.417,1.632.533,1.7-.612,1.472.093,3.207,2.776,3.993.313,3,2.155,2.827,1.049,6,1.45.255.162.414.524.772.481a.4.4,0,0,0,.475.32c.137.221.321.575.643.479.022.313.758.788.969.973.087.161.2.979.483.946.293.531.489,1.5.96,1.92.377,1.481.924,4.54,1.853,1.122,1.9-2.021,4.328-.8,3.746,2.289-.069,1.082-4.9,3.885-1.283,3.3.35,3.168,1.644,5.011,2.247,7.755l-.039,0a5.816,5.816,0,0,0-4.427.479c-1.627-.1-4.038,1.556-5.513,2.405-.755-1.668-.778-1.947.843-2.861.625-1.489-1.792-.037-2.087.293C86.4,34.772,83.631,34.844,82.6,33.787ZM29.56,87.333l1.035.171C30.53,88.49,29.376,88.143,29.56,87.333Zm-.9-4.072c-.4-.383-.827-1.148-1.494-1.139a.4.4,0,0,0-.473-.316c-.145-.225-.315-.573-.643-.479-.269-.536-1.042-.771-1.6-.968-.116-.457-.752-.409-1.06-.633-.341-.075-.6-.565-1.029-.48-.017-.31-.489-.209-.557-.5-.106-.233-.437-.028-.48-.317-.107-.233-.439-.031-.481-.323-.107-.233-.437-.029-.479-.32a29.3,29.3,0,0,0-3.6-1.739c-1.419-1.008-3.2-1.175-1.248-3.207-.057-.559.666-.665.608-1.159.232-.33.68-.344.861-.659.547-.336,1.134-1.409,1.929-1.4a5.041,5.041,0,0,1,1.906-1.166c.061.4.183.779.642.814A3.194,3.194,0,0,0,23.04,70.7a19.812,19.812,0,0,0,2.443,2.458c2.167,1.99,4.255,4.362,7.512,5.229-.151.986-.859.233-1.13.858-1.67.283-2.349,3.2-1.44,4.572a17.862,17.862,0,0,0,.491,2C29.784,88.61,29.032,84.023,28.663,83.261ZM39.054,85c-1.17,2.751-4.954,2.277-6.758.569-1.223-1.054-2.165-4.348-.427-5.334.576-.719,2.417-.906,3.027.077.437.2-.215,1.894.634,1.91.89-.62.956-2,2.124-.585C38.98,81.809,39.1,83.929,39.054,85Zm8.11-5.282c-.068-.289-.121-.74-.486-.8a.676.676,0,0,0-.319-.647c.1-.306-.226-.365-.32-.53-.218-.485-.526-1.408-1.275-1.126-.453.325-.972-.642-1.4-.077-.152.3-.4,1.488.045,1.836-.017.111-.147.149-.172.255-2.691-1.022-.906.819-.379,1.765a13.088,13.088,0,0,1,1.819,3.184c-1.055-.006-1.455-1.114-2.3-1.287a.405.405,0,0,0-.479-.321c-.123-.457-.616-.385-.76-.713a2.717,2.717,0,0,0-.843-.407.4.4,0,0,0-.48-.319.448.448,0,0,0-.488-.338c-.12-.347-.517-.352-.8-.462-.239-.624-.862-.145-1.3-.159-.362-.417.5-2.389-.777-2.129l.043.247c-.377-.661-.417.691-1,.441-.157-.635-1.361-.1-1.7-.479-.706-.16-2.135-.432-2.575-1.034-.269-.3-1.133-.271-1.244-.776-.218-.146-.542-.141-.641-.48A10.758,10.758,0,0,1,26.693,73c-1.7-1.1-2.882-2.986-4.635-4-.02-.309-.4-.988-.031-1.2,1.246.061.719-.878-.147-.912-.133-5.791.133-4.588-2.679-6.206-.109-.311-.649-1.919-1-1.989-.22-.245-.275-1.116-.639-1.21-.334-1.768-1.448-3.288-1.764-5.195,4.241,1.387,2.666-3.666-.956-2.157-1.074-5.173-1.041-11.781-.64-17.285.075-.531.371-.995.481-1.527.159-.255.52-.411.479-.766.594-.2.439-1.092,1.187-.977-.272,6.239-.459,12.6,1.759,17.759,1.926,3.639,8.879.92,12.334,1.293,4.194-1.784,3.734-2.713,3.119-6.968a64.723,64.723,0,0,0-1.126-10.483c.661-.193.263-1.5,1.183-1.28.7,2.105,2.531,7.156,2.715,9.056,1.871,4.6,2.447,10.8,4.974,14.462a8.191,8.191,0,0,1,.32,2.95c.5,1.13.706,2.391,1.12,3.647-.071,1.064-.731.88-.8,1.807-.771.8-.381,2.948.16,3.74-.06,2.2,1.836,2.711,3.68,2.736a11.757,11.757,0,0,0,.639,2.544A91.294,91.294,0,0,0,47.8,80.336C47.536,80.1,47.3,79.856,47.164,79.716ZM16.426,51.408c.115-.756.584-.673,1.047-.208C17.365,52.044,16.876,51.595,16.426,51.408Zm3.119-13.784c.161.34.517.419.57.851.771.353,1.017,1.565,1.813,1.667.279.543,1.069.94,1.367,1.328.638.479,1.21,1.188,2.2.846a12.387,12.387,0,0,0,3.747-5.053,18.357,18.357,0,0,0,2.082-4.811c.258.031.312.177.543.171.377,2.354.371,5.563.8,7.822.021,1.785.351,3.714.319,5.509a2.767,2.767,0,0,0-.975.974c-.465.016-.884.427-1.247.64a32.871,32.871,0,0,1-6.167.481c-2.412.707-5.737.348-6.4-2.4a74.142,74.142,0,0,1-1.282-12.226c.6-.153.415.457.708.709.4.8.82,1.731,1.242,2.562.05.209.441.167.357.426C19.21,37.388,19.639,37.338,19.546,37.624ZM49.453,76.438c.477-.024.315,7.026.332,7.46-.719.109-.726-2.7-1.109-2.957a1.712,1.712,0,0,1-.281-.155c.073-2.038-1.717-11.821-1.88-11.933-.32-1.131,1.823-.574,2.311-.711C49.194,70.8,47.593,74.45,49.453,76.438Zm6.253-4.075a1.617,1.617,0,0,0,.353.1c-.387,1.12-1.384,1.75-1.992,2.555-.241.3-.519,2.8-1.307,2.311L52.6,74.7c.647-1.507,0-3.922-.476-5.193-1.358-2.779.077-3.2,2.626-3.6C55.451,67.768,54.869,70.492,55.706,72.363Zm0-12.7c1.321,4.894.539,5.214-4.064,5.987-.471-1.295.01-3.173-.661-4.04-.982-.476-.769,1.664-.876,2.12-.648.18-.449-.545-.774-.848-.323-.183-.4-.741-.891-.929-.232-1.686-1.278.513-.948,1.334a13.835,13.835,0,0,1,1.179,3.962H46.2a.371.371,0,1,0-.742,0,3.805,3.805,0,0,1-2.137-.345c-1.862-4.728-1.031-4.675,3.035-5.959a26.163,26.163,0,0,1,8.087-1.44C54.5,59.8,55.512,59.611,55.7,59.661ZM55.12,37.744c.094-2.126,3.075-3.435,5.051-2.7.989-.533,1.782.441,2.733.619.668.263.463,3.331.469,3.951a11.789,11.789,0,0,1,.653,2.677C60.7,41.835,54.037,42.324,55.12,37.744Zm3.654,4.936c.623-.079,5.747.949,6.3.233-.165-1.863-1.411-4.328-.639-6.143,1.213.377,1.414,1.51,2.3,2.1.067.274.178.565.479.639.072.3.115.732.482.8.766,1.508,1.263,3.817,1.917,5.6a48.105,48.105,0,0,0,4.723,5.445c.533.081.924,1.151,1.5,1.1.2.092,2.231,2.7,2.562,2.4.171.215.446.766.8.64a.4.4,0,0,0,.476.319c.129.225.326.568.642.483a5.129,5.129,0,0,0,2.92,1.964c1.022-.907,2.4.339,3.515.605.379.329,1.433.622,1.806,1.034.165.152.435-.031.491.254a9.912,9.912,0,0,1,1.126.619c.271-.1.293.257.457.371.419.191,1.562.514,1,.978a23.253,23.253,0,0,1-1.97,1.859c-.107.419-.494.657-.692.978-.369.852-2.2,2.34-2.9,3.127-1.615,2.777-4.548,1.177-6.4-.5-.509-.6-1.611-1.509-2.279-2.122.171-.387-.765-.9-.954-1.115a.748.748,0,0,0-.485-.639c.127-.367-.428-.621-.64-.8.127-.364-.429-.618-.639-.8.094-.328-.259-.5-.479-.64.153-.455-.563-.459-.481-.844A17.512,17.512,0,0,0,71.8,58.589c.125-.364-.43-.617-.64-.8.124-.379-.39-.36-.32-.674-.089-.361-.779-.527-.764-.981a1.124,1.124,0,0,1-.456-.659,1.335,1.335,0,0,1-.64-.8c-.073-.1-.679-.389-.541-.589-.173-.339-.493-.425-.591-.849-.327-.1-.337-.421-.479-.64-.252-.174-1.043-.58-.954-1-.441-.416-.458-1.354-1.014-1.642a2.545,2.545,0,0,0-2.417-1.588c-1.725-.6-4.177-.439-6.065-.64-.838-.462-2.124-.834-3.021-1.282a4.721,4.721,0,0,0-1.3-1.293C48.959,38.917,55.426,41.274,58.773,42.681ZM50.6,41.9c.848,6.759,6.874,6.738,12.3,7.2.194.321.88.369,1.27.481a1.106,1.106,0,0,0,.647.812c.079.551.477.882.642,1.336a10.478,10.478,0,0,0,.758,1.586c.611.165,1.392.536,1.482,1.117.227.365.733.687.887,1.126.323.137.261.637.712.758-.095.326.259.5.481.64-.094.325.259.5.479.64-.123.375.381.362.321.666.163.339.514.423.573.851a1.774,1.774,0,0,1,.8.96c.594.3.764,1.069,1.346,1.364-.157.441.546.465.48.824,1.762,2.08,3.449,4.756,5.928,6.368l-.009.034c-.449,1.121-2.83.712-3.77.167a3.466,3.466,0,0,1-.843-.849c-.228-.113-.545-.135-.642-.463-.864-.3-1.8-1.578-2.65-2.209.127-.363-.431-.618-.64-.8.091-.329-.258-.494-.481-.638.091-.33-.255-.5-.479-.64.091-.329-.256-.5-.479-.641a.4.4,0,0,0-.32-.476c.02-.2-.03-.387-.25-.437-.369-.371-.351-1.1-.865-1.322-.081-.3-.111-.731-.486-.8.045-.353-.312-.45-.43-.878-.427-.126-.283-.606-.684-.721-.081-.269-.1-.724-.447-.783-.094-.286-.147-.752-.511-.818-.137-.295-.218-1.072-.641-1.119,0-.575-.593-.8-.617-1.348-.247-.275-.536-.428-.6-.815A14.078,14.078,0,0,1,62.437,51.7a1.993,1.993,0,0,1-1.118-.633c-2.072-.909-4.475-1.112-6.572-1.9-1.828-.5-3.307-2.907-4.869-4.178a.4.4,0,0,0-.321-.474c.019-.141.013-.4-.159-.45C49.372,43.184,49.272,41.62,50.6,41.9ZM39.546,27.828c.3.389,1.134.607,1.588.8.042.409.837.521,1.124.641a.394.394,0,0,0,.469.313.671.671,0,0,0,.643.321c.145.225.311.569.635.48A14.321,14.321,0,0,0,45.465,32a.4.4,0,0,0,.317.477c.064.285.119.738.477.8.059.153.1.472.321.47.141.772,1,1.623,1.446,2.383a8.419,8.419,0,0,0,.8,2.08,3.9,3.9,0,0,0,.479,1.526c.233.24.131.958.505,1.05-3.181,2.643.239,5.9,2.535,7.859a18.855,18.855,0,0,0,1.119,4.284,34.525,34.525,0,0,1,.594,5.369c-.619.776-2.744,0-3.454.788-2.633.163-4.556,1.531-6.965,1.926-.234-1.336-.345-3.021-1.12-4.144-.085-.928.229-2.768-.48-3.216-.231-.407-.386-1.324-.8-1.6a2.169,2.169,0,0,0-.64-1.83,9.672,9.672,0,0,1-.64-1.6c-.543-3.8-2.831-9.678-3.63-13.494a38.613,38.613,0,0,1-1.611-4.466c-1.228-1.458-.454-2.655.127-4.279C36.609,26.551,37.86,27.651,39.546,27.828Zm-4.8-3.932c-.381.185-.187,1.254-.479,1.523a8.5,8.5,0,0,0-.64,1.831c-2.337,5.092-5.454,7.33-11.106,4.959-.019-.441-1.461-.406-1.518-.822-.442-.127-.573-.66-1.043-.619-1.171-2.218-3.069-.723-.589.414.412.782,1.212.786,1.4,1.193a11.568,11.568,0,0,0,9.186,1.2c-.951,2.148-1.486,4.073-3.04,5.777-1.524,2.613-2.507,2.281-4.334.216-.277.073-.238-.176-.371-.327-.079-.127-.978-.626-.812-.854.037-.183-.857-.8-.959-.918A.4.4,0,0,0,20.12,37a.4.4,0,0,0-.313-.477c-.051-.151-.105-.473-.319-.47-.053-.279-.129-.754-.481-.81-.085-.153-.356-1.486-.647-1.43-.824-1.545-.347-3.886-1.439-5.281-.477-1.678-2.528-.862-3.451-2.143-1.268-.828-1.089-3.232-.377-4.164,1.45-.146,2.109.721,3.149.642,1.024-5.643,2.69-7.424,4.039-10.739,2.173-3.988,2.421-2.771,6.465-1.582a2.924,2.924,0,0,0,1.592.966c.041.411.833.517,1.118.639.061.357.515.413.8.478,1.148,1.331,3.167,2.441,3.692,4.3A22.628,22.628,0,0,1,34.745,23.9ZM12.251,21.707c-.16.511-.562.862-.55,1.553-.874,0-.494-1.122-1.166-1.452a17.89,17.89,0,0,1-.994-4.638c-.049-.571-.076-1.152-.076-1.73s.026-1.158.081-1.725A10.768,10.768,0,0,1,10.9,9.164a14.58,14.58,0,0,1,2.675-3.582.318.318,0,0,0,.175.019c.273-.05.458-.467.671-.687a.34.34,0,0,1,.275-.132,5.393,5.393,0,0,1,1.244-.671,1.241,1.241,0,0,0,.357-.288,11.243,11.243,0,0,1,9.649-.151c.017.246.458.254.627.316a.489.489,0,0,0,.067.151.387.387,0,0,0,.412.164.415.415,0,0,0,.311.321.429.429,0,0,0,.165,0l.049.089c.108.185.267.4.48.405a.35.35,0,0,0,.112-.015,7.445,7.445,0,0,0,1.048.954l.018.016.005.006a1.566,1.566,0,0,1,.291.375c.466.013.645.641,1.052.73,1.207,2.021,2.891,4.511,3.207,7.1a.411.411,0,0,1-.279.032.875.875,0,0,1-.3-.139c-.556-.381-1.162-1.372-1.565-1.608a.4.4,0,0,0-.105-.045.235.235,0,0,1-.114.013c-.237-.037-.281-.5-.551-.493a.2.2,0,0,1-.207-.063.481.481,0,0,1-.093-.159c-.281-.131-.565-.321-.864-.5a3.282,3.282,0,0,0-.949-.409c-.06-.357-.516-.412-.8-.478a.551.551,0,0,0-.142-.213c-.109-.1-.245-.133-.389-.235a.923.923,0,0,1-.219-.22,1.551,1.551,0,0,1-.423-.133,2.925,2.925,0,0,0-1.242-.475c-1.725-.8-2.8-.936-3.7-.411-.053.031-.1.069-.154.1a7.2,7.2,0,0,0-1.865,2.329,22.494,22.494,0,0,1-1.4,2.913,14.069,14.069,0,0,0-.806,1.785,13.391,13.391,0,0,0-1.764,5.927C14.859,21.634,13.016,20.84,12.251,21.707ZM4.986,64.859a.249.249,0,0,0-.226-.171C2.513,58.841.406,51.751,1.71,44.723a15.385,15.385,0,0,1,6.1-12.731,25.636,25.636,0,0,1,4.752-4.224c.777-.6,2.291.535,3.305.541-.02.009.039.565-.023.539-.671.134-.671.924-1.316,1.189a7.485,7.485,0,0,0-1.22,3.149c-.149,4.935-.7,12.823.959,17.355a9.09,9.09,0,0,0,.952,2.54,8.76,8.76,0,0,0,.809,2.259,12.571,12.571,0,0,0,1.44,3.521c-.035.748.736,1.174.807,1.987a5.813,5.813,0,0,0-3.847.96c-.357.206-1.148.145-1.291.64a.676.676,0,0,0-.649.321c-.8.193-1.5.7-2.279.928-.147.021-.212.243-.274.351a.4.4,0,0,0-.477.316c-.406.011-.659.369-1.022.445-.712.613-1.642,1.336-2.532,1.974A4.631,4.631,0,0,1,4.986,64.859ZM7.8,74.288c-.08-.449-.915-.315-1.12-.656.046-.357-.321-.494-.465-.762a12.015,12.015,0,0,1-.655-4.393c.558-.266.782-.913,1.14-1.3.383.148.75-.6.956-.8.324.095.5-.255.635-.477.137-.049.634-.1.691-.264.041-.32.374-.129.5-.359.035-.11.12-.227.255-.181.176.012.252-.191.315-.319a.4.4,0,0,0,.479-.32,10.124,10.124,0,0,0,2.388-1.12c2.406-1.41,5.639-2,7.745-.949.137,2.1,1.145,4.806-1.12,5.815a.406.406,0,0,0-.49.32.4.4,0,0,0-.479.314c-.679.08-.988.555-1.335.646a14.459,14.459,0,0,0-2.71,3.069c.035.435-.5.522-.425.93-.414.171-.4.891-.64,1.28A7.868,7.868,0,0,1,7.8,74.288Z" transform="translate(-0.167 -0.167)" fill="none" stroke="#486149" stroke-miterlimit="10" stroke-width="1"/>
        <path id="Path_325" data-name="Path 325" d="M118.841,118.7c.545-2.179-1.572-2.683-2.109-4.686.151-1.83-2.771-1.539-2.743.174-.1,1.29-.12,4.784-.231,5.985.294.335.166,1.19.818,1.05.283.137.461.58.784.64.321,1.264.784,2.649,1.118,3.909.018.024.033.053.05.079h.868a.924.924,0,0,0-.183-.224,30.333,30.333,0,0,0-1.256-4.4c.008-.19-1.195-.8-1.306-.909.153-.182.042-6.585.5-6.61,1.336-.218.659,2.679,2.611,3.215.746.93-.441,2.367.313,3.183.078.2.054.789.3.856,1.642.244,1,3.59.984,4.893h1.049c-.09-.077-.156-.133-.168-.141,1.077-6.294-1.6-3.75-1.4-7.01" transform="translate(-37.902 -37.572)" fill="#486149"/>
        <path id="Path_326" data-name="Path 326" d="M118.841,118.7c.545-2.179-1.572-2.683-2.109-4.686.151-1.83-2.771-1.539-2.743.174-.1,1.29-.12,4.784-.231,5.985.294.335.166,1.19.818,1.05.283.137.461.58.784.64.321,1.264.784,2.649,1.118,3.909.018.024.033.053.05.079h.868a.924.924,0,0,0-.183-.224,30.333,30.333,0,0,0-1.256-4.4c.008-.19-1.195-.8-1.306-.909.153-.182.042-6.585.5-6.61,1.336-.218.659,2.679,2.611,3.215.746.93-.441,2.367.313,3.183.078.2.054.789.3.856,1.642.244,1,3.59.984,4.893h1.049c-.09-.077-.156-.133-.168-.141C121.314,119.418,118.642,121.962,118.841,118.7Z" transform="translate(-37.902 -37.572)" fill="none" stroke="#486149" stroke-miterlimit="10" stroke-width="1"/>
        <path id="Path_327" data-name="Path 327" d="M103.328,130.153c-2.01-.623-2.869-.271-3.143.523h8.477c-1-2.993-4.644-5.685-5.335-.523" transform="translate(-33.379 -42.395)" fill="#486149"/>
        <path id="Path_328" data-name="Path 328" d="M103.328,130.153c-2.01-.623-2.869-.271-3.143.523h8.477C107.659,127.683,104.018,124.991,103.328,130.153Z" transform="translate(-33.379 -42.395)" fill="none" stroke="#486149" stroke-miterlimit="10" stroke-width="1"/>
        <path id="Path_329" data-name="Path 329" d="M50.009,21.209a.415.415,0,0,0,.279-.031.415.415,0,0,1-.279.031" transform="translate(-16.662 -7.056)" fill="#486149"/>
        <path id="Path_330" data-name="Path 330" d="M50.009,21.209a.415.415,0,0,0,.279-.031A.415.415,0,0,1,50.009,21.209Z" transform="translate(-16.662 -7.056)" fill="none" stroke="#486149" stroke-miterlimit="10" stroke-width="1"/>
        <path id="Path_331" data-name="Path 331" d="M43.045,8.355A7.411,7.411,0,0,1,42,7.4a7.374,7.374,0,0,0,1.049.953" transform="translate(-13.992 -2.466)" fill="#486149"/>
        <path id="Path_332" data-name="Path 332" d="M43.045,8.355A7.411,7.411,0,0,1,42,7.4,7.374,7.374,0,0,0,43.045,8.355Z" transform="translate(-13.992 -2.466)" fill="none" stroke="#486149" stroke-miterlimit="10" stroke-width="1"/>
        <path id="Path_333" data-name="Path 333" d="M21.044,7.119c-.213.219-.4.637-.671.687.273-.05.458-.467.671-.687" transform="translate(-6.788 -2.372)" fill="#486149"/>
        <path id="Path_334" data-name="Path 334" d="M21.044,7.119c-.213.219-.4.637-.671.687C20.646,7.756,20.831,7.338,21.044,7.119Z" transform="translate(-6.788 -2.372)" fill="none" stroke="#486149" stroke-miterlimit="10" stroke-width="1"/>
        <path id="Path_335" data-name="Path 335" d="M45.957,17.788a.2.2,0,0,1-.207-.063.2.2,0,0,0,.207.063c.27-.005.314.456.551.493-.237-.037-.281-.5-.551-.493" transform="translate(-15.243 -5.906)" fill="#486149"/>
        <path id="Path_336" data-name="Path 336" d="M45.957,17.788a.2.2,0,0,1-.207-.063.2.2,0,0,0,.207.063c.27-.005.314.456.551.493C46.271,18.244,46.227,17.782,45.957,17.788Z" transform="translate(-15.243 -5.906)" fill="none" stroke="#486149" stroke-miterlimit="10" stroke-width="1"/>
        <path id="Path_337" data-name="Path 337" d="M40.632,6.524a.416.416,0,0,1-.311-.321.416.416,0,0,0,.311.321" transform="translate(-13.434 -2.067)" fill="#486149"/>
        <path id="Path_338" data-name="Path 338" d="M40.632,6.524a.416.416,0,0,1-.311-.321A.416.416,0,0,0,40.632,6.524Z" transform="translate(-13.434 -2.067)" fill="none" stroke="#486149" stroke-miterlimit="10" stroke-width="1"/>
        <path id="Path_339" data-name="Path 339" d="M41.94,7.4a.349.349,0,0,1-.111.015A.349.349,0,0,0,41.94,7.4" transform="translate(-13.936 -2.466)" fill="#486149"/>
        <path id="Path_340" data-name="Path 340" d="M41.94,7.4a.349.349,0,0,1-.111.015A.349.349,0,0,0,41.94,7.4Z" transform="translate(-13.936 -2.466)" fill="none" stroke="#486149" stroke-miterlimit="10" stroke-width="1"/>
        <path id="Path_341" data-name="Path 341" d="M47.215,18.606c.4.235,1.009,1.227,1.566,1.608-.557-.381-1.162-1.372-1.566-1.608" transform="translate(-15.731 -6.199)" fill="#486149"/>
        <path id="Path_342" data-name="Path 342" d="M47.215,18.606c.4.235,1.009,1.227,1.566,1.608C48.224,19.833,47.618,18.841,47.215,18.606Z" transform="translate(-15.731 -6.199)" fill="none" stroke="#486149" stroke-miterlimit="10" stroke-width="1"/>
        <path id="Path_343" data-name="Path 343" d="M14.065,18.044a10.749,10.749,0,0,1,1.357-4.552,10.749,10.749,0,0,0-1.357,4.552" transform="translate(-4.686 -4.495)" fill="#486149"/>
        <path id="Path_344" data-name="Path 344" d="M14.065,18.044a10.749,10.749,0,0,1,1.357-4.552A10.749,10.749,0,0,0,14.065,18.044Z" transform="translate(-4.686 -4.495)" fill="none" stroke="#486149" stroke-miterlimit="10" stroke-width="1"/>
        <path id="Path_345" data-name="Path 345" d="M43.6,8.856l.005.006L43.6,8.856" transform="translate(-14.525 -2.951)" fill="#486149"/>
        <path id="Path_346" data-name="Path 346" d="M43.6,8.856l.005.006Z" transform="translate(-14.525 -2.951)" fill="none" stroke="#486149" stroke-miterlimit="10" stroke-width="1"/>
        <path id="Path_347" data-name="Path 347" d="M41.286,14.977c-.109-.1-.245-.133-.389-.235.144.1.28.136.389.235" transform="translate(-13.626 -4.912)" fill="#486149"/>
        <path id="Path_348" data-name="Path 348" d="M41.286,14.977c-.109-.1-.245-.133-.389-.235C41.041,14.844,41.177,14.878,41.286,14.977Z" transform="translate(-13.626 -4.912)" fill="none" stroke="#486149" stroke-miterlimit="10" stroke-width="1"/>
        <path id="Path_349" data-name="Path 349" d="M13.944,22.043c0-.579.026-1.157.081-1.724-.055.567-.081,1.146-.081,1.724" transform="translate(-4.646 -6.77)" fill="#486149"/>
        <path id="Path_350" data-name="Path 350" d="M13.944,22.043c0-.579.026-1.157.081-1.724C13.97,20.886,13.944,21.465,13.944,22.043Z" transform="translate(-4.646 -6.77)" fill="none" stroke="#486149" stroke-miterlimit="10" stroke-width="1"/>
        <path id="Path_351" data-name="Path 351" d="M28.794,15.369a22.494,22.494,0,0,1-1.4,2.913,22.494,22.494,0,0,0,1.4-2.913,7.2,7.2,0,0,1,1.864-2.329,7.2,7.2,0,0,0-1.864,2.329" transform="translate(-9.127 -4.345)" fill="#486149"/>
        <path id="Path_352" data-name="Path 352" d="M28.794,15.369a22.494,22.494,0,0,1-1.4,2.913,22.494,22.494,0,0,0,1.4-2.913,7.2,7.2,0,0,1,1.864-2.329A7.2,7.2,0,0,0,28.794,15.369Z" transform="translate(-9.127 -4.345)" fill="none" stroke="#486149" stroke-miterlimit="10" stroke-width="1"/>
        <path id="Path_353" data-name="Path 353" d="M32.521,12.728c.9-.525,1.976-.385,3.7.411a2.922,2.922,0,0,1,1.241.475,2.932,2.932,0,0,0-1.241-.475c-1.725-.8-2.8-.936-3.7-.411" transform="translate(-10.835 -4.137)" fill="#486149"/>
        <path id="Path_354" data-name="Path 354" d="M32.521,12.728c.9-.525,1.976-.385,3.7.411a2.922,2.922,0,0,1,1.241.475,2.932,2.932,0,0,0-1.241-.475C34.5,12.343,33.423,12.2,32.521,12.728Z" transform="translate(-10.835 -4.137)" fill="none" stroke="#486149" stroke-miterlimit="10" stroke-width="1"/>
        <path id="Path_355" data-name="Path 355" d="M140.528,19.742a.762.762,0,0,0-.41-.453.762.762,0,0,1,.41.453" transform="translate(-46.684 -6.427)" fill="#486149"/>
        <path id="Path_356" data-name="Path 356" d="M140.528,19.742a.762.762,0,0,0-.41-.453A.762.762,0,0,1,140.528,19.742Z" transform="translate(-46.684 -6.427)" fill="none" stroke="#486149" stroke-miterlimit="10" stroke-width="1"/>
        <path id="Path_357" data-name="Path 357" d="M149.373,30.94c-.211.955-.73,1.831-1.4,1.97.674-.139,1.193-1.015,1.4-1.97" transform="translate(-49.3 -10.309)" fill="#486149"/>
        <path id="Path_358" data-name="Path 358" d="M149.373,30.94c-.211.955-.73,1.831-1.4,1.97C148.643,32.771,149.162,31.895,149.373,30.94Z" transform="translate(-49.3 -10.309)" fill="none" stroke="#486149" stroke-miterlimit="10" stroke-width="1"/>
        <path id="Path_359" data-name="Path 359" d="M129.977,19.814a2.177,2.177,0,0,1,1.266.259c.655.111,1,.529,1.542.762-.539-.233-.886-.651-1.542-.762a2.177,2.177,0,0,0-1.266-.259" transform="translate(-43.305 -6.601)" fill="#486149"/>
        <path id="Path_360" data-name="Path 360" d="M129.977,19.814a2.177,2.177,0,0,1,1.266.259c.655.111,1,.529,1.542.762-.539-.233-.886-.651-1.542-.762A2.177,2.177,0,0,0,129.977,19.814Z" transform="translate(-43.305 -6.601)" fill="none" stroke="#486149" stroke-miterlimit="10" stroke-width="1"/>
        <path id="Path_361" data-name="Path 361" d="M135.4,22.411c-.161-.115-.433-.249-.513-.486-.165-.115-.386-.135-.529-.283.143.147.363.167.529.283.079.237.351.371.513.486.3,0,.877,1.03,1.42,2.107-.543-1.078-1.124-2.1-1.42-2.107" transform="translate(-44.764 -7.211)" fill="#486149"/>
        <path id="Path_362" data-name="Path 362" d="M135.4,22.411c-.161-.115-.433-.249-.513-.486-.165-.115-.386-.135-.529-.283.143.147.363.167.529.283.079.237.351.371.513.486.3,0,.877,1.03,1.42,2.107C136.273,23.44,135.693,22.415,135.4,22.411Z" transform="translate(-44.764 -7.211)" fill="none" stroke="#486149" stroke-miterlimit="10" stroke-width="1"/>
        <path id="Path_363" data-name="Path 363" d="M145.664,28.183a2.868,2.868,0,0,1,1.62,3.065,2.868,2.868,0,0,0-1.62-3.065" transform="translate(-48.532 -9.39)" fill="#486149"/>
        <path id="Path_364" data-name="Path 364" d="M145.664,28.183a2.868,2.868,0,0,1,1.62,3.065A2.868,2.868,0,0,0,145.664,28.183Z" transform="translate(-48.532 -9.39)" fill="none" stroke="#486149" stroke-miterlimit="10" stroke-width="1"/>
        <path id="Path_365" data-name="Path 365" d="M125.165,19.175c.191.3.683.216.8.535-.121-.32-.613-.239-.8-.535" transform="translate(-41.702 -6.389)" fill="#486149"/>
        <path id="Path_366" data-name="Path 366" d="M125.165,19.175c.191.3.683.216.8.535C125.848,19.39,125.356,19.471,125.165,19.175Z" transform="translate(-41.702 -6.389)" fill="none" stroke="#486149" stroke-miterlimit="10" stroke-width="1"/>
        <path id="Path_367" data-name="Path 367" d="M132.984,16.049a11.9,11.9,0,0,0,1.888.673,11.929,11.929,0,0,1-1.888-.673" transform="translate(-44.307 -5.347)" fill="#486149"/>
        <path id="Path_368" data-name="Path 368" d="M132.984,16.049a11.9,11.9,0,0,0,1.888.673A11.929,11.929,0,0,1,132.984,16.049Z" transform="translate(-44.307 -5.347)" fill="none" stroke="#486149" stroke-miterlimit="10" stroke-width="1"/>
        <path id="Path_369" data-name="Path 369" d="M116.011,17.7c.988-.364,1.836.069,2.785.758-.949-.688-1.8-1.122-2.785-.758" transform="translate(-38.652 -5.852)" fill="#486149"/>
        <path id="Path_370" data-name="Path 370" d="M116.011,17.7c.988-.364,1.836.069,2.785.758C117.847,17.764,117,17.331,116.011,17.7Z" transform="translate(-38.652 -5.852)" fill="none" stroke="#486149" stroke-miterlimit="10" stroke-width="1"/>
        <path id="Path_371" data-name="Path 371" d="M115.445,15.815c-.434.506-.74,1.07-.22,1.5-.52-.434-.214-1,.22-1.5" transform="translate(-38.299 -5.269)" fill="#486149"/>
        <path id="Path_372" data-name="Path 372" d="M115.445,15.815c-.434.506-.74,1.07-.22,1.5C114.705,16.885,115.011,16.321,115.445,15.815Z" transform="translate(-38.299 -5.269)" fill="none" stroke="#486149" stroke-miterlimit="10" stroke-width="1"/>
        <path id="Path_373" data-name="Path 373" d="M138.724,27.341c-.117-.245-.245-.51-.377-.779.132.269.259.533.377.779" transform="translate(-46.094 -8.85)" fill="#486149"/>
        <path id="Path_374" data-name="Path 374" d="M138.724,27.341c-.117-.245-.245-.51-.377-.779C138.479,26.831,138.606,27.1,138.724,27.341Z" transform="translate(-46.094 -8.85)" fill="none" stroke="#486149" stroke-miterlimit="10" stroke-width="1"/>
        <path id="Path_375" data-name="Path 375" d="M145.2,28.082a2.841,2.841,0,0,0-.919-.2,2.841,2.841,0,0,1,.919.2" transform="translate(-48.073 -9.289)" fill="#486149"/>
        <path id="Path_376" data-name="Path 376" d="M145.2,28.082a2.841,2.841,0,0,0-.919-.2A2.841,2.841,0,0,1,145.2,28.082Z" transform="translate(-48.073 -9.289)" fill="none" stroke="#486149" stroke-miterlimit="10" stroke-width="1"/>
        <path id="Path_377" data-name="Path 377" d="M148.483,26.339a11.492,11.492,0,0,0-1.851-1.87,11.492,11.492,0,0,1,1.851,1.87" transform="translate(-48.854 -8.153)" fill="#486149"/>
        <path id="Path_378" data-name="Path 378" d="M148.483,26.339a11.492,11.492,0,0,0-1.851-1.87A11.492,11.492,0,0,1,148.483,26.339Z" transform="translate(-48.854 -8.153)" fill="none" stroke="#486149" stroke-miterlimit="10" stroke-width="1"/>
        <path id="Path_379" data-name="Path 379" d="M150.174,29.33a4.175,4.175,0,0,1-.1,1.074,4.175,4.175,0,0,0,.1-1.074" transform="translate(-50.002 -9.772)" fill="#486149"/>
        <path id="Path_380" data-name="Path 380" d="M150.174,29.33a4.175,4.175,0,0,1-.1,1.074A4.175,4.175,0,0,0,150.174,29.33Z" transform="translate(-50.002 -9.772)" fill="none" stroke="#486149" stroke-miterlimit="10" stroke-width="1"/>
        <path id="Path_381" data-name="Path 381" d="M116.1,15.366l.011-.011-.011.011" transform="translate(-38.681 -5.116)" fill="#486149"/>
        <path id="Path_382" data-name="Path 382" d="M116.1,15.366l.011-.011Z" transform="translate(-38.681 -5.116)" fill="none" stroke="#486149" stroke-miterlimit="10" stroke-width="1"/>
        <path id="Path_383" data-name="Path 383" d="M144.071,22.469v0" transform="translate(-48.001 -7.486)" fill="#486149"/>
        <path id="Path_384" data-name="Path 384" d="M144.071,22.469v0Z" transform="translate(-48.001 -7.486)" fill="none" stroke="#486149" stroke-miterlimit="10" stroke-width="1"/>
        <path id="Path_385" data-name="Path 385" d="M144.009,22.369a.434.434,0,0,1,.036.057.434.434,0,0,0-.036-.057" transform="translate(-47.981 -7.453)" fill="#486149"/>
        <path id="Path_386" data-name="Path 386" d="M144.009,22.369a.434.434,0,0,1,.036.057A.434.434,0,0,0,144.009,22.369Z" transform="translate(-47.981 -7.453)" fill="none" stroke="#486149" stroke-miterlimit="10" stroke-width="1"/>
        <path id="Path_387" data-name="Path 387" d="M144.985,23.2a2.444,2.444,0,0,1,.223.1,2.444,2.444,0,0,0-.223-.1.419.419,0,0,0-.137-.217.419.419,0,0,1,.137.217" transform="translate(-48.26 -7.658)" fill="#486149"/>
        <path id="Path_388" data-name="Path 388" d="M144.985,23.2a2.444,2.444,0,0,1,.223.1,2.444,2.444,0,0,0-.223-.1.419.419,0,0,0-.137-.217A.419.419,0,0,1,144.985,23.2Z" transform="translate(-48.26 -7.658)" fill="none" stroke="#486149" stroke-miterlimit="10" stroke-width="1"/>
        <path id="Path_389" data-name="Path 389" d="M129.681,15.644c.309.033.632.058.948.087-.315-.029-.639-.054-.948-.087" transform="translate(-43.207 -5.212)" fill="#486149"/>
        <path id="Path_390" data-name="Path 390" d="M129.681,15.644c.309.033.632.058.948.087C130.313,15.7,129.99,15.677,129.681,15.644Z" transform="translate(-43.207 -5.212)" fill="none" stroke="#486149" stroke-miterlimit="10" stroke-width="1"/>
        <path id="Path_391" data-name="Path 391" d="M178.927,132.16a.776.776,0,0,1-.2-.129.776.776,0,0,0,.2.129" transform="translate(-59.549 -43.99)" fill="#486149"/>
        <path id="Path_392" data-name="Path 392" d="M178.927,132.16a.776.776,0,0,1-.2-.129A.776.776,0,0,0,178.927,132.16Z" transform="translate(-59.549 -43.99)" fill="none" stroke="#486149" stroke-miterlimit="10" stroke-width="1"/>
        <path id="Path_393" data-name="Path 393" d="M179.224,132.278a.551.551,0,0,1-.193-.049.536.536,0,0,0,.193.049" transform="translate(-59.649 -44.056)" fill="#486149"/>
        <path id="Path_394" data-name="Path 394" d="M179.224,132.278a.551.551,0,0,1-.193-.049A.536.536,0,0,0,179.224,132.278Z" transform="translate(-59.649 -44.056)" fill="none" stroke="#486149" stroke-miterlimit="10" stroke-width="1"/>
        <path id="Path_395" data-name="Path 395" d="M178.474,131.722a.872.872,0,0,0,.1.125.872.872,0,0,1-.1-.125" transform="translate(-59.463 -43.887)" fill="#486149"/>
        <path id="Path_396" data-name="Path 396" d="M178.474,131.722a.872.872,0,0,0,.1.125A.872.872,0,0,1,178.474,131.722Z" transform="translate(-59.463 -43.887)" fill="none" stroke="#486149" stroke-miterlimit="10" stroke-width="1"/>
        <path id="Path_397" data-name="Path 397" d="M79.3,132.39h-.715a.813.813,0,0,0,.374.054.841.841,0,0,0,.341-.054" transform="translate(-26.182 -44.109)" fill="#ffd85f"/>
      </g>
    </g>
  </g>
</svg>
